Sansita-Black Italic.ufo
<glyph name="exclam" format="1">
  <advance width="378"/>
  <unicode hex="0021"/>
  <outline>
    <contour>
      <point x="88" y="260" type="line"/>
      <point x="88" y="251"/>
      <point x="88" y="262"/>
      <point x="88" y="257" type="curve" smooth="yes"/>
      <point x="88" y="211"/>
      <point x="123" y="180"/>
      <point x="182" y="180" type="curve" smooth="yes"/>
      <point x="210" y="180"/>
      <point x="238" y="187"/>
      <point x="256" y="209" type="curve"/>
      <point x="259" y="346"/>
      <point x="367" y="450"/>
      <point x="367" y="565" type="curve" smooth="yes"/>
      <point x="367" y="636"/>
      <point x="327" y="680"/>
      <point x="254" y="680" type="curve" smooth="yes"/>
      <point x="225" y="680"/>
      <point x="192" y="674"/>
      <point x="167" y="664" type="curve"/>
    </contour>
    <component base="period" xOffset="75"/>
  </outline>
</glyph>
<glyph name="quotedbl" format="1">
  <advance width="470"/>
  <unicode hex="0022"/>
  <outline>
    <contour>
      <point x="185" y="446" type="line"/>
      <point x="230" y="482"/>
      <point x="276" y="594"/>
      <point x="276" y="649" type="curve" smooth="yes"/>
      <point x="276" y="704"/>
      <point x="235" y="740"/>
      <point x="173" y="740" type="curve" smooth="yes"/>
      <point x="156" y="740"/>
      <point x="131" y="737"/>
      <point x="110" y="734" type="curve"/>
      <point x="109" y="641"/>
      <point x="90" y="531"/>
      <point x="65" y="446" type="curve"/>
    </contour>
    <contour>
      <point x="413" y="446" type="line"/>
      <point x="458" y="482"/>
      <point x="504" y="594"/>
      <point x="504" y="649" type="curve" smooth="yes"/>
      <point x="504" y="704"/>
      <point x="463" y="740"/>
      <point x="401" y="740" type="curve" smooth="yes"/>
      <point x="384" y="740"/>
      <point x="359" y="737"/>
      <point x="338" y="734" type="curve"/>
      <point x="337" y="641"/>
      <point x="318" y="531"/>
      <point x="293" y="446" type="curve"/>
    </contour>
  </outline>
</glyph>
<glyph name="numbersign" format="1">
  <advance width="576"/>
  <unicode hex="0023"/>
  <outline>
    <contour>
      <point x="473" y="268" type="line"/>
      <point x="490" y="361" type="line"/>
      <point x="514" y="361" type="line" smooth="yes"/>
      <point x="546" y="361"/>
      <point x="592" y="393"/>
      <point x="592" y="456" type="curve" smooth="yes"/>
      <point x="592" y="470"/>
      <point x="590" y="484"/>
      <point x="586" y="500" type="curve"/>
      <point x="521" y="500" type="line"/>
      <point x="544" y="646" type="line"/>
      <point x="521" y="654"/>
      <point x="500" y="659"/>
      <point x="481" y="659" type="curve" smooth="yes"/>
      <point x="437" y="659"/>
      <point x="407" y="634"/>
      <point x="400" y="593" type="curve" smooth="yes"/>
      <point x="383" y="500" type="line"/>
      <point x="293" y="500" type="line"/>
      <point x="317" y="646" type="line"/>
      <point x="293" y="654"/>
      <point x="272" y="659"/>
      <point x="253" y="659" type="curve" smooth="yes"/>
      <point x="207" y="659"/>
      <point x="180" y="634"/>
      <point x="172" y="593" type="curve" smooth="yes"/>
      <point x="155" y="500" type="line"/>
      <point x="126" y="500" type="line" smooth="yes"/>
      <point x="74" y="500"/>
      <point x="33" y="462"/>
      <point x="34" y="404" type="curve" smooth="yes"/>
      <point x="34" y="391"/>
      <point x="36" y="376"/>
      <point x="40" y="361" type="curve"/>
      <point x="122" y="361" type="line"/>
      <point x="104" y="268" type="line"/>
      <point x="84" y="268" type="line" smooth="yes"/>
      <point x="29" y="268"/>
      <point x="6" y="234"/>
      <point x="6" y="177" type="curve" smooth="yes"/>
      <point x="6" y="165"/>
      <point x="8" y="151"/>
      <point x="13" y="135" type="curve"/>
      <point x="84" y="135" type="line"/>
      <point x="64" y="12" type="line"/>
      <point x="85" y="4"/>
      <point x="106" y="0"/>
      <point x="126" y="0" type="curve" smooth="yes"/>
      <point x="172" y="0"/>
      <point x="204" y="24"/>
      <point x="213" y="65" type="curve" smooth="yes"/>
      <point x="228" y="135" type="line"/>
      <point x="313" y="135" type="line"/>
      <point x="291" y="12" type="line"/>
      <point x="314" y="4"/>
      <point x="334" y="0"/>
      <point x="354" y="0" type="curve" smooth="yes"/>
      <point x="400" y="0"/>
      <point x="439" y="24"/>
      <point x="447" y="65" type="curve" smooth="yes"/>
      <point x="456" y="135" type="line"/>
      <point x="485" y="135" type="line" smooth="yes"/>
      <point x="541" y="135"/>
      <point x="562" y="169"/>
      <point x="562" y="225" type="curve" smooth="yes"/>
      <point x="562" y="237"/>
      <point x="560" y="252"/>
      <point x="556" y="268" type="curve"/>
    </contour>
    <contour>
      <point x="246" y="268" type="line"/>
      <point x="264" y="361" type="line"/>
      <point x="351" y="361" type="line"/>
      <point x="332" y="268" type="line"/>
    </contour>
  </outline>
</glyph>
<glyph name="dollar" format="1">
  <advance width="576"/>
  <unicode hex="0024"/>
  <outline>
    <contour>
      <point x="425" y="656" type="line"/>
      <point x="447" y="760" type="line"/>
      <point x="433" y="764"/>
      <point x="416" y="766"/>
      <point x="400" y="766" type="curve" smooth="yes"/>
      <point x="355" y="766"/>
      <point x="339" y="748"/>
      <point x="328" y="686" type="curve" smooth="yes"/>
      <point x="322" y="651" type="line"/>
    </contour>
    <contour>
      <point x="187" y="-9" type="line"/>
      <point x="169" y="-112" type="line"/>
      <point x="181" y="-115"/>
      <point x="199" y="-117"/>
      <point x="215" y="-117" type="curve" smooth="yes"/>
      <point x="262" y="-117"/>
      <point x="281" y="-99"/>
      <point x="291" y="-37" type="curve" smooth="yes"/>
      <point x="298" y="0" type="line"/>
    </contour>
    <contour>
      <point x="200" y="668"/>
      <point x="45" y="566"/>
      <point x="45" y="417" type="curve" smooth="yes"/>
      <point x="45" y="332"/>
      <point x="94" y="288"/>
      <point x="154" y="256" type="curve" smooth="yes"/>
      <point x="225" y="216"/>
      <point x="315" y="185"/>
      <point x="315" y="121" type="curve" smooth="yes"/>
      <point x="315" y="71"/>
      <point x="280" y="45"/>
      <point x="235" y="45" type="curve" smooth="yes"/>
      <point x="193" y="45"/>
      <point x="179" y="81"/>
      <point x="179" y="124" type="curve" smooth="yes"/>
      <point x="179" y="154"/>
      <point x="186" y="186"/>
      <point x="196" y="212" type="curve"/>
      <point x="166" y="222"/>
      <point x="136" y="225"/>
      <point x="114" y="225" type="curve" smooth="yes"/>
      <point x="26" y="225"/>
      <point x="-15" y="167"/>
      <point x="-15" y="102" type="curve" smooth="yes"/>
      <point x="-15" y="-12"/>
      <point x="107" y="-19"/>
      <point x="182" y="-19" type="curve" smooth="yes"/>
      <point x="383" y="-19"/>
      <point x="562" y="53"/>
      <point x="562" y="228" type="curve" smooth="yes"/>
      <point x="562" y="309"/>
      <point x="509" y="351"/>
      <point x="449" y="380" type="curve" smooth="yes"/>
      <point x="371" y="421"/>
      <point x="285" y="444"/>
      <point x="285" y="507" type="curve" smooth="yes"/>
      <point x="285" y="571"/>
      <point x="332" y="607"/>
      <point x="374" y="607" type="curve" smooth="yes"/>
      <point x="422" y="607"/>
      <point x="440" y="564"/>
      <point x="440" y="520" type="curve" smooth="yes"/>
      <point x="440" y="494"/>
      <point x="434" y="468"/>
      <point x="425" y="449" type="curve"/>
      <point x="445" y="444"/>
      <point x="467" y="440"/>
      <point x="488" y="440" type="curve" smooth="yes"/>
      <point x="556" y="440"/>
      <point x="624" y="474"/>
      <point x="624" y="549" type="curve" smooth="yes"/>
      <point x="624" y="652"/>
      <point x="497" y="668"/>
      <point x="410" y="668" type="curve" smooth="yes"/>
    </contour>
  </outline>
</glyph>
<glyph name="ampersand" format="1">
  <advance width="769"/>
  <unicode hex="0026"/>
  <outline>
    <contour>
      <point x="413" y="74" type="line"/>
      <point x="397" y="70"/>
      <point x="373" y="68"/>
      <point x="358" y="68" type="curve" smooth="yes"/>
      <point x="264" y="68"/>
      <point x="207" y="141"/>
      <point x="207" y="211" type="curve" smooth="yes"/>
      <point x="207" y="270"/>
      <point x="229" y="304"/>
      <point x="289" y="334" type="curve"/>
      <point x="271" y="368" type="line"/>
      <point x="104" y="347"/>
      <point x="36" y="287"/>
      <point x="36" y="180" type="curve" smooth="yes"/>
      <point x="36" y="35"/>
      <point x="156" y="-20"/>
      <point x="306" y="-20" type="curve" smooth="yes"/>
      <point x="390" y="-20"/>
      <point x="436" y="-2"/>
      <point x="492" y="17" type="curve"/>
    </contour>
    <contour>
      <point x="541" y="117"/>
      <point x="381" y="277"/>
      <point x="381" y="499" type="curve" smooth="yes"/>
      <point x="381" y="563"/>
      <point x="395" y="611"/>
      <point x="423" y="611" type="curve" smooth="yes"/>
      <point x="462" y="611"/>
      <point x="464" y="550"/>
      <point x="464" y="515" type="curve" smooth="yes"/>
      <point x="464" y="491"/>
      <point x="462" y="471"/>
      <point x="458" y="457" type="curve"/>
      <point x="467" y="456"/>
      <point x="493" y="455"/>
      <point x="503" y="455" type="curve" smooth="yes"/>
      <point x="580" y="455"/>
      <point x="642" y="493"/>
      <point x="642" y="566" type="curve" smooth="yes"/>
      <point x="642" y="657"/>
      <point x="540" y="680"/>
      <point x="447" y="680" type="curve" smooth="yes"/>
      <point x="312" y="680"/>
      <point x="182" y="632"/>
      <point x="182" y="460" type="curve" smooth="yes"/>
      <point x="182" y="265"/>
      <point x="396" y="-20"/>
      <point x="619" y="-20" type="curve" smooth="yes"/>
      <point x="693" y="-20"/>
      <point x="749" y="6"/>
      <point x="749" y="85" type="curve" smooth="yes"/>
      <point x="749" y="101"/>
      <point x="747" y="117"/>
      <point x="741" y="132" type="curve"/>
      <point x="735" y="126"/>
      <point x="704" y="117"/>
      <point x="673" y="117" type="curve" smooth="yes"/>
    </contour>
    <contour>
      <point x="628" y="105" type="line"/>
      <point x="677" y="158"/>
      <point x="693" y="218"/>
      <point x="693" y="270" type="curve" smooth="yes"/>
      <point x="693" y="343"/>
      <point x="656" y="398"/>
      <point x="582" y="398" type="curve" smooth="yes"/>
      <point x="544" y="398"/>
      <point x="498" y="384"/>
      <point x="479" y="364" type="curve"/>
      <point x="519" y="334"/>
      <point x="539" y="296"/>
      <point x="541" y="249" type="curve" smooth="yes"/>
      <point x="543" y="217"/>
      <point x="532" y="186"/>
      <point x="513" y="150" type="curve"/>
    </contour>
  </outline>
</glyph>
<glyph name="quotesingle" format="1">
  <advance width="207"/>
  <unicode hex="0027"/>
  <outline>
    <contour>
      <point x="177" y="446" type="line"/>
      <point x="223" y="482"/>
      <point x="268" y="594"/>
      <point x="268" y="649" type="curve" smooth="yes"/>
      <point x="268" y="704"/>
      <point x="227" y="740"/>
      <point x="165" y="740" type="curve" smooth="yes"/>
      <point x="148" y="740"/>
      <point x="123" y="737"/>
      <point x="102" y="734" type="curve"/>
      <point x="101" y="641"/>
      <point x="83" y="531"/>
      <point x="58" y="446" type="curve"/>
    </contour>
  </outline>
</glyph>
<glyph name="parenleft" format="1">
  <advance width="368"/>
  <unicode hex="0028"/>
  <outline>
    <contour>
      <point x="459" y="794"/>
      <point x="443" y="800"/>
      <point x="419" y="800" type="curve" smooth="yes"/>
      <point x="242" y="800"/>
      <point x="44" y="472"/>
      <point x="44" y="174" type="curve" smooth="yes"/>
      <point x="44" y="-33"/>
      <point x="145" y="-200"/>
      <point x="245" y="-200" type="curve" smooth="yes"/>
      <point x="265" y="-200"/>
      <point x="277" y="-193"/>
      <point x="281" y="-180" type="curve"/>
      <point x="236" y="-108"/>
      <point x="215" y="10"/>
      <point x="215" y="141" type="curve" smooth="yes"/>
      <point x="215" y="376"/>
      <point x="285" y="653"/>
      <point x="469" y="780" type="curve"/>
    </contour>
  </outline>
</glyph>
<glyph name="parenright" format="1">
  <advance width="353"/>
  <unicode hex="0029"/>
  <outline>
    <contour>
      <point x="111" y="709"/>
      <point x="132" y="590"/>
      <point x="132" y="458" type="curve" smooth="yes"/>
      <point x="132" y="222"/>
      <point x="64" y="-57"/>
      <point x="-117" y="-180" type="curve"/>
      <point x="-111" y="-193"/>
      <point x="-98" y="-200"/>
      <point x="-71" y="-200" type="curve" smooth="yes"/>
      <point x="105" y="-200"/>
      <point x="304" y="129"/>
      <point x="304" y="423" type="curve" smooth="yes"/>
      <point x="304" y="627"/>
      <point x="202" y="800"/>
      <point x="108" y="800" type="curve" smooth="yes"/>
      <point x="83" y="800"/>
      <point x="70" y="789"/>
      <point x="67" y="780" type="curve"/>
    </contour>
  </outline>
</glyph>
<glyph name="asterisk" format="1">
  <advance width="400"/>
  <unicode hex="002A"/>
  <outline>
    <contour>
      <point x="324" y="566" type="line"/>
      <point x="340" y="595"/>
      <point x="349" y="623"/>
      <point x="349" y="646" type="curve" smooth="yes"/>
      <point x="349" y="675"/>
      <point x="334" y="697"/>
      <point x="279" y="697" type="curve" smooth="yes"/>
      <point x="258" y="697"/>
      <point x="234" y="692"/>
      <point x="213" y="683" type="curve"/>
      <point x="208" y="590" type="line"/>
      <point x="184" y="614"/>
      <point x="160" y="632"/>
      <point x="138" y="639" type="curve" smooth="yes"/>
      <point x="110" y="648"/>
      <point x="84" y="641"/>
      <point x="67" y="588" type="curve" smooth="yes"/>
      <point x="61" y="568"/>
      <point x="58" y="544"/>
      <point x="60" y="521" type="curve"/>
      <point x="147" y="487" type="line"/>
      <point x="116" y="473"/>
      <point x="90" y="455"/>
      <point x="76" y="435" type="curve" smooth="yes"/>
      <point x="59" y="412"/>
      <point x="58" y="385"/>
      <point x="103" y="353" type="curve" smooth="yes"/>
      <point x="119" y="341"/>
      <point x="142" y="331"/>
      <point x="164" y="326" type="curve"/>
      <point x="227" y="403" type="line"/>
      <point x="231" y="368"/>
      <point x="241" y="337"/>
      <point x="255" y="317" type="curve" smooth="yes"/>
      <point x="272" y="294"/>
      <point x="297" y="285"/>
      <point x="342" y="317" type="curve" smooth="yes"/>
      <point x="359" y="330"/>
      <point x="375" y="348"/>
      <point x="387" y="367" type="curve"/>
      <point x="336" y="447" type="line"/>
      <point x="368" y="441"/>
      <point x="398" y="441"/>
      <point x="420" y="448" type="curve" smooth="yes"/>
      <point x="448" y="457"/>
      <point x="464" y="478"/>
      <point x="447" y="531" type="curve" smooth="yes"/>
      <point x="441" y="551"/>
      <point x="429" y="572"/>
      <point x="413" y="589" type="curve"/>
    </contour>
  </outline>
</glyph>
<glyph name="plus" format="1">
  <advance width="576"/>
  <unicode hex="002B"/>
  <outline>
    <contour>
      <point x="146" y="296" type="line" smooth="yes"/>
      <point x="100" y="296"/>
      <point x="68" y="264"/>
      <point x="68" y="216" type="curve" smooth="yes"/>
      <point x="68" y="207"/>
      <point x="69" y="196"/>
      <point x="72" y="187" type="curve"/>
      <point x="210" y="187" type="line"/>
      <point x="175" y="13" type="line"/>
      <point x="191" y="8"/>
      <point x="207" y="6"/>
      <point x="221" y="6" type="curve" smooth="yes"/>
      <point x="269" y="6"/>
      <point x="296" y="31"/>
      <point x="305" y="71" type="curve" smooth="yes"/>
      <point x="327" y="187" type="line"/>
      <point x="408" y="187" type="line" smooth="yes"/>
      <point x="461" y="187"/>
      <point x="498" y="216"/>
      <point x="498" y="261" type="curve" smooth="yes"/>
      <point x="498" y="273"/>
      <point x="495" y="283"/>
      <point x="493" y="296" type="curve"/>
      <point x="348" y="296" type="line"/>
      <point x="379" y="458" type="line"/>
      <point x="365" y="464"/>
      <point x="350" y="466"/>
      <point x="336" y="466" type="curve" smooth="yes"/>
      <point x="286" y="466"/>
      <point x="256" y="432"/>
      <point x="248" y="394" type="curve" smooth="yes"/>
      <point x="231" y="296" type="line"/>
    </contour>
  </outline>
</glyph>
<glyph name="comma" format="1">
  <advance width="296"/>
  <unicode hex="002C"/>
  <outline>
    <contour>
      <point x="203" y="122"/>
      <point x="160" y="159"/>
      <point x="97" y="159" type="curve" smooth="yes"/>
      <point x="65" y="159"/>
      <point x="22" y="150"/>
      <point x="4" y="137" type="curve"/>
      <point x="11" y="115"/>
      <point x="16" y="94"/>
      <point x="16" y="60" type="curve" smooth="yes"/>
      <point x="16" y="23"/>
      <point x="14" y="-50"/>
      <point x="-67" y="-136" type="curve"/>
      <point x="-56" y="-138"/>
      <point x="-43" y="-142"/>
      <point x="-20" y="-142" type="curve" smooth="yes"/>
      <point x="103" y="-142"/>
      <point x="203" y="-53"/>
      <point x="203" y="53" type="curve" smooth="yes"/>
    </contour>
  </outline>
</glyph>
<glyph name="period" format="1">
  <advance width="267"/>
  <unicode hex="002E"/>
  <outline>
    <contour>
      <point x="38" y="148"/>
      <point x="-16" y="115"/>
      <point x="-16" y="61" type="curve" smooth="yes"/>
      <point x="-16" y="8"/>
      <point x="33" y="-21"/>
      <point x="102" y="-21" type="curve" smooth="yes"/>
      <point x="171" y="-21"/>
      <point x="221" y="8"/>
      <point x="221" y="63" type="curve" smooth="yes"/>
      <point x="221" y="115"/>
      <point x="174" y="148"/>
      <point x="106" y="148" type="curve" smooth="yes"/>
    </contour>
  </outline>
</glyph>
<glyph name="slash" format="1">
  <advance width="310"/>
  <unicode hex="002F"/>
  <outline>
    <contour>
      <point x="378" y="664" type="line"/>
      <point x="390" y="698"/>
      <point x="397" y="727"/>
      <point x="397" y="746" type="curve" smooth="yes"/>
      <point x="397" y="789"/>
      <point x="366" y="801"/>
      <point x="292" y="801" type="curve" smooth="yes"/>
      <point x="271" y="801"/>
      <point x="258" y="800"/>
      <point x="244" y="798" type="curve"/>
      <point x="-79" y="-96" type="line" smooth="yes"/>
      <point x="-86" y="-114"/>
      <point x="-88" y="-130"/>
      <point x="-88" y="-141" type="curve" smooth="yes"/>
      <point x="-88" y="-182"/>
      <point x="-60" y="-200"/>
      <point x="7" y="-200" type="curve" smooth="yes"/>
      <point x="29" y="-200"/>
      <point x="63" y="-198"/>
      <point x="67" y="-196" type="curve"/>
    </contour>
  </outline>
</glyph>
<glyph name="zero" format="1">
  <advance width="576"/>
  <unicode hex="0030"/>
  <outline>
    <contour>
      <point x="139" y="680"/>
      <point x="21" y="495"/>
      <point x="21" y="246" type="curve" smooth="yes"/>
      <point x="21" y="89"/>
      <point x="68" y="-21"/>
      <point x="238" y="-21" type="curve" smooth="yes"/>
      <point x="464" y="-21"/>
      <point x="583" y="163"/>
      <point x="583" y="413" type="curve" smooth="yes"/>
      <point x="583" y="570"/>
      <point x="535" y="680"/>
      <point x="365" y="680" type="curve" smooth="yes"/>
    </contour>
    <contour>
      <point x="376" y="598"/>
      <point x="383" y="563"/>
      <point x="383" y="518" type="curve" smooth="yes"/>
      <point x="383" y="476"/>
      <point x="376" y="427"/>
      <point x="375" y="391" type="curve" smooth="yes"/>
      <point x="352" y="165"/>
      <point x="321" y="62"/>
      <point x="258" y="62" type="curve" smooth="yes"/>
      <point x="231" y="62"/>
      <point x="225" y="101"/>
      <point x="225" y="148" type="curve" smooth="yes"/>
      <point x="225" y="189"/>
      <point x="230" y="236"/>
      <point x="231" y="269" type="curve" smooth="yes"/>
      <point x="255" y="495"/>
      <point x="285" y="598"/>
      <point x="348" y="598" type="curve" smooth="yes"/>
    </contour>
  </outline>
</glyph>
<glyph name="one" format="1">
  <advance width="576"/>
  <unicode hex="0031"/>
  <outline>
    <contour>
      <point x="448" y="669" type="line"/>
      <point x="274" y="596"/>
      <point x="162" y="558"/>
      <point x="44" y="540" type="curve"/>
      <point x="51" y="476"/>
      <point x="83" y="433"/>
      <point x="142" y="433" type="curve" smooth="yes"/>
      <point x="199" y="433"/>
      <point x="245" y="459"/>
      <point x="293" y="494" type="curve"/>
      <point x="280" y="580" type="line"/>
      <point x="171" y="137" type="line"/>
      <point x="84" y="137" type="line" smooth="yes"/>
      <point x="33" y="137"/>
      <point x="5" y="98"/>
      <point x="5" y="37" type="curve" smooth="yes"/>
      <point x="5" y="28"/>
      <point x="4" y="17"/>
      <point x="6" y="3" type="curve"/>
      <point x="33" y="4"/>
      <point x="52" y="3"/>
      <point x="84" y="3" type="curve" smooth="yes"/>
      <point x="199" y="3"/>
      <point x="352" y="-6"/>
      <point x="419" y="-6" type="curve" smooth="yes"/>
      <point x="514" y="-6"/>
      <point x="561" y="12"/>
      <point x="561" y="83" type="curve" smooth="yes"/>
      <point x="561" y="108"/>
      <point x="555" y="134"/>
      <point x="549" y="147" type="curve"/>
      <point x="527" y="144"/>
      <point x="491" y="138"/>
      <point x="438" y="138" type="curve" smooth="yes"/>
      <point x="422" y="138" type="line"/>
      <point x="509" y="632" type="line"/>
    </contour>
  </outline>
</glyph>
<glyph name="two" format="1">
  <advance width="576"/>
  <unicode hex="0032"/>
  <outline>
    <contour>
      <point x="102" y="245" type="line" smooth="yes"/>
      <point x="42" y="200"/>
      <point x="14" y="164"/>
      <point x="14" y="106" type="curve" smooth="yes"/>
      <point x="14" y="63"/>
      <point x="29" y="16"/>
      <point x="52" y="-1" type="curve"/>
      <point x="59" y="9"/>
      <point x="68" y="15"/>
      <point x="95" y="15" type="curve" smooth="yes"/>
      <point x="154" y="15"/>
      <point x="235" y="-12"/>
      <point x="343" y="-12" type="curve" smooth="yes"/>
      <point x="495" y="-12"/>
      <point x="546" y="48"/>
      <point x="546" y="135" type="curve" smooth="yes"/>
      <point x="546" y="167"/>
      <point x="539" y="195"/>
      <point x="513" y="232" type="curve"/>
      <point x="489" y="204"/>
      <point x="454" y="196"/>
      <point x="404" y="196" type="curve" smooth="yes"/>
      <point x="366" y="196"/>
      <point x="290" y="199"/>
      <point x="225" y="213" type="curve"/>
      <point x="333" y="274"/>
      <point x="379" y="295"/>
      <point x="426" y="323" type="curve" smooth="yes"/>
      <point x="542" y="392"/>
      <point x="557" y="450"/>
      <point x="557" y="511" type="curve" smooth="yes"/>
      <point x="557" y="638"/>
      <point x="441" y="680"/>
      <point x="334" y="680" type="curve" smooth="yes"/>
      <point x="214" y="680"/>
      <point x="60" y="626"/>
      <point x="60" y="519" type="curve" smooth="yes"/>
      <point x="60" y="468"/>
      <point x="93" y="429"/>
      <point x="132" y="433" type="curve"/>
      <point x="149" y="477"/>
      <point x="202" y="513"/>
      <point x="267" y="513" type="curve" smooth="yes"/>
      <point x="298" y="513"/>
      <point x="332" y="508"/>
      <point x="332" y="460" type="curve" smooth="yes"/>
      <point x="332" y="427"/>
      <point x="320" y="408"/>
      <point x="292" y="387" type="curve" smooth="yes"/>
    </contour>
  </outline>
</glyph>
<glyph name="three" format="1">
  <advance width="576"/>
  <unicode hex="0033"/>
  <outline>
    <contour>
      <point x="194" y="287" type="line"/>
      <point x="280" y="287"/>
      <point x="296" y="249"/>
      <point x="296" y="209" type="curve" smooth="yes"/>
      <point x="296" y="156"/>
      <point x="253" y="123"/>
      <point x="171" y="123" type="curve" smooth="yes"/>
      <point x="119" y="123"/>
      <point x="53" y="142"/>
      <point x="43" y="187" type="curve"/>
      <point x="19" y="164"/>
      <point x="0" y="127"/>
      <point x="0" y="89" type="curve" smooth="yes"/>
      <point x="1" y="26"/>
      <point x="57" y="-20"/>
      <point x="199" y="-20" type="curve" smooth="yes"/>
      <point x="415" y="-20"/>
      <point x="535" y="80"/>
      <point x="535" y="201" type="curve" smooth="yes"/>
      <point x="535" y="276"/>
      <point x="493" y="344"/>
      <point x="397" y="366" type="curve"/>
      <point x="512" y="408"/>
      <point x="569" y="477"/>
      <point x="569" y="548" type="curve" smooth="yes"/>
      <point x="569" y="635"/>
      <point x="474" y="680"/>
      <point x="355" y="680" type="curve" smooth="yes"/>
      <point x="250" y="680"/>
      <point x="83" y="636"/>
      <point x="83" y="518" type="curve" smooth="yes"/>
      <point x="83" y="486"/>
      <point x="95" y="464"/>
      <point x="120" y="462" type="curve"/>
      <point x="163" y="499"/>
      <point x="207" y="515"/>
      <point x="247" y="515" type="curve" smooth="yes"/>
      <point x="316" y="515"/>
      <point x="347" y="493"/>
      <point x="347" y="463" type="curve" smooth="yes"/>
      <point x="347" y="439"/>
      <point x="329" y="412"/>
      <point x="214" y="390" type="curve"/>
    </contour>
  </outline>
</glyph>
<glyph name="four" format="1">
  <advance width="576"/>
  <unicode hex="0034"/>
  <outline>
    <contour>
      <point x="43" y="294" type="line" smooth="yes"/>
      <point x="17" y="265"/>
      <point x="7" y="220"/>
      <point x="7" y="180" type="curve" smooth="yes"/>
      <point x="7" y="156"/>
      <point x="11" y="140"/>
      <point x="22" y="110" type="curve"/>
      <point x="240" y="110" type="line"/>
      <point x="219" y="0" type="line"/>
      <point x="439" y="0" type="line"/>
      <point x="455" y="111" type="line"/>
      <point x="476" y="111" type="line" smooth="yes"/>
      <point x="525" y="111"/>
      <point x="563" y="147"/>
      <point x="563" y="205" type="curve" smooth="yes"/>
      <point x="563" y="224"/>
      <point x="557" y="255"/>
      <point x="548" y="267" type="curve"/>
      <point x="535" y="266"/>
      <point x="514" y="260"/>
      <point x="486" y="259" type="curve" smooth="yes"/>
      <point x="477" y="259" type="line"/>
      <point x="514" y="469"/>
      <point x="540" y="575"/>
      <point x="562" y="660" type="curve"/>
      <point x="373" y="660" type="line"/>
    </contour>
    <contour>
      <point x="115" y="257" type="line"/>
      <point x="342" y="513" type="line"/>
      <point x="318" y="451"/>
      <point x="293" y="359"/>
      <point x="268" y="257" type="curve"/>
    </contour>
  </outline>
</glyph>
<glyph name="five" format="1">
  <advance width="576"/>
  <unicode hex="0035"/>
  <outline>
    <contour>
      <point x="165" y="660" type="line"/>
      <point x="65" y="291" type="line"/>
      <point x="99" y="292"/>
      <point x="135" y="292"/>
      <point x="178" y="292" type="curve" smooth="yes"/>
      <point x="247" y="292"/>
      <point x="303" y="286"/>
      <point x="303" y="211" type="curve" smooth="yes"/>
      <point x="303" y="148"/>
      <point x="256" y="123"/>
      <point x="185" y="123" type="curve" smooth="yes"/>
      <point x="120" y="123"/>
      <point x="78" y="142"/>
      <point x="50" y="187" type="curve"/>
      <point x="26" y="163"/>
      <point x="13" y="124"/>
      <point x="13" y="90" type="curve" smooth="yes"/>
      <point x="13" y="-8"/>
      <point x="127" y="-20"/>
      <point x="209" y="-20" type="curve" smooth="yes"/>
      <point x="425" y="-20"/>
      <point x="540" y="112"/>
      <point x="540" y="250" type="curve" smooth="yes"/>
      <point x="540" y="377"/>
      <point x="450" y="422"/>
      <point x="346" y="422" type="curve" smooth="yes"/>
      <point x="307" y="422"/>
      <point x="259" y="420"/>
      <point x="205" y="416" type="curve"/>
      <point x="230" y="478" type="line"/>
      <point x="390" y="478" type="line" smooth="yes"/>
      <point x="498" y="478"/>
      <point x="575" y="509"/>
      <point x="575" y="619" type="curve" smooth="yes"/>
      <point x="575" y="633"/>
      <point x="575" y="650"/>
      <point x="570" y="670" type="curve"/>
      <point x="540" y="661"/>
      <point x="464" y="660"/>
      <point x="405" y="660" type="curve" smooth="yes"/>
    </contour>
  </outline>
</glyph>
<glyph name="six" format="1">
  <advance width="576"/>
  <unicode hex="0036"/>
  <outline>
    <contour>
      <point x="193" y="680"/>
      <point x="16" y="463"/>
      <point x="16" y="233" type="curve" smooth="yes"/>
      <point x="16" y="82"/>
      <point x="94" y="-20"/>
      <point x="252" y="-20" type="curve" smooth="yes"/>
      <point x="412" y="-20"/>
      <point x="561" y="83"/>
      <point x="561" y="262" type="curve" smooth="yes"/>
      <point x="561" y="368"/>
      <point x="505" y="448"/>
      <point x="388" y="448" type="curve" smooth="yes"/>
      <point x="313" y="448"/>
      <point x="282" y="416"/>
      <point x="243" y="356" type="curve"/>
      <point x="266" y="467"/>
      <point x="323" y="532"/>
      <point x="433" y="532" type="curve" smooth="yes"/>
      <point x="476" y="532"/>
      <point x="513" y="522"/>
      <point x="538" y="495" type="curve"/>
      <point x="565" y="517"/>
      <point x="579" y="551"/>
      <point x="579" y="582" type="curve" smooth="yes"/>
      <point x="579" y="657"/>
      <point x="500" y="680"/>
      <point x="424" y="680" type="curve" smooth="yes"/>
    </contour>
    <contour>
      <point x="331" y="327"/>
      <point x="351" y="314"/>
      <point x="351" y="263" type="curve" smooth="yes"/>
      <point x="351" y="215"/>
      <point x="333" y="108"/>
      <point x="265" y="108" type="curve" smooth="yes"/>
      <point x="241" y="108"/>
      <point x="221" y="121"/>
      <point x="221" y="171" type="curve" smooth="yes"/>
      <point x="221" y="217"/>
      <point x="239" y="327"/>
      <point x="307" y="327" type="curve" smooth="yes"/>
    </contour>
  </outline>
</glyph>
<glyph name="seven" format="1">
  <advance width="576"/>
  <unicode hex="0037"/>
  <outline>
    <contour>
      <point x="259" y="660" type="line" smooth="yes"/>
      <point x="173" y="660"/>
      <point x="120" y="664"/>
      <point x="90" y="670" type="curve"/>
      <point x="76" y="648"/>
      <point x="63" y="626"/>
      <point x="63" y="587" type="curve" smooth="yes"/>
      <point x="63" y="491"/>
      <point x="152" y="486"/>
      <point x="248" y="486" type="curve" smooth="yes"/>
      <point x="419" y="486" type="line"/>
      <point x="165" y="235" type="line" smooth="yes"/>
      <point x="107" y="173"/>
      <point x="94" y="133"/>
      <point x="94" y="98" type="curve" smooth="yes"/>
      <point x="94" y="19"/>
      <point x="140" y="-20"/>
      <point x="212" y="-20" type="curve" smooth="yes"/>
      <point x="246" y="-20"/>
      <point x="294" y="-11"/>
      <point x="331" y="3" type="curve"/>
      <point x="330" y="9"/>
      <point x="330" y="15"/>
      <point x="330" y="22" type="curve" smooth="yes"/>
      <point x="309" y="99"/>
      <point x="346" y="186"/>
      <point x="519" y="425" type="curve" smooth="yes"/>
      <point x="547" y="466"/>
      <point x="572" y="497"/>
      <point x="602" y="536" type="curve"/>
      <point x="589" y="660" type="line"/>
    </contour>
  </outline>
</glyph>
<glyph name="eight" format="1">
  <advance width="576"/>
  <unicode hex="0038"/>
  <outline>
    <contour>
      <point x="232" y="680"/>
      <point x="92" y="580"/>
      <point x="92" y="436" type="curve" smooth="yes"/>
      <point x="92" y="386"/>
      <point x="109" y="352"/>
      <point x="154" y="314" type="curve"/>
      <point x="45" y="260"/>
      <point x="9" y="201"/>
      <point x="9" y="136" type="curve" smooth="yes"/>
      <point x="9" y="23"/>
      <point x="118" y="-20"/>
      <point x="233" y="-20" type="curve" smooth="yes"/>
      <point x="396" y="-20"/>
      <point x="548" y="68"/>
      <point x="548" y="221" type="curve" smooth="yes"/>
      <point x="548" y="276"/>
      <point x="531" y="299"/>
      <point x="434" y="380" type="curve"/>
      <point x="499" y="404"/>
      <point x="573" y="457"/>
      <point x="573" y="545" type="curve" smooth="yes"/>
      <point x="573" y="642"/>
      <point x="481" y="680"/>
      <point x="387" y="680" type="curve" smooth="yes"/>
    </contour>
    <contour>
      <point x="329" y="461" type="line" smooth="yes"/>
      <point x="302" y="480"/>
      <point x="286" y="495"/>
      <point x="286" y="519" type="curve" smooth="yes"/>
      <point x="286" y="553"/>
      <point x="318" y="570"/>
      <point x="351" y="570" type="curve" smooth="yes"/>
      <point x="390" y="570"/>
      <point x="410" y="541"/>
      <point x="410" y="508" type="curve" smooth="yes"/>
      <point x="410" y="480"/>
      <point x="396" y="450"/>
      <point x="368" y="433" type="curve"/>
    </contour>
    <contour>
      <point x="258" y="223" type="line" smooth="yes"/>
      <point x="285" y="204"/>
      <point x="301" y="189"/>
      <point x="301" y="165" type="curve" smooth="yes"/>
      <point x="301" y="131"/>
      <point x="271" y="97"/>
      <point x="238" y="97" type="curve" smooth="yes"/>
      <point x="198" y="97"/>
      <point x="178" y="132"/>
      <point x="178" y="170" type="curve" smooth="yes"/>
      <point x="178" y="202"/>
      <point x="192" y="235"/>
      <point x="219" y="251" type="curve"/>
    </contour>
  </outline>
</glyph>
<glyph name="nine" format="1">
  <advance width="576"/>
  <unicode hex="0039"/>
  <outline>
    <contour>
      <point x="185" y="680"/>
      <point x="35" y="576"/>
      <point x="35" y="398" type="curve" smooth="yes"/>
      <point x="35" y="292"/>
      <point x="91" y="212"/>
      <point x="208" y="212" type="curve" smooth="yes"/>
      <point x="281" y="212"/>
      <point x="314" y="242"/>
      <point x="353" y="304" type="curve"/>
      <point x="330" y="192"/>
      <point x="273" y="127"/>
      <point x="163" y="127" type="curve" smooth="yes"/>
      <point x="120" y="127"/>
      <point x="84" y="137"/>
      <point x="58" y="164" type="curve"/>
      <point x="32" y="143"/>
      <point x="18" y="109"/>
      <point x="18" y="77" type="curve" smooth="yes"/>
      <point x="18" y="3"/>
      <point x="97" y="-20"/>
      <point x="172" y="-20" type="curve" smooth="yes"/>
      <point x="403" y="-20"/>
      <point x="581" y="197"/>
      <point x="581" y="427" type="curve" smooth="yes"/>
      <point x="581" y="577"/>
      <point x="503" y="680"/>
      <point x="345" y="680" type="curve" smooth="yes"/>
    </contour>
    <contour>
      <point x="356" y="551"/>
      <point x="376" y="538"/>
      <point x="376" y="488" type="curve" smooth="yes"/>
      <point x="376" y="442"/>
      <point x="357" y="332"/>
      <point x="289" y="332" type="curve" smooth="yes"/>
      <point x="265" y="332"/>
      <point x="245" y="345"/>
      <point x="245" y="397" type="curve" smooth="yes"/>
      <point x="245" y="445"/>
      <point x="264" y="551"/>
      <point x="331" y="551" type="curve" smooth="yes"/>
    </contour>
  </outline>
</glyph>
<glyph name="less" format="1">
  <advance width="576"/>
  <unicode hex="003C"/>
  <outline>
    <contour>
      <point x="234" y="222" type="line"/>
      <point x="452" y="415" type="line"/>
      <point x="444" y="456"/>
      <point x="418" y="483"/>
      <point x="385" y="483" type="curve" smooth="yes"/>
      <point x="359" y="483"/>
      <point x="335" y="473"/>
      <point x="311" y="453" type="curve" smooth="yes"/>
      <point x="53" y="239" type="line"/>
    </contour>
    <contour>
      <point x="53" y="239" type="line"/>
      <point x="271" y="5" type="line"/>
      <point x="349" y="7"/>
      <point x="381" y="61"/>
      <point x="381" y="98" type="curve" smooth="yes"/>
      <point x="381" y="113"/>
      <point x="377" y="127"/>
      <point x="368" y="136" type="curve" smooth="yes"/>
      <point x="263" y="252" type="line"/>
    </contour>
  </outline>
</glyph>
<glyph name="equal" format="1">
  <advance width="576"/>
  <unicode hex="003D"/>
  <outline>
    <contour>
      <point x="149" y="371" type="line" smooth="yes"/>
      <point x="104" y="371"/>
      <point x="71" y="340"/>
      <point x="71" y="292" type="curve" smooth="yes"/>
      <point x="71" y="284"/>
      <point x="72" y="274"/>
      <point x="75" y="264" type="curve"/>
      <point x="417" y="264" type="line" smooth="yes"/>
      <point x="476" y="264"/>
      <point x="505" y="296"/>
      <point x="505" y="340" type="curve" smooth="yes"/>
      <point x="505" y="350"/>
      <point x="503" y="360"/>
      <point x="500" y="371" type="curve"/>
    </contour>
    <contour>
      <point x="149" y="189" type="line" smooth="yes"/>
      <point x="104" y="189"/>
      <point x="71" y="157"/>
      <point x="71" y="110" type="curve" smooth="yes"/>
      <point x="71" y="101"/>
      <point x="72" y="92"/>
      <point x="75" y="81" type="curve"/>
      <point x="417" y="81" type="line" smooth="yes"/>
      <point x="476" y="81"/>
      <point x="505" y="114"/>
      <point x="505" y="157" type="curve" smooth="yes"/>
      <point x="505" y="168"/>
      <point x="503" y="179"/>
      <point x="500" y="189" type="curve"/>
    </contour>
  </outline>
</glyph>
<glyph name="greater" format="1">
  <advance width="576"/>
  <unicode hex="003E"/>
  <outline>
    <contour>
      <point x="342" y="277" type="line"/>
      <point x="114" y="94" type="line"/>
      <point x="123" y="41"/>
      <point x="148" y="6"/>
      <point x="181" y="6" type="curve" smooth="yes"/>
      <point x="207" y="6"/>
      <point x="231" y="16"/>
      <point x="255" y="36" type="curve" smooth="yes"/>
      <point x="513" y="250" type="line"/>
    </contour>
    <contour>
      <point x="512" y="250" type="line"/>
      <point x="294" y="484" type="line"/>
      <point x="223" y="482"/>
      <point x="194" y="422"/>
      <point x="194" y="381" type="curve" smooth="yes"/>
      <point x="194" y="366"/>
      <point x="199" y="352"/>
      <point x="207" y="343" type="curve" smooth="yes"/>
      <point x="322" y="217" type="line"/>
    </contour>
  </outline>
</glyph>
<glyph name="question" format="1">
  <advance width="542"/>
  <unicode hex="003F"/>
  <outline>
    <contour>
      <point x="566" y="653"/>
      <point x="459" y="680"/>
      <point x="327" y="680" type="curve" smooth="yes"/>
      <point x="210" y="680"/>
      <point x="56" y="648"/>
      <point x="56" y="549" type="curve" smooth="yes"/>
      <point x="56" y="482"/>
      <point x="121" y="468"/>
      <point x="181" y="468" type="curve" smooth="yes"/>
      <point x="203" y="468"/>
      <point x="234" y="470"/>
      <point x="249" y="474" type="curve"/>
      <point x="242" y="489"/>
      <point x="240" y="506"/>
      <point x="240" y="520" type="curve" smooth="yes"/>
      <point x="240" y="574"/>
      <point x="269" y="620"/>
      <point x="320" y="620" type="curve" smooth="yes"/>
      <point x="351" y="620"/>
      <point x="355" y="602"/>
      <point x="355" y="580" type="curve" smooth="yes"/>
      <point x="355" y="437"/>
      <point x="113" y="445"/>
      <point x="113" y="275" type="curve" smooth="yes"/>
      <point x="113" y="219"/>
      <point x="147" y="179"/>
      <point x="185" y="179" type="curve"/>
      <point x="185" y="278"/>
      <point x="566" y="357"/>
      <point x="566" y="554" type="curve" smooth="yes"/>
    </contour>
    <component base="period" xOffset="71"/>
  </outline>
</glyph>
<glyph name="at" format="1">
  <advance width="766"/>
  <unicode hex="0040"/>
  <outline>
    <contour>
      <point x="585" y="451" type="line"/>
      <point x="462" y="436" type="line"/>
      <point x="442" y="444"/>
      <point x="421" y="448"/>
      <point x="400" y="448" type="curve" smooth="yes"/>
      <point x="291" y="448"/>
      <point x="199" y="352"/>
      <point x="199" y="218" type="curve" smooth="yes"/>
      <point x="199" y="114"/>
      <point x="255" y="66"/>
      <point x="333" y="66" type="curve" smooth="yes"/>
      <point x="401" y="66"/>
      <point x="444" y="101"/>
      <point x="463" y="147" type="curve"/>
      <point x="467" y="87"/>
      <point x="508" y="66"/>
      <point x="557" y="66" type="curve" smooth="yes"/>
      <point x="661" y="66"/>
      <point x="762" y="168"/>
      <point x="762" y="329" type="curve" smooth="yes"/>
      <point x="762" y="510"/>
      <point x="634" y="601"/>
      <point x="479" y="601" type="curve" smooth="yes"/>
      <point x="201" y="601"/>
      <point x="14" y="419"/>
      <point x="14" y="188" type="curve" smooth="yes"/>
      <point x="14" y="20"/>
      <point x="138" y="-98"/>
      <point x="326" y="-98" type="curve" smooth="yes"/>
      <point x="450" y="-98"/>
      <point x="566" y="-60"/>
      <point x="566" y="6" type="curve" smooth="yes"/>
      <point x="566" y="20"/>
      <point x="560" y="31"/>
      <point x="551" y="38" type="curve"/>
      <point x="505" y="5"/>
      <point x="449" y="-14"/>
      <point x="363" y="-14" type="curve" smooth="yes"/>
      <point x="233" y="-14"/>
      <point x="133" y="62"/>
      <point x="133" y="215" type="curve" smooth="yes"/>
      <point x="133" y="409"/>
      <point x="247" y="525"/>
      <point x="449" y="525" type="curve" smooth="yes"/>
      <point x="572" y="525"/>
      <point x="651" y="461"/>
      <point x="651" y="317" type="curve" smooth="yes"/>
      <point x="651" y="206"/>
      <point x="604" y="124"/>
      <point x="570" y="124" type="curve" smooth="yes"/>
      <point x="547" y="124"/>
      <point x="544" y="147"/>
      <point x="544" y="165" type="curve" smooth="yes"/>
      <point x="544" y="179"/>
      <point x="546" y="197"/>
      <point x="547" y="202" type="curve" smooth="yes"/>
    </contour>
    <contour>
      <point x="414" y="247" type="line" smooth="yes"/>
      <point x="399" y="176"/>
      <point x="384" y="111"/>
      <point x="354" y="111" type="curve" smooth="yes"/>
      <point x="335" y="111"/>
      <point x="332" y="135"/>
      <point x="332" y="166" type="curve" smooth="yes"/>
      <point x="332" y="227"/>
      <point x="350" y="423"/>
      <point x="419" y="423" type="curve" smooth="yes"/>
      <point x="426" y="423"/>
      <point x="436" y="420"/>
      <point x="446" y="413" type="curve"/>
    </contour>
  </outline>
</glyph>
<glyph name="A" format="1">
  <advance width="615"/>
  <unicode hex="0041"/>
  <outline>
    <contour>
      <point x="267" y="660" type="line"/>
      <point x="-56" y="0" type="line"/>
      <point x="96" y="0" type="line"/>
      <point x="107" y="41"/>
      <point x="126" y="93"/>
      <point x="152" y="156" type="curve"/>
      <point x="318" y="156" type="line"/>
      <point x="323" y="117"/>
      <point x="324" y="117"/>
      <point x="330" y="93" type="curve" smooth="yes"/>
      <point x="352" y="16"/>
      <point x="397" y="-20"/>
      <point x="481" y="-20" type="curve" smooth="yes"/>
      <point x="545" y="-20"/>
      <point x="593" y="5"/>
      <point x="616" y="45" type="curve"/>
      <point x="578" y="67"/>
      <point x="561" y="131"/>
      <point x="556" y="199" type="curve" smooth="yes"/>
      <point x="531" y="660" type="line"/>
    </contour>
    <contour>
      <point x="315" y="239" type="line"/>
      <point x="184" y="239" type="line"/>
      <point x="215" y="307"/>
      <point x="251" y="390"/>
      <point x="302" y="490" type="curve"/>
    </contour>
    <contour>
      <point x="585" y="10" type="move" name="ogonek"/>
    </contour>
    <contour>
      <point x="391" y="660" type="move" name="top"/>
    </contour>
  </outline>
</glyph>
<glyph name="B" format="1">
  <advance width="632"/>
  <unicode hex="0042"/>
  <outline>
    <contour>
      <point x="-10" y="0" type="line"/>
      <point x="97" y="-4"/>
      <point x="176" y="-3"/>
      <point x="201" y="-3" type="curve" smooth="yes"/>
      <point x="458" y="-3"/>
      <point x="616" y="49"/>
      <point x="616" y="220" type="curve" smooth="yes"/>
      <point x="616" y="344"/>
      <point x="535" y="368"/>
      <point x="487" y="375" type="curve"/>
      <point x="564" y="396"/>
      <point x="630" y="452"/>
      <point x="630" y="533" type="curve" smooth="yes"/>
      <point x="630" y="659"/>
      <point x="470" y="663"/>
      <point x="325" y="663" type="curve" smooth="yes"/>
      <point x="260" y="663"/>
      <point x="207" y="663"/>
      <point x="116" y="660" type="curve"/>
    </contour>
    <contour>
      <point x="360" y="600" type="line"/>
      <point x="362" y="600"/>
      <point x="363" y="599"/>
      <point x="361" y="599" type="curve" smooth="yes"/>
      <point x="416" y="599"/>
      <point x="439" y="574"/>
      <point x="439" y="516" type="curve" smooth="yes"/>
      <point x="439" y="455"/>
      <point x="414" y="385"/>
      <point x="310" y="385" type="curve" smooth="yes"/>
      <point x="311" y="385"/>
      <point x="315" y="385"/>
      <point x="318" y="384" type="curve"/>
    </contour>
    <contour>
      <point x="305" y="317" type="line"/>
      <point x="363" y="311"/>
      <point x="386" y="277"/>
      <point x="386" y="214" type="curve" smooth="yes"/>
      <point x="386" y="153"/>
      <point x="364" y="70"/>
      <point x="254" y="70" type="curve" smooth="yes"/>
      <point x="259" y="70"/>
      <point x="262" y="69"/>
      <point x="258" y="68" type="curve"/>
    </contour>
  </outline>
</glyph>
<glyph name="C" format="1">
  <advance width="659"/>
  <unicode hex="0043"/>
  <outline>
    <contour>
      <point x="195" y="680"/>
      <point x="34" y="523"/>
      <point x="34" y="269" type="curve" smooth="yes"/>
      <point x="34" y="70"/>
      <point x="132" y="-20"/>
      <point x="332" y="-20" type="curve" smooth="yes"/>
      <point x="522" y="-20"/>
      <point x="626" y="62"/>
      <point x="626" y="144" type="curve" smooth="yes"/>
      <point x="626" y="156"/>
      <point x="625" y="196"/>
      <point x="603" y="214" type="curve"/>
      <point x="565" y="176"/>
      <point x="500" y="161"/>
      <point x="433" y="161" type="curve" smooth="yes"/>
      <point x="341" y="161"/>
      <point x="295" y="197"/>
      <point x="295" y="292" type="curve" smooth="yes"/>
      <point x="295" y="392"/>
      <point x="352" y="609"/>
      <point x="438" y="609" type="curve" smooth="yes"/>
      <point x="481" y="609"/>
      <point x="492" y="564"/>
      <point x="492" y="516" type="curve" smooth="yes"/>
      <point x="492" y="483"/>
      <point x="487" y="450"/>
      <point x="483" y="429" type="curve"/>
      <point x="499" y="427"/>
      <point x="516" y="427"/>
      <point x="528" y="427" type="curve" smooth="yes"/>
      <point x="612" y="427"/>
      <point x="687" y="485"/>
      <point x="687" y="564" type="curve" smooth="yes"/>
      <point x="687" y="664"/>
      <point x="564" y="680"/>
      <point x="469" y="680" type="curve" smooth="yes"/>
    </contour>
    <contour>
      <point x="450" y="660" type="move" name="top"/>
    </contour>
    <contour>
      <point x="330" y="0" type="move" name="bottom"/>
    </contour>
  </outline>
</glyph>
<glyph name="D" format="1">
  <advance width="709"/>
  <unicode hex="0044"/>
  <outline>
    <contour>
      <point x="-11" y="0" type="line"/>
      <point x="36" y="-2"/>
      <point x="145" y="-3"/>
      <point x="183" y="-3" type="curve" smooth="yes"/>
      <point x="508" y="-3"/>
      <point x="704" y="85"/>
      <point x="704" y="382" type="curve" smooth="yes"/>
      <point x="704" y="629"/>
      <point x="572" y="663"/>
      <point x="293" y="663" type="curve" smooth="yes"/>
      <point x="263" y="663"/>
      <point x="190" y="664"/>
      <point x="116" y="660" type="curve"/>
    </contour>
    <contour>
      <point x="361" y="591" type="line"/>
      <point x="369" y="592"/>
      <point x="379" y="592"/>
      <point x="387" y="592" type="curve" smooth="yes"/>
      <point x="447" y="592"/>
      <point x="473" y="573"/>
      <point x="473" y="511" type="curve" smooth="yes"/>
      <point x="473" y="488"/>
      <point x="471" y="436"/>
      <point x="461" y="369" type="curve" smooth="yes"/>
      <point x="431" y="180"/>
      <point x="382" y="70"/>
      <point x="272" y="70" type="curve" smooth="yes"/>
      <point x="265" y="70"/>
      <point x="269" y="70"/>
      <point x="261" y="71" type="curve"/>
    </contour>
    <contour>
      <point x="355" y="330" type="move" name="center"/>
    </contour>
    <contour>
      <point x="295" y="0" type="move" name="bottom"/>
    </contour>
    <contour>
      <point x="355" y="660" type="move" name="top"/>
    </contour>
  </outline>
</glyph>
<glyph name="E" format="1">
  <advance width="535"/>
  <unicode hex="0045"/>
  <outline>
    <contour>
      <point x="116" y="660" type="line"/>
      <point x="-5" y="0" type="line"/>
      <point x="343" y="0" type="line" smooth="yes"/>
      <point x="410" y="0"/>
      <point x="479" y="16"/>
      <point x="479" y="84" type="curve" smooth="yes"/>
      <point x="479" y="100"/>
      <point x="476" y="130"/>
      <point x="465" y="144" type="curve"/>
      <point x="446" y="140"/>
      <point x="413" y="135"/>
      <point x="356" y="135" type="curve" smooth="yes"/>
      <point x="283" y="135" type="line"/>
      <point x="312" y="288" type="line"/>
      <point x="305" y="289"/>
      <point x="350" y="265"/>
      <point x="403" y="265" type="curve" smooth="yes"/>
      <point x="479" y="265"/>
      <point x="509" y="317"/>
      <point x="509" y="392" type="curve"/>
      <point x="332" y="392" type="line"/>
      <point x="360" y="547" type="line"/>
      <point x="367" y="543"/>
      <point x="414" y="520"/>
      <point x="473" y="520" type="curve" smooth="yes"/>
      <point x="562" y="520"/>
      <point x="596" y="571"/>
      <point x="596" y="660" type="curve"/>
    </contour>
    <contour>
      <point x="423" y="10" type="move" name="ogonek"/>
    </contour>
    <contour>
      <point x="226" y="0" type="move" name="bottom"/>
    </contour>
    <contour>
      <point x="334" y="660" type="move" name="top"/>
    </contour>
  </outline>
</glyph>
<glyph name="F" format="1">
  <advance width="557"/>
  <unicode hex="0046"/>
  <outline>
    <contour>
      <point x="116" y="660" type="line"/>
      <point x="-5" y="0" type="line"/>
      <point x="261" y="0" type="line"/>
      <point x="312" y="290" type="line"/>
      <point x="321" y="286"/>
      <point x="368" y="265"/>
      <point x="418" y="265" type="curve" smooth="yes"/>
      <point x="510" y="265"/>
      <point x="533" y="332"/>
      <point x="533" y="404" type="curve"/>
      <point x="334" y="404" type="line"/>
      <point x="360" y="540" type="line"/>
      <point x="387" y="526"/>
      <point x="450" y="513"/>
      <point x="497" y="513" type="curve" smooth="yes"/>
      <point x="594" y="513"/>
      <point x="616" y="568"/>
      <point x="616" y="660" type="curve"/>
    </contour>
  </outline>
</glyph>
<glyph name="G" format="1">
  <advance width="704"/>
  <unicode hex="0047"/>
  <outline>
    <contour>
      <point x="473" y="329" type="line"/>
      <point x="441" y="133" type="line"/>
      <point x="433" y="117"/>
      <point x="405" y="110"/>
      <point x="386" y="110" type="curve" smooth="yes"/>
      <point x="306" y="110"/>
      <point x="293" y="219"/>
      <point x="293" y="281" type="curve" smooth="yes"/>
      <point x="293" y="425"/>
      <point x="364" y="609"/>
      <point x="445" y="609" type="curve" smooth="yes"/>
      <point x="484" y="609"/>
      <point x="500" y="574"/>
      <point x="500" y="518" type="curve" smooth="yes"/>
      <point x="500" y="492"/>
      <point x="497" y="462"/>
      <point x="491" y="429" type="curve"/>
      <point x="507" y="427"/>
      <point x="523" y="427"/>
      <point x="535" y="427" type="curve" smooth="yes"/>
      <point x="619" y="427"/>
      <point x="695" y="485"/>
      <point x="695" y="564" type="curve" smooth="yes"/>
      <point x="695" y="666"/>
      <point x="568" y="680"/>
      <point x="473" y="680" type="curve" smooth="yes"/>
      <point x="198" y="680"/>
      <point x="34" y="528"/>
      <point x="34" y="266" type="curve" smooth="yes"/>
      <point x="34" y="94"/>
      <point x="105" y="-20"/>
      <point x="265" y="-20" type="curve" smooth="yes"/>
      <point x="321" y="-20"/>
      <point x="393" y="-7"/>
      <point x="443" y="42" type="curve"/>
      <point x="445" y="19"/>
      <point x="489" y="-20"/>
      <point x="560" y="-20" type="curve" smooth="yes"/>
      <point x="590" y="-20"/>
      <point x="610" y="-14"/>
      <point x="635" y="0" type="curve"/>
      <point x="634" y="131"/>
      <point x="662" y="237"/>
      <point x="712" y="347" type="curve"/>
    </contour>
    <contour>
      <point x="464" y="660" type="move" name="top"/>
    </contour>
    <contour>
      <point x="327" y="0" type="move" name="bottom"/>
    </contour>
  </outline>
</glyph>
<glyph name="H" format="1">
  <advance width="697"/>
  <unicode hex="0048"/>
  <outline>
    <contour>
      <point x="483" y="660" type="line"/>
      <point x="429" y="367" type="line"/>
      <point x="315" y="367" type="line"/>
      <point x="372" y="660" type="line"/>
      <point x="116" y="660" type="line"/>
      <point x="-11" y="0" type="line"/>
      <point x="243" y="0" type="line"/>
      <point x="298" y="283" type="line"/>
      <point x="413" y="283" type="line"/>
      <point x="397" y="187" type="line" smooth="yes"/>
      <point x="393" y="155"/>
      <point x="388" y="117"/>
      <point x="388" y="95" type="curve" smooth="yes"/>
      <point x="388" y="28"/>
      <point x="429" y="-20"/>
      <point x="515" y="-20" type="curve" smooth="yes"/>
      <point x="560" y="-20"/>
      <point x="613" y="-7"/>
      <point x="652" y="19" type="curve"/>
      <point x="646" y="29"/>
      <point x="638" y="59"/>
      <point x="638" y="91" type="curve" smooth="yes"/>
      <point x="638" y="117"/>
      <point x="643" y="156"/>
      <point x="649" y="192" type="curve" smooth="yes"/>
      <point x="740" y="660" type="line"/>
    </contour>
    <contour>
      <point x="349" y="330" type="move" name="center"/>
    </contour>
    <contour>
      <point x="321" y="0" type="move" name="bottom"/>
    </contour>
    <contour>
      <point x="429" y="660" type="move" name="top"/>
    </contour>
  </outline>
</glyph>
<glyph name="I" format="1">
  <advance width="339"/>
  <unicode hex="0049"/>
  <outline>
    <contour>
      <point x="116" y="660" type="line"/>
      <point x="-11" y="0" type="line"/>
      <point x="257" y="0" type="line"/>
      <point x="386" y="660" type="line"/>
    </contour>
    <contour>
      <point x="259" y="10" type="move" name="ogonek"/>
    </contour>
    <contour>
      <point x="131" y="0" type="move" name="bottom"/>
    </contour>
    <contour>
      <point x="256" y="660" type="move" name="top"/>
    </contour>
  </outline>
</glyph>
<glyph name="J" format="1">
  <advance width="339"/>
  <unicode hex="004A"/>
  <outline>
    <contour>
      <point x="119" y="660" type="line"/>
      <point x="32" y="206" type="line" smooth="yes"/>
      <point x="-28" y="-102"/>
      <point x="-58" y="-111"/>
      <point x="-142" y="-146" type="curve"/>
      <point x="-125" y="-186"/>
      <point x="-74" y="-205"/>
      <point x="-4" y="-205" type="curve" smooth="yes"/>
      <point x="149" y="-205"/>
      <point x="236" y="-120"/>
      <point x="296" y="197" type="curve" smooth="yes"/>
      <point x="384" y="660" type="line"/>
    </contour>
    <contour>
      <point x="250" y="660" type="move" name="top"/>
    </contour>
  </outline>
</glyph>
<glyph name="K" format="1">
  <advance width="748"/>
  <unicode hex="004B"/>
  <outline>
    <contour>
      <point x="117" y="660" type="line"/>
      <point x="104" y="604"/>
      <point x="36" y="244"/>
      <point x="-8" y="0" type="curve"/>
      <point x="252" y="0" type="line"/>
      <point x="378" y="660" type="line"/>
    </contour>
    <contour>
      <point x="579" y="660" type="line"/>
      <point x="336" y="328" type="line"/>
      <point x="352" y="149"/>
      <point x="390" y="-20"/>
      <point x="555" y="-20" type="curve" smooth="yes"/>
      <point x="624" y="-20"/>
      <point x="673" y="9"/>
      <point x="694" y="71" type="curve"/>
      <point x="625" y="108"/>
      <point x="581" y="209"/>
      <point x="553" y="336" type="curve"/>
      <point x="578" y="367"/>
      <point x="668" y="486"/>
      <point x="842" y="660" type="curve"/>
    </contour>
    <contour>
      <point x="438" y="660" type="move" name="top"/>
    </contour>
    <contour>
      <point x="348" y="0" type="move" name="bottom"/>
    </contour>
  </outline>
</glyph>
<glyph name="L" format="1">
  <advance width="508"/>
  <unicode hex="004C"/>
  <outline>
    <contour>
      <point x="353" y="0" type="line" smooth="yes"/>
      <point x="423" y="0"/>
      <point x="488" y="14"/>
      <point x="488" y="84" type="curve" smooth="yes"/>
      <point x="488" y="100"/>
      <point x="485" y="130"/>
      <point x="474" y="144" type="curve"/>
      <point x="455" y="140"/>
      <point x="422" y="135"/>
      <point x="365" y="135" type="curve" smooth="yes"/>
      <point x="293" y="135" type="line"/>
      <point x="384" y="660" type="line"/>
      <point x="116" y="660" type="line"/>
      <point x="-2" y="0" type="line"/>
    </contour>
    <contour>
      <point x="456" y="329" type="move" name="center"/>
    </contour>
    <contour>
      <point x="430" y="508" type="move" name="caron"/>
    </contour>
    <contour>
      <point x="254" y="660" type="move" name="top"/>
    </contour>
    <contour>
      <point x="223" y="0" type="move" name="bottom"/>
    </contour>
  </outline>
</glyph>
<glyph name="M" format="1">
  <advance width="824"/>
  <unicode hex="004D"/>
  <outline>
    <contour>
      <point x="436" y="335" type="line"/>
      <point x="371" y="660" type="line"/>
      <point x="133" y="660" type="line"/>
      <point x="-36" y="0" type="line"/>
      <point x="87" y="0" type="line"/>
      <point x="180" y="415" type="line"/>
      <point x="260" y="0" type="line"/>
      <point x="394" y="0" type="line"/>
      <point x="575" y="415" type="line"/>
      <point x="555" y="137" type="line" smooth="yes"/>
      <point x="554" y="126"/>
      <point x="555" y="114"/>
      <point x="555" y="105" type="curve" smooth="yes"/>
      <point x="555" y="25"/>
      <point x="601" y="-19"/>
      <point x="681" y="-19" type="curve" smooth="yes"/>
      <point x="751" y="-19"/>
      <point x="807" y="7"/>
      <point x="824" y="41" type="curve"/>
      <point x="794" y="59"/>
      <point x="787" y="98"/>
      <point x="787" y="146" type="curve" smooth="yes"/>
      <point x="787" y="158"/>
      <point x="788" y="188"/>
      <point x="789" y="203" type="curve" smooth="yes"/>
      <point x="811" y="660" type="line"/>
      <point x="586" y="660" type="line"/>
    </contour>
  </outline>
</glyph>
<glyph name="N" format="1">
  <advance width="686"/>
  <unicode hex="004E"/>
  <outline>
    <contour>
      <point x="188" y="390" type="line"/>
      <point x="327" y="0" type="line"/>
      <point x="604" y="0" type="line"/>
      <point x="727" y="660" type="line"/>
      <point x="599" y="660" type="line"/>
      <point x="528" y="237" type="line"/>
      <point x="366" y="660" type="line"/>
      <point x="116" y="660" type="line"/>
      <point x="-3" y="0" type="line"/>
      <point x="123" y="0" type="line"/>
    </contour>
    <contour>
      <point x="421" y="660" type="move" name="top"/>
    </contour>
    <contour>
      <point x="314" y="0" type="move" name="bottom"/>
    </contour>
  </outline>
</glyph>
<glyph name="O" format="1">
  <advance width="739"/>
  <unicode hex="004F"/>
  <outline>
    <contour>
      <point x="188" y="680"/>
      <point x="36" y="522"/>
      <point x="36" y="278" type="curve" smooth="yes"/>
      <point x="36" y="69"/>
      <point x="146" y="-20"/>
      <point x="329" y="-20" type="curve" smooth="yes"/>
      <point x="581" y="-20"/>
      <point x="735" y="136"/>
      <point x="735" y="382" type="curve" smooth="yes"/>
      <point x="735" y="591"/>
      <point x="625" y="680"/>
      <point x="442" y="680" type="curve" smooth="yes"/>
    </contour>
    <contour>
      <point x="465" y="610"/>
      <point x="472" y="572"/>
      <point x="472" y="525" type="curve" smooth="yes"/>
      <point x="472" y="480"/>
      <point x="467" y="428"/>
      <point x="463" y="393" type="curve" smooth="yes"/>
      <point x="432" y="125"/>
      <point x="388" y="51"/>
      <point x="345" y="51" type="curve" smooth="yes"/>
      <point x="306" y="51"/>
      <point x="299" y="89"/>
      <point x="299" y="136" type="curve" smooth="yes"/>
      <point x="299" y="181"/>
      <point x="304" y="233"/>
      <point x="308" y="268" type="curve" smooth="yes"/>
      <point x="338" y="528"/>
      <point x="380" y="610"/>
      <point x="429" y="610" type="curve" smooth="yes"/>
    </contour>
    <contour>
      <point x="505" y="10" type="move" name="ogonek"/>
    </contour>
    <contour>
      <point x="351" y="0" type="move" name="bottom"/>
    </contour>
    <contour>
      <point x="436" y="660" type="move" name="top"/>
    </contour>
  </outline>
</glyph>
<glyph name="P" format="1">
  <advance width="691"/>
  <unicode hex="0050"/>
  <outline>
    <contour>
      <point x="370" y="597" type="line"/>
      <point x="371" y="598"/>
      <point x="386" y="599"/>
      <point x="396" y="599" type="curve" smooth="yes"/>
      <point x="457" y="599"/>
      <point x="494" y="575"/>
      <point x="494" y="502" type="curve" smooth="yes"/>
      <point x="494" y="432"/>
      <point x="455" y="357"/>
      <point x="377" y="337" type="curve"/>
      <point x="366" y="333"/>
      <point x="352" y="331"/>
      <point x="337" y="330" type="curve"/>
      <point x="357" y="284"/>
      <point x="409" y="268"/>
      <point x="472" y="268" type="curve" smooth="yes"/>
      <point x="606" y="268"/>
      <point x="721" y="340"/>
      <point x="721" y="486" type="curve" smooth="yes"/>
      <point x="721" y="660"/>
      <point x="587" y="665"/>
      <point x="308" y="665" type="curve" smooth="yes"/>
      <point x="202" y="665"/>
      <point x="222" y="663"/>
      <point x="116" y="660" type="curve"/>
      <point x="-9" y="0" type="line"/>
      <point x="257" y="0" type="line"/>
    </contour>
  </outline>
</glyph>
<glyph name="Q" format="1">
  <advance width="735"/>
  <unicode hex="0051"/>
  <outline>
    <contour>
      <point x="220" y="680"/>
      <point x="39" y="552"/>
      <point x="39" y="299" type="curve" smooth="yes"/>
      <point x="39" y="160"/>
      <point x="93" y="78"/>
      <point x="219" y="78" type="curve" smooth="yes"/>
      <point x="298" y="78"/>
      <point x="348" y="110"/>
      <point x="348" y="159" type="curve"/>
      <point x="303" y="160"/>
      <point x="300" y="212"/>
      <point x="300" y="241" type="curve" smooth="yes"/>
      <point x="300" y="270"/>
      <point x="307" y="332"/>
      <point x="320" y="396" type="curve" smooth="yes"/>
      <point x="341" y="499"/>
      <point x="379" y="610"/>
      <point x="429" y="610" type="curve" smooth="yes"/>
      <point x="455" y="610"/>
      <point x="474" y="592"/>
      <point x="474" y="512" type="curve" smooth="yes"/>
      <point x="474" y="491"/>
      <point x="473" y="457"/>
      <point x="466" y="392" type="curve" smooth="yes"/>
      <point x="432" y="119"/>
      <point x="353" y="55"/>
      <point x="279" y="46" type="curve" smooth="yes"/>
      <point x="150" y="31"/>
      <point x="89" y="22"/>
      <point x="89" y="-65" type="curve" smooth="yes"/>
      <point x="89" y="-98"/>
      <point x="97" y="-123"/>
      <point x="121" y="-154" type="curve"/>
      <point x="153" y="-131"/>
      <point x="189" y="-123"/>
      <point x="223" y="-123" type="curve" smooth="yes"/>
      <point x="328" y="-123"/>
      <point x="399" y="-202"/>
      <point x="497" y="-202" type="curve" smooth="yes"/>
      <point x="559" y="-202"/>
      <point x="639" y="-169"/>
      <point x="639" y="-63" type="curve" smooth="yes"/>
      <point x="639" y="-40"/>
      <point x="635" y="-13"/>
      <point x="628" y="2" type="curve"/>
      <point x="593" y="-19"/>
      <point x="541" y="-33"/>
      <point x="487" y="-33" type="curve" smooth="yes"/>
      <point x="442" y="-33"/>
      <point x="401" y="-25"/>
      <point x="367" y="-10" type="curve"/>
      <point x="577" y="0"/>
      <point x="737" y="173"/>
      <point x="737" y="385" type="curve" smooth="yes"/>
      <point x="737" y="588"/>
      <point x="628" y="680"/>
      <point x="448" y="680" type="curve" smooth="yes"/>
    </contour>
  </outline>
</glyph>
<glyph name="R" format="1">
  <advance width="688"/>
  <unicode hex="0052"/>
  <outline>
    <contour>
      <point x="-5" y="0" type="line"/>
      <point x="257" y="0" type="line"/>
      <point x="371" y="600" type="line"/>
      <point x="373" y="600"/>
      <point x="382" y="600"/>
      <point x="397" y="600" type="curve" smooth="yes"/>
      <point x="455" y="600"/>
      <point x="473" y="563"/>
      <point x="473" y="502" type="curve" smooth="yes"/>
      <point x="473" y="397"/>
      <point x="417" y="349"/>
      <point x="327" y="349" type="curve" smooth="yes"/>
      <point x="330" y="349"/>
      <point x="327" y="349"/>
      <point x="329" y="348" type="curve"/>
      <point x="348" y="157"/>
      <point x="374" y="-20"/>
      <point x="541" y="-20" type="curve" smooth="yes"/>
      <point x="612" y="-20"/>
      <point x="657" y="11"/>
      <point x="679" y="71" type="curve"/>
      <point x="614" y="99"/>
      <point x="569" y="187"/>
      <point x="542" y="298" type="curve"/>
      <point x="636" y="321"/>
      <point x="701" y="386"/>
      <point x="701" y="492" type="curve" smooth="yes"/>
      <point x="701" y="651"/>
      <point x="557" y="663"/>
      <point x="376" y="663" type="curve" smooth="yes"/>
      <point x="301" y="663"/>
      <point x="232" y="661"/>
      <point x="116" y="660" type="curve"/>
    </contour>
    <contour>
      <point x="394" y="660" type="move" name="top"/>
    </contour>
    <contour>
      <point x="344" y="0" type="move" name="bottom"/>
    </contour>
  </outline>
</glyph>
<glyph name="S" format="1">
  <advance width="593"/>
  <unicode hex="0053"/>
  <outline>
    <contour>
      <point x="207" y="680"/>
      <point x="52" y="576"/>
      <point x="52" y="425" type="curve" smooth="yes"/>
      <point x="52" y="338"/>
      <point x="101" y="293"/>
      <point x="161" y="261" type="curve" smooth="yes"/>
      <point x="232" y="220"/>
      <point x="322" y="189"/>
      <point x="322" y="123" type="curve" smooth="yes"/>
      <point x="322" y="73"/>
      <point x="287" y="46"/>
      <point x="242" y="46" type="curve" smooth="yes"/>
      <point x="200" y="46"/>
      <point x="186" y="83"/>
      <point x="186" y="126" type="curve" smooth="yes"/>
      <point x="186" y="157"/>
      <point x="193" y="190"/>
      <point x="203" y="216" type="curve"/>
      <point x="173" y="226"/>
      <point x="143" y="229"/>
      <point x="121" y="229" type="curve" smooth="yes"/>
      <point x="33" y="229"/>
      <point x="-8" y="170"/>
      <point x="-8" y="104" type="curve" smooth="yes"/>
      <point x="-8" y="-12"/>
      <point x="114" y="-19"/>
      <point x="189" y="-19" type="curve" smooth="yes"/>
      <point x="390" y="-19"/>
      <point x="569" y="54"/>
      <point x="569" y="232" type="curve" smooth="yes"/>
      <point x="569" y="315"/>
      <point x="516" y="357"/>
      <point x="456" y="387" type="curve" smooth="yes"/>
      <point x="378" y="429"/>
      <point x="292" y="452"/>
      <point x="292" y="516" type="curve" smooth="yes"/>
      <point x="292" y="581"/>
      <point x="339" y="618"/>
      <point x="381" y="618" type="curve" smooth="yes"/>
      <point x="429" y="618"/>
      <point x="447" y="574"/>
      <point x="447" y="529" type="curve" smooth="yes"/>
      <point x="447" y="503"/>
      <point x="441" y="476"/>
      <point x="432" y="457" type="curve"/>
      <point x="452" y="452"/>
      <point x="474" y="448"/>
      <point x="495" y="448" type="curve" smooth="yes"/>
      <point x="563" y="448"/>
      <point x="631" y="483"/>
      <point x="631" y="559" type="curve" smooth="yes"/>
      <point x="631" y="664"/>
      <point x="504" y="680"/>
      <point x="417" y="680" type="curve" smooth="yes"/>
    </contour>
    <contour>
      <point x="398" y="660" type="move" name="top"/>
    </contour>
    <contour>
      <point x="259" y="0" type="move" name="bottom"/>
    </contour>
  </outline>
</glyph>
<glyph name="T" format="1">
  <advance width="520"/>
  <unicode hex="0054"/>
  <outline>
    <contour>
      <point x="148" y="660" type="line" smooth="yes"/>
      <point x="81" y="660"/>
      <point x="49" y="634"/>
      <point x="49" y="565" type="curve" smooth="yes"/>
      <point x="49" y="558"/>
      <point x="48" y="537"/>
      <point x="48" y="525" type="curve"/>
      <point x="70" y="525"/>
      <point x="83" y="525"/>
      <point x="112" y="525" type="curve" smooth="yes"/>
      <point x="178" y="525" type="line"/>
      <point x="144" y="373" type="line" smooth="yes"/>
      <point x="113" y="222"/>
      <point x="104" y="140"/>
      <point x="104" y="100" type="curve" smooth="yes"/>
      <point x="104" y="25"/>
      <point x="145" y="-20"/>
      <point x="231" y="-20" type="curve" smooth="yes"/>
      <point x="277" y="-20"/>
      <point x="329" y="-7"/>
      <point x="368" y="19" type="curve"/>
      <point x="362" y="29"/>
      <point x="354" y="59"/>
      <point x="354" y="91" type="curve" smooth="yes"/>
      <point x="354" y="117"/>
      <point x="359" y="156"/>
      <point x="365" y="192" type="curve" smooth="yes"/>
      <point x="430" y="525" type="line"/>
      <point x="471" y="525" type="line" smooth="yes"/>
      <point x="539" y="525"/>
      <point x="587" y="539"/>
      <point x="587" y="606" type="curve" smooth="yes"/>
      <point x="587" y="627"/>
      <point x="582" y="655"/>
      <point x="571" y="669" type="curve"/>
      <point x="552" y="664"/>
      <point x="521" y="660"/>
      <point x="464" y="660" type="curve" smooth="yes"/>
    </contour>
    <contour>
      <point x="260" y="330" type="move" name="center"/>
    </contour>
    <contour>
      <point x="229" y="0" type="move" name="bottom"/>
    </contour>
    <contour>
      <point x="319" y="660" type="move" name="top"/>
    </contour>
  </outline>
</glyph>
<glyph name="U" format="1">
  <advance width="647"/>
  <unicode hex="0055"/>
  <outline>
    <contour>
      <point x="525" y="660" type="line"/>
      <point x="441" y="236" type="line" smooth="yes"/>
      <point x="422" y="139"/>
      <point x="405" y="80"/>
      <point x="340" y="80" type="curve" smooth="yes"/>
      <point x="301" y="80"/>
      <point x="288" y="99"/>
      <point x="288" y="137" type="curve" smooth="yes"/>
      <point x="288" y="164"/>
      <point x="295" y="200"/>
      <point x="303" y="245" type="curve" smooth="yes"/>
      <point x="380" y="660" type="line"/>
      <point x="108" y="660" type="line"/>
      <point x="31" y="259" type="line" smooth="yes"/>
      <point x="24" y="224"/>
      <point x="18" y="171"/>
      <point x="18" y="144" type="curve" smooth="yes"/>
      <point x="18" y="16"/>
      <point x="144" y="-20"/>
      <point x="280" y="-20" type="curve" smooth="yes"/>
      <point x="484" y="-20"/>
      <point x="586" y="64"/>
      <point x="621" y="248" type="curve" smooth="yes"/>
      <point x="699" y="660" type="line"/>
    </contour>
    <contour>
      <point x="459" y="10" type="move" name="ogonek"/>
    </contour>
    <contour>
      <point x="301" y="0" type="move" name="bottom"/>
    </contour>
    <contour>
      <point x="420" y="660" type="move" name="top"/>
    </contour>
  </outline>
</glyph>
<glyph name="V" format="1">
  <advance width="611"/>
  <unicode hex="0056"/>
  <outline>
    <contour>
      <point x="127" y="0" type="line"/>
      <point x="399" y="0" type="line"/>
      <point x="714" y="660" type="line"/>
      <point x="587" y="660" type="line"/>
      <point x="348" y="144" type="line"/>
      <point x="362" y="423" type="line" smooth="yes"/>
      <point x="364" y="578"/>
      <point x="340" y="680"/>
      <point x="185" y="680" type="curve" smooth="yes"/>
      <point x="112" y="680"/>
      <point x="68" y="660"/>
      <point x="40" y="616" type="curve"/>
      <point x="71" y="589"/>
      <point x="92" y="542"/>
      <point x="99" y="452" type="curve" smooth="yes"/>
    </contour>
  </outline>
</glyph>
<glyph name="W" format="1">
  <advance width="1002"/>
  <unicode hex="0057"/>
  <outline>
    <contour>
      <point x="127" y="0" type="line"/>
      <point x="399" y="0" type="line"/>
      <point x="528" y="267" type="line"/>
      <point x="549" y="0" type="line"/>
      <point x="792" y="0" type="line"/>
      <point x="1105" y="660" type="line"/>
      <point x="978" y="660" type="line"/>
      <point x="740" y="144" type="line"/>
      <point x="711" y="660" type="line"/>
      <point x="572" y="660" type="line"/>
      <point x="348" y="144" type="line"/>
      <point x="362" y="423" type="line" smooth="yes"/>
      <point x="364" y="578"/>
      <point x="340" y="680"/>
      <point x="185" y="680" type="curve" smooth="yes"/>
      <point x="112" y="680"/>
      <point x="68" y="660"/>
      <point x="40" y="616" type="curve"/>
      <point x="71" y="589"/>
      <point x="92" y="542"/>
      <point x="99" y="452" type="curve" smooth="yes"/>
    </contour>
    <contour>
      <point x="631" y="660" type="move" name="top"/>
    </contour>
  </outline>
</glyph>
<glyph name="X" format="1">
  <advance width="599"/>
  <unicode hex="0058"/>
  <outline>
    <contour>
      <point x="188" y="311" type="line"/>
      <point x="-49" y="0" type="line"/>
      <point x="91" y="0" type="line"/>
      <point x="233" y="185" type="line"/>
      <point x="249" y="139" type="line" smooth="yes"/>
      <point x="283" y="41"/>
      <point x="328" y="-20"/>
      <point x="430" y="-20" type="curve" smooth="yes"/>
      <point x="492" y="-20"/>
      <point x="563" y="3"/>
      <point x="589" y="61" type="curve"/>
      <point x="560" y="67"/>
      <point x="518" y="111"/>
      <point x="496" y="173" type="curve" smooth="yes"/>
      <point x="441" y="336" type="line"/>
      <point x="679" y="660" type="line"/>
      <point x="539" y="660" type="line"/>
      <point x="397" y="462" type="line"/>
      <point x="362" y="564" type="line" smooth="yes"/>
      <point x="330" y="658"/>
      <point x="292" y="679"/>
      <point x="209" y="679" type="curve" smooth="yes"/>
      <point x="132" y="679"/>
      <point x="82" y="656"/>
      <point x="41" y="622" type="curve"/>
      <point x="76" y="598"/>
      <point x="91" y="581"/>
      <point x="116" y="511" type="curve" smooth="yes"/>
    </contour>
  </outline>
</glyph>
<glyph name="Y" format="1">
  <advance width="636"/>
  <unicode hex="0059"/>
  <outline>
    <contour>
      <point x="374" y="397" type="line" smooth="yes"/>
      <point x="391" y="592"/>
      <point x="333" y="680"/>
      <point x="197" y="680" type="curve" smooth="yes"/>
      <point x="128" y="680"/>
      <point x="76" y="656"/>
      <point x="39" y="621" type="curve"/>
      <point x="120" y="574"/>
      <point x="145" y="529"/>
      <point x="168" y="281" type="curve"/>
      <point x="113" y="0" type="line"/>
      <point x="380" y="0" type="line"/>
      <point x="425" y="229" type="line"/>
      <point x="488" y="430"/>
      <point x="620" y="579"/>
      <point x="734" y="620" type="curve"/>
      <point x="724" y="660"/>
      <point x="695" y="680"/>
      <point x="644" y="680" type="curve" smooth="yes"/>
      <point x="525" y="680"/>
      <point x="445" y="574"/>
      <point x="368" y="320" type="curve"/>
    </contour>
    <contour>
      <point x="418" y="660" type="move" name="top"/>
    </contour>
  </outline>
</glyph>
<glyph name="Z" format="1">
  <advance width="562"/>
  <unicode hex="005A"/>
  <outline>
    <contour>
      <point x="90" y="276" type="line" smooth="yes"/>
      <point x="28" y="226"/>
      <point x="6" y="179"/>
      <point x="6" y="127" type="curve" smooth="yes"/>
      <point x="6" y="75"/>
      <point x="27" y="21"/>
      <point x="52" y="0" type="curve"/>
      <point x="58" y="10"/>
      <point x="68" y="16"/>
      <point x="95" y="16" type="curve" smooth="yes"/>
      <point x="150" y="16"/>
      <point x="240" y="-11"/>
      <point x="342" y="-11" type="curve" smooth="yes"/>
      <point x="474" y="-11"/>
      <point x="538" y="41"/>
      <point x="538" y="117" type="curve" smooth="yes"/>
      <point x="538" y="152"/>
      <point x="525" y="191"/>
      <point x="499" y="233" type="curve"/>
      <point x="470" y="201"/>
      <point x="426" y="198"/>
      <point x="385" y="198" type="curve" smooth="yes"/>
      <point x="336" y="198"/>
      <point x="264" y="202"/>
      <point x="201" y="220" type="curve"/>
      <point x="503" y="383" type="line" smooth="yes"/>
      <point x="566" y="432"/>
      <point x="598" y="475"/>
      <point x="598" y="547" type="curve" smooth="yes"/>
      <point x="598" y="586"/>
      <point x="590" y="627"/>
      <point x="550" y="660" type="curve"/>
      <point x="517" y="653"/>
      <point x="479" y="651"/>
      <point x="455" y="651" type="curve" smooth="yes"/>
      <point x="376" y="651"/>
      <point x="287" y="675"/>
      <point x="215" y="675" type="curve" smooth="yes"/>
      <point x="118" y="675"/>
      <point x="61" y="635"/>
      <point x="61" y="550" type="curve" smooth="yes"/>
      <point x="61" y="508"/>
      <point x="75" y="471"/>
      <point x="95" y="440" type="curve"/>
      <point x="113" y="447"/>
      <point x="146" y="460"/>
      <point x="213" y="460" type="curve" smooth="yes"/>
      <point x="254" y="460"/>
      <point x="309" y="455"/>
      <point x="381" y="441" type="curve"/>
    </contour>
    <contour>
      <point x="341" y="660" type="move" name="top"/>
    </contour>
    <contour>
      <point x="281" y="0" type="move" name="bottom"/>
    </contour>
  </outline>
</glyph>
<glyph name="bracketleft" format="1">
  <advance width="358"/>
  <unicode hex="005B"/>
  <outline>
    <contour>
      <point x="180" y="800" type="line"/>
      <point x="-8" y="-200" type="line"/>
      <point x="274" y="-200" type="line"/>
      <point x="275" y="-196"/>
      <point x="275" y="-191"/>
      <point x="275" y="-185" type="curve" smooth="yes"/>
      <point x="275" y="-148"/>
      <point x="251" y="-133"/>
      <point x="191" y="-133" type="curve" smooth="yes"/>
      <point x="171" y="-133" type="line"/>
      <point x="333" y="734" type="line"/>
      <point x="373" y="734" type="line" smooth="yes"/>
      <point x="429" y="734"/>
      <point x="461" y="760"/>
      <point x="469" y="800" type="curve"/>
    </contour>
  </outline>
</glyph>
<glyph name="backslash" format="1">
  <advance width="337"/>
  <unicode hex="005C"/>
  <outline>
    <contour>
      <point x="60" y="-196" type="line"/>
      <point x="61" y="-198"/>
      <point x="93" y="-200"/>
      <point x="114" y="-200" type="curve" smooth="yes"/>
      <point x="201" y="-200"/>
      <point x="227" y="-169"/>
      <point x="231" y="-92" type="curve" smooth="yes"/>
      <point x="277" y="800" type="line"/>
      <point x="274" y="801"/>
      <point x="263" y="803"/>
      <point x="235" y="803" type="curve" smooth="yes"/>
      <point x="129" y="803"/>
      <point x="111" y="774"/>
      <point x="105" y="667" type="curve" smooth="yes"/>
    </contour>
  </outline>
</glyph>
<glyph name="bracketright" format="1">
  <advance width="368"/>
  <unicode hex="005D"/>
  <outline>
    <contour>
      <point x="-10" y="-134" type="line" smooth="yes"/>
      <point x="-66" y="-134"/>
      <point x="-92" y="-160"/>
      <point x="-100" y="-200" type="curve"/>
      <point x="183" y="-200" type="line"/>
      <point x="371" y="800" type="line"/>
      <point x="88" y="800" type="line"/>
      <point x="87" y="796"/>
      <point x="87" y="794"/>
      <point x="87" y="788" type="curve" smooth="yes"/>
      <point x="87" y="747"/>
      <point x="104" y="733"/>
      <point x="159" y="733" type="curve" smooth="yes"/>
      <point x="193" y="733" type="line"/>
      <point x="31" y="-134" type="line"/>
    </contour>
  </outline>
</glyph>
<glyph name="asciicircum" format="1">
  <advance width="486"/>
  <unicode hex="005E"/>
  <outline>
    <contour>
      <point x="222" y="660" type="line"/>
      <point x="157" y="465"/>
      <point x="75" y="354"/>
      <point x="-18" y="314" type="curve"/>
      <point x="-11" y="285"/>
      <point x="13" y="268"/>
      <point x="54" y="268" type="curve" smooth="yes"/>
      <point x="144" y="268"/>
      <point x="201" y="341"/>
      <point x="264" y="527" type="curve"/>
      <point x="290" y="306"/>
      <point x="321" y="269"/>
      <point x="402" y="269" type="curve" smooth="yes"/>
      <point x="454" y="269"/>
      <point x="508" y="287"/>
      <point x="525" y="307" type="curve"/>
      <point x="445" y="359"/>
      <point x="401" y="480"/>
      <point x="399" y="660" type="curve"/>
    </contour>
  </outline>
</glyph>
<glyph name="underscore" format="1">
  <advance width="506"/>
  <unicode hex="005F"/>
  <outline>
    <contour>
      <point x="31" y="-36" type="line" smooth="yes"/>
      <point x="-15" y="-36"/>
      <point x="-48" y="-68"/>
      <point x="-48" y="-116" type="curve" smooth="yes"/>
      <point x="-48" y="-124"/>
      <point x="-47" y="-134"/>
      <point x="-44" y="-144" type="curve"/>
      <point x="365" y="-144" type="line" smooth="yes"/>
      <point x="424" y="-144"/>
      <point x="453" y="-110"/>
      <point x="453" y="-68" type="curve" smooth="yes"/>
      <point x="453" y="-57"/>
      <point x="451" y="-46"/>
      <point x="448" y="-36" type="curve"/>
    </contour>
  </outline>
</glyph>
<glyph name="grave" format="1">
  <advance width="309"/>
  <unicode hex="0060"/>
  <outline>
    <contour>
      <point x="380" y="629" type="line"/>
      <point x="132" y="779" type="line"/>
      <point x="105" y="769"/>
      <point x="94" y="741"/>
      <point x="94" y="709" type="curve" smooth="yes"/>
      <point x="94" y="633"/>
      <point x="156" y="608"/>
      <point x="229" y="597" type="curve" smooth="yes"/>
      <point x="357" y="577" type="line"/>
    </contour>
    <contour>
      <point x="247" y="510" type="move" name="_top"/>
    </contour>
  </outline>
</glyph>
<glyph name="a" format="1">
  <advance width="628"/>
  <unicode hex="0061"/>
  <outline>
    <contour>
      <point x="438" y="512" type="line"/>
      <point x="397" y="526"/>
      <point x="373" y="530"/>
      <point x="337" y="530" type="curve" smooth="yes"/>
      <point x="134" y="530"/>
      <point x="7" y="399"/>
      <point x="7" y="182" type="curve" smooth="yes"/>
      <point x="7" y="55"/>
      <point x="51" y="-20"/>
      <point x="173" y="-20" type="curve" smooth="yes"/>
      <point x="245" y="-20"/>
      <point x="301" y="5"/>
      <point x="336" y="37" type="curve"/>
      <point x="355" y="-3"/>
      <point x="406" y="-20"/>
      <point x="454" y="-20" type="curve" smooth="yes"/>
      <point x="512" y="-20"/>
      <point x="588" y="7"/>
      <point x="607" y="67" type="curve"/>
      <point x="568" y="71"/>
      <point x="552" y="101"/>
      <point x="552" y="131" type="curve" smooth="yes"/>
      <point x="552" y="144"/>
      <point x="555" y="162"/>
      <point x="557" y="173" type="curve" smooth="yes"/>
      <point x="625" y="534" type="line"/>
    </contour>
    <contour>
      <point x="320" y="153" type="line" smooth="yes"/>
      <point x="313" y="109"/>
      <point x="299" y="46"/>
      <point x="258" y="46" type="curve" smooth="yes"/>
      <point x="233" y="46"/>
      <point x="228" y="79"/>
      <point x="228" y="119" type="curve" smooth="yes"/>
      <point x="228" y="149"/>
      <point x="231" y="183"/>
      <point x="234" y="207" type="curve" smooth="yes"/>
      <point x="263" y="434"/>
      <point x="296" y="470"/>
      <point x="336" y="470" type="curve" smooth="yes"/>
      <point x="346" y="470"/>
      <point x="362" y="467"/>
      <point x="372" y="458" type="curve"/>
    </contour>
    <contour>
      <point x="564" y="10" type="move" name="ogonek"/>
    </contour>
    <contour>
      <point x="358" y="510" type="move" name="top"/>
    </contour>
  </outline>
</glyph>
<glyph name="b" format="1">
  <advance width="608"/>
  <unicode hex="0062"/>
  <outline>
    <contour>
      <point x="115" y="700" type="line"/>
      <point x="-6" y="57" type="line"/>
      <point x="52" y="-3"/>
      <point x="181" y="-20"/>
      <point x="257" y="-20" type="curve" smooth="yes"/>
      <point x="480" y="-20"/>
      <point x="602" y="118"/>
      <point x="602" y="337" type="curve" smooth="yes"/>
      <point x="602" y="460"/>
      <point x="562" y="530"/>
      <point x="446" y="530" type="curve" smooth="yes"/>
      <point x="391" y="530"/>
      <point x="336" y="515"/>
      <point x="300" y="489" type="curve"/>
      <point x="320" y="531"/>
      <point x="332" y="584"/>
      <point x="336" y="605" type="curve" smooth="yes"/>
      <point x="359" y="724" type="line"/>
    </contour>
    <contour>
      <point x="287" y="357" type="line" smooth="yes"/>
      <point x="295" y="401"/>
      <point x="310" y="465"/>
      <point x="351" y="465" type="curve" smooth="yes"/>
      <point x="376" y="464"/>
      <point x="380" y="431"/>
      <point x="380" y="391" type="curve" smooth="yes"/>
      <point x="379" y="361"/>
      <point x="376" y="328"/>
      <point x="372" y="302" type="curve" smooth="yes"/>
      <point x="339" y="77"/>
      <point x="307" y="40"/>
      <point x="266" y="40" type="curve" smooth="yes"/>
      <point x="256" y="40"/>
      <point x="240" y="43"/>
      <point x="229" y="52" type="curve"/>
    </contour>
  </outline>
</glyph>
<glyph name="c" format="1">
  <advance width="502"/>
  <unicode hex="0063"/>
  <outline>
    <contour>
      <point x="153" y="530"/>
      <point x="11" y="416"/>
      <point x="11" y="212" type="curve" smooth="yes"/>
      <point x="11" y="52"/>
      <point x="99" y="-20"/>
      <point x="236" y="-20" type="curve" smooth="yes"/>
      <point x="349" y="-20"/>
      <point x="477" y="29"/>
      <point x="477" y="133" type="curve" smooth="yes"/>
      <point x="477" y="166"/>
      <point x="466" y="182"/>
      <point x="437" y="199" type="curve"/>
      <point x="415" y="152"/>
      <point x="356" y="127"/>
      <point x="308" y="127" type="curve" smooth="yes"/>
      <point x="255" y="127"/>
      <point x="238" y="155"/>
      <point x="238" y="204" type="curve" smooth="yes"/>
      <point x="238" y="282"/>
      <point x="282" y="471"/>
      <point x="347" y="471" type="curve" smooth="yes"/>
      <point x="367" y="471"/>
      <point x="372" y="453"/>
      <point x="372" y="429" type="curve" smooth="yes"/>
      <point x="372" y="394"/>
      <point x="361" y="345"/>
      <point x="352" y="319" type="curve"/>
      <point x="365" y="314"/>
      <point x="387" y="314"/>
      <point x="399" y="314" type="curve" smooth="yes"/>
      <point x="474" y="314"/>
      <point x="537" y="344"/>
      <point x="537" y="421" type="curve" smooth="yes"/>
      <point x="537" y="505"/>
      <point x="458" y="530"/>
      <point x="363" y="530" type="curve" smooth="yes"/>
    </contour>
    <contour>
      <point x="352" y="510" type="move" name="top"/>
    </contour>
    <contour>
      <point x="251" y="0" type="move" name="bottom"/>
    </contour>
  </outline>
</glyph>
<glyph name="d" format="1">
  <advance width="628"/>
  <unicode hex="0064"/>
  <outline>
    <contour>
      <point x="419" y="700" type="line"/>
      <point x="389" y="528" type="line"/>
      <point x="376" y="530"/>
      <point x="355" y="530"/>
      <point x="338" y="530" type="curve" smooth="yes"/>
      <point x="133" y="530"/>
      <point x="7" y="398"/>
      <point x="7" y="182" type="curve" smooth="yes"/>
      <point x="7" y="55"/>
      <point x="51" y="-20"/>
      <point x="173" y="-20" type="curve" smooth="yes"/>
      <point x="245" y="-20"/>
      <point x="301" y="5"/>
      <point x="336" y="37" type="curve"/>
      <point x="355" y="-3"/>
      <point x="406" y="-20"/>
      <point x="454" y="-20" type="curve" smooth="yes"/>
      <point x="512" y="-20"/>
      <point x="588" y="7"/>
      <point x="607" y="67" type="curve"/>
      <point x="568" y="71"/>
      <point x="552" y="101"/>
      <point x="552" y="131" type="curve" smooth="yes"/>
      <point x="552" y="144"/>
      <point x="555" y="162"/>
      <point x="557" y="173" type="curve" smooth="yes"/>
      <point x="661" y="724" type="line"/>
    </contour>
    <contour>
      <point x="320" y="153" type="line" smooth="yes"/>
      <point x="313" y="109"/>
      <point x="299" y="46"/>
      <point x="258" y="46" type="curve" smooth="yes"/>
      <point x="233" y="46"/>
      <point x="228" y="79"/>
      <point x="228" y="119" type="curve" smooth="yes"/>
      <point x="228" y="149"/>
      <point x="231" y="183"/>
      <point x="234" y="207" type="curve" smooth="yes"/>
      <point x="263" y="434"/>
      <point x="296" y="470"/>
      <point x="336" y="470" type="curve" smooth="yes"/>
      <point x="346" y="470"/>
      <point x="362" y="467"/>
      <point x="372" y="458" type="curve"/>
    </contour>
    <contour>
      <point x="676" y="508" type="move" name="caron"/>
    </contour>
    <contour>
      <point x="301" y="0" type="move" name="bottom"/>
    </contour>
    <contour>
      <point x="314" y="255" type="move" name="center"/>
    </contour>
  </outline>
</glyph>
<glyph name="e" format="1">
  <advance width="531"/>
  <unicode hex="0065"/>
  <outline>
    <contour>
      <point x="121" y="530"/>
      <point x="10" y="384"/>
      <point x="10" y="209" type="curve" smooth="yes"/>
      <point x="10" y="50"/>
      <point x="100" y="-20"/>
      <point x="236" y="-20" type="curve" smooth="yes"/>
      <point x="348" y="-20"/>
      <point x="476" y="28"/>
      <point x="476" y="130" type="curve" smooth="yes"/>
      <point x="476" y="155"/>
      <point x="469" y="168"/>
      <point x="451" y="182" type="curve"/>
      <point x="424" y="146"/>
      <point x="358" y="127"/>
      <point x="312" y="127" type="curve" smooth="yes"/>
      <point x="257" y="127"/>
      <point x="235" y="152"/>
      <point x="235" y="200" type="curve" smooth="yes"/>
      <point x="235" y="210"/>
      <point x="236" y="223"/>
      <point x="238" y="233" type="curve"/>
      <point x="259" y="234"/>
      <point x="272" y="234"/>
      <point x="288" y="236" type="curve" smooth="yes"/>
      <point x="479" y="249"/>
      <point x="547" y="312"/>
      <point x="547" y="404" type="curve" smooth="yes"/>
      <point x="547" y="510"/>
      <point x="454" y="530"/>
      <point x="364" y="530" type="curve" smooth="yes"/>
    </contour>
    <contour>
      <point x="363" y="482"/>
      <point x="373" y="459"/>
      <point x="373" y="429" type="curve" smooth="yes"/>
      <point x="373" y="367"/>
      <point x="330" y="273"/>
      <point x="245" y="273" type="curve"/>
      <point x="274" y="448"/>
      <point x="313" y="482"/>
      <point x="342" y="482" type="curve" smooth="yes"/>
    </contour>
    <contour>
      <point x="384" y="10" type="move" name="ogonek"/>
    </contour>
    <contour>
      <point x="262" y="0" type="move" name="bottom"/>
    </contour>
    <contour>
      <point x="343" y="510" type="move" name="top"/>
    </contour>
  </outline>
</glyph>
<glyph name="f" format="1">
  <advance width="326"/>
  <unicode hex="0066"/>
  <outline>
    <contour>
      <point x="94" y="510" type="line"/>
      <point x="24" y="510" type="line"/>
      <point x="15" y="465" type="line"/>
      <point x="86" y="465" type="line"/>
      <point x="-9" y="-24" type="line"/>
      <point x="243" y="0" type="line"/>
      <point x="324" y="465" type="line"/>
      <point x="418" y="465" type="line"/>
      <point x="424" y="510" type="line"/>
      <point x="333" y="510" type="line"/>
      <point x="345" y="578" type="line" smooth="yes"/>
      <point x="356" y="639"/>
      <point x="371" y="676"/>
      <point x="401" y="676" type="curve" smooth="yes"/>
      <point x="417" y="676"/>
      <point x="421" y="664"/>
      <point x="421" y="646" type="curve" smooth="yes"/>
      <point x="421" y="629"/>
      <point x="417" y="597"/>
      <point x="407" y="580" type="curve"/>
      <point x="429" y="571"/>
      <point x="453" y="568"/>
      <point x="474" y="568" type="curve" smooth="yes"/>
      <point x="527" y="568"/>
      <point x="583" y="587"/>
      <point x="583" y="637" type="curve" smooth="yes"/>
      <point x="583" y="712"/>
      <point x="460" y="720"/>
      <point x="383" y="720" type="curve" smooth="yes"/>
      <point x="271" y="720"/>
      <point x="141" y="702"/>
      <point x="109" y="571" type="curve" smooth="yes"/>
    </contour>
  </outline>
</glyph>
<glyph name="g" format="1">
  <advance width="602"/>
  <unicode hex="0067"/>
  <outline>
    <contour>
      <point x="429" y="515" type="line"/>
      <point x="407" y="526"/>
      <point x="374" y="530"/>
      <point x="341" y="530" type="curve" smooth="yes"/>
      <point x="141" y="530"/>
      <point x="14" y="380"/>
      <point x="14" y="208" type="curve" smooth="yes"/>
      <point x="14" y="93"/>
      <point x="70" y="58"/>
      <point x="152" y="58" type="curve" smooth="yes"/>
      <point x="217" y="58"/>
      <point x="281" y="81"/>
      <point x="322" y="122" type="curve"/>
      <point x="286" y="-75"/>
      <point x="243" y="-126"/>
      <point x="200" y="-126" type="curve" smooth="yes"/>
      <point x="176" y="-126"/>
      <point x="174" y="-101"/>
      <point x="174" y="-92" type="curve" smooth="yes"/>
      <point x="174" y="-69"/>
      <point x="188" y="-50"/>
      <point x="199" y="-38" type="curve"/>
      <point x="169" y="-2"/>
      <point x="118" y="11"/>
      <point x="73" y="11" type="curve" smooth="yes"/>
      <point x="2" y="11"/>
      <point x="-53" y="-28"/>
      <point x="-53" y="-89" type="curve" smooth="yes"/>
      <point x="-53" y="-184"/>
      <point x="92" y="-200"/>
      <point x="191" y="-200" type="curve" smooth="yes"/>
      <point x="444" y="-200"/>
      <point x="511" y="-67"/>
      <point x="549" y="135" type="curve" smooth="yes"/>
      <point x="624" y="532" type="line"/>
    </contour>
    <contour>
      <point x="333" y="246" type="line" smooth="yes"/>
      <point x="325" y="202"/>
      <point x="312" y="139"/>
      <point x="271" y="139" type="curve" smooth="yes"/>
      <point x="247" y="139"/>
      <point x="240" y="171"/>
      <point x="240" y="208" type="curve" smooth="yes"/>
      <point x="240" y="268"/>
      <point x="269" y="471"/>
      <point x="337" y="471" type="curve" smooth="yes"/>
      <point x="347" y="471"/>
      <point x="363" y="468"/>
      <point x="373" y="459" type="curve"/>
    </contour>
    <contour>
      <point x="363" y="510" type="move" name="top"/>
    </contour>
  </outline>
</glyph>
<glyph name="h" format="1">
  <advance width="633"/>
  <unicode hex="0068"/>
  <outline>
    <contour>
      <point x="124" y="700" type="line"/>
      <point x="-18" y="-24" type="line"/>
      <point x="226" y="0" type="line"/>
      <point x="288" y="317" type="line" smooth="yes"/>
      <point x="299" y="373"/>
      <point x="314" y="453"/>
      <point x="356" y="453" type="curve" smooth="yes"/>
      <point x="373" y="453"/>
      <point x="379" y="437"/>
      <point x="379" y="412" type="curve" smooth="yes"/>
      <point x="379" y="336"/>
      <point x="321" y="173"/>
      <point x="321" y="97" type="curve" smooth="yes"/>
      <point x="321" y="20"/>
      <point x="380" y="-20"/>
      <point x="459" y="-20" type="curve" smooth="yes"/>
      <point x="525" y="-20"/>
      <point x="597" y="7"/>
      <point x="617" y="67" type="curve"/>
      <point x="578" y="72"/>
      <point x="562" y="96"/>
      <point x="562" y="135" type="curve" smooth="yes"/>
      <point x="562" y="203"/>
      <point x="613" y="345"/>
      <point x="613" y="417" type="curve" smooth="yes"/>
      <point x="613" y="505"/>
      <point x="545" y="530"/>
      <point x="463" y="530" type="curve" smooth="yes"/>
      <point x="404" y="530"/>
      <point x="350" y="518"/>
      <point x="309" y="489" type="curve"/>
      <point x="329" y="531"/>
      <point x="341" y="584"/>
      <point x="345" y="605" type="curve" smooth="yes"/>
      <point x="368" y="724" type="line"/>
    </contour>
    <contour>
      <point x="317" y="255" type="move" name="center"/>
    </contour>
    <contour>
      <point x="301" y="0" type="move" name="bottom"/>
    </contour>
    <contour>
      <point x="259" y="681" type="move" name="top"/>
    </contour>
  </outline>
</glyph>
<glyph name="i" format="1">
  <advance width="332"/>
  <unicode hex="0069"/>
  <outline>
    <contour>
      <point x="84" y="510" type="line"/>
      <point x="60" y="386" type="line" smooth="yes"/>
      <point x="49" y="324"/>
      <point x="15" y="163"/>
      <point x="15" y="101" type="curve" smooth="yes"/>
      <point x="15" y="18"/>
      <point x="74" y="-20"/>
      <point x="153" y="-20" type="curve" smooth="yes"/>
      <point x="219" y="-20"/>
      <point x="292" y="7"/>
      <point x="311" y="67" type="curve"/>
      <point x="272" y="71"/>
      <point x="256" y="101"/>
      <point x="256" y="131" type="curve" smooth="yes"/>
      <point x="256" y="145"/>
      <point x="259" y="162"/>
      <point x="261" y="173" type="curve" smooth="yes"/>
      <point x="330" y="534" type="line"/>
    </contour>
    <component base="dotaccent" xOffset="47"/>
    <contour>
      <point x="141" y="0" type="move" name="bottom"/>
    </contour>
  </outline>
</glyph>
<glyph name="k" format="1">
  <advance width="609"/>
  <unicode hex="006B"/>
  <outline>
    <contour>
      <point x="116" y="700" type="line"/>
      <point x="-26" y="-24" type="line"/>
      <point x="218" y="0" type="line"/>
      <point x="280" y="317" type="line" smooth="yes"/>
      <point x="289" y="365"/>
      <point x="310" y="453"/>
      <point x="352" y="453" type="curve" smooth="yes"/>
      <point x="369" y="453"/>
      <point x="378" y="435"/>
      <point x="378" y="400" type="curve" smooth="yes"/>
      <point x="378" y="326"/>
      <point x="338" y="249"/>
      <point x="281" y="232" type="curve"/>
      <point x="264" y="148"/>
      <point x="293" y="-20"/>
      <point x="438" y="-20" type="curve" smooth="yes"/>
      <point x="500" y="-20"/>
      <point x="567" y="9"/>
      <point x="589" y="74" type="curve"/>
      <point x="559" y="76"/>
      <point x="541" y="104"/>
      <point x="526" y="143" type="curve" smooth="yes"/>
      <point x="489" y="239" type="line"/>
      <point x="576" y="261"/>
      <point x="613" y="323"/>
      <point x="613" y="399" type="curve" smooth="yes"/>
      <point x="613" y="492"/>
      <point x="554" y="530"/>
      <point x="456" y="530" type="curve" smooth="yes"/>
      <point x="406" y="530"/>
      <point x="348" y="523"/>
      <point x="301" y="489" type="curve"/>
      <point x="321" y="531"/>
      <point x="333" y="584"/>
      <point x="337" y="605" type="curve" smooth="yes"/>
      <point x="360" y="724" type="line"/>
    </contour>
    <contour>
      <point x="305" y="0" type="move" name="bottom"/>
    </contour>
  </outline>
</glyph>
<glyph name="l" format="1">
  <advance width="330"/>
  <unicode hex="006C"/>
  <outline>
    <contour>
      <point x="115" y="700" type="line"/>
      <point x="58" y="386" type="line" smooth="yes"/>
      <point x="47" y="324"/>
      <point x="13" y="163"/>
      <point x="13" y="101" type="curve" smooth="yes"/>
      <point x="13" y="18"/>
      <point x="72" y="-20"/>
      <point x="151" y="-20" type="curve" smooth="yes"/>
      <point x="217" y="-20"/>
      <point x="290" y="7"/>
      <point x="309" y="67" type="curve"/>
      <point x="270" y="71"/>
      <point x="254" y="101"/>
      <point x="254" y="131" type="curve" smooth="yes"/>
      <point x="254" y="145"/>
      <point x="257" y="162"/>
      <point x="259" y="173" type="curve" smooth="yes"/>
      <point x="363" y="724" type="line"/>
    </contour>
    <contour>
      <point x="429" y="329" type="move" name="center"/>
    </contour>
    <contour>
      <point x="380" y="510" type="move" name="caron"/>
    </contour>
    <contour>
      <point x="212" y="682" type="move" name="top"/>
    </contour>
    <contour>
      <point x="310" y="510" type="move" name="topright"/>
    </contour>
    <contour>
      <point x="149" y="0" type="move" name="bottom"/>
    </contour>
  </outline>
</glyph>
<glyph name="m" format="1">
  <advance width="941"/>
  <unicode hex="006D"/>
  <outline>
    <contour>
      <point x="286" y="534" type="line"/>
      <point x="87" y="510" type="line"/>
      <point x="-18" y="-24" type="line"/>
      <point x="226" y="0" type="line"/>
      <point x="288" y="317" type="line" smooth="yes"/>
      <point x="295" y="355"/>
      <point x="315" y="453"/>
      <point x="360" y="453" type="curve" smooth="yes"/>
      <point x="375" y="453"/>
      <point x="380" y="436"/>
      <point x="380" y="411" type="curve" smooth="yes"/>
      <point x="380" y="361"/>
      <point x="359" y="281"/>
      <point x="351" y="245" type="curve" smooth="yes"/>
      <point x="292" y="-24" type="line"/>
      <point x="537" y="0" type="line"/>
      <point x="598" y="317" type="line" smooth="yes"/>
      <point x="604" y="345"/>
      <point x="623" y="453"/>
      <point x="666" y="453" type="curve" smooth="yes"/>
      <point x="680" y="453"/>
      <point x="685" y="439"/>
      <point x="685" y="416" type="curve" smooth="yes"/>
      <point x="685" y="341"/>
      <point x="628" y="171"/>
      <point x="628" y="97" type="curve" smooth="yes"/>
      <point x="628" y="20"/>
      <point x="688" y="-20"/>
      <point x="767" y="-20" type="curve" smooth="yes"/>
      <point x="833" y="-20"/>
      <point x="905" y="7"/>
      <point x="925" y="67" type="curve"/>
      <point x="884" y="72"/>
      <point x="869" y="98"/>
      <point x="869" y="135" type="curve" smooth="yes"/>
      <point x="869" y="203"/>
      <point x="917" y="344"/>
      <point x="917" y="417" type="curve" smooth="yes"/>
      <point x="917" y="506"/>
      <point x="853" y="530"/>
      <point x="767" y="530" type="curve" smooth="yes"/>
      <point x="694" y="530"/>
      <point x="635" y="510"/>
      <point x="596" y="455" type="curve"/>
      <point x="573" y="515"/>
      <point x="514" y="530"/>
      <point x="452" y="530" type="curve" smooth="yes"/>
      <point x="373" y="530"/>
      <point x="304" y="505"/>
      <point x="268" y="432" type="curve"/>
    </contour>
  </outline>
</glyph>
<glyph name="n" format="1">
  <advance width="633"/>
  <unicode hex="006E"/>
  <outline>
    <contour>
      <point x="286" y="534" type="line"/>
      <point x="87" y="510" type="line"/>
      <point x="-18" y="-24" type="line"/>
      <point x="226" y="0" type="line"/>
      <point x="288" y="317" type="line" smooth="yes"/>
      <point x="299" y="373"/>
      <point x="314" y="453"/>
      <point x="356" y="453" type="curve" smooth="yes"/>
      <point x="373" y="453"/>
      <point x="379" y="437"/>
      <point x="379" y="412" type="curve" smooth="yes"/>
      <point x="379" y="336"/>
      <point x="321" y="173"/>
      <point x="321" y="97" type="curve" smooth="yes"/>
      <point x="321" y="20"/>
      <point x="380" y="-20"/>
      <point x="459" y="-20" type="curve" smooth="yes"/>
      <point x="525" y="-20"/>
      <point x="597" y="7"/>
      <point x="617" y="67" type="curve"/>
      <point x="578" y="72"/>
      <point x="562" y="96"/>
      <point x="562" y="135" type="curve" smooth="yes"/>
      <point x="562" y="203"/>
      <point x="613" y="345"/>
      <point x="613" y="418" type="curve" smooth="yes"/>
      <point x="613" y="505"/>
      <point x="547" y="530"/>
      <point x="458" y="530" type="curve" smooth="yes"/>
      <point x="373" y="530"/>
      <point x="305" y="504"/>
      <point x="268" y="432" type="curve"/>
    </contour>
    <contour>
      <point x="374" y="510" type="move" name="top"/>
    </contour>
    <contour>
      <point x="298" y="0" type="move" name="bottom"/>
    </contour>
  </outline>
</glyph>
<glyph name="o" format="1">
  <advance width="594"/>
  <unicode hex="006F"/>
  <outline>
    <contour>
      <point x="145" y="530"/>
      <point x="11" y="403"/>
      <point x="11" y="213" type="curve" smooth="yes"/>
      <point x="11" y="33"/>
      <point x="116" y="-20"/>
      <point x="246" y="-20" type="curve" smooth="yes"/>
      <point x="450" y="-20"/>
      <point x="584" y="113"/>
      <point x="584" y="301" type="curve" smooth="yes"/>
      <point x="584" y="479"/>
      <point x="482" y="530"/>
      <point x="350" y="530" type="curve" smooth="yes"/>
    </contour>
    <contour>
      <point x="355" y="470"/>
      <point x="360" y="444"/>
      <point x="360" y="410" type="curve" smooth="yes"/>
      <point x="360" y="385"/>
      <point x="357" y="330"/>
      <point x="349" y="270" type="curve" smooth="yes"/>
      <point x="336" y="164"/>
      <point x="310" y="40"/>
      <point x="266" y="40" type="curve" smooth="yes"/>
      <point x="240" y="40"/>
      <point x="234" y="69"/>
      <point x="234" y="104" type="curve" smooth="yes"/>
      <point x="234" y="125"/>
      <point x="236" y="171"/>
      <point x="242" y="223" type="curve" smooth="yes"/>
      <point x="254" y="332"/>
      <point x="284" y="470"/>
      <point x="330" y="470" type="curve" smooth="yes"/>
    </contour>
    <contour>
      <point x="399" y="10" type="move" name="ogonek"/>
    </contour>
    <contour>
      <point x="271" y="0" type="move" name="bottom"/>
    </contour>
    <contour>
      <point x="359" y="510" type="move" name="top"/>
    </contour>
  </outline>
</glyph>
<glyph name="p" format="1">
  <advance width="607"/>
  <unicode hex="0070"/>
  <outline>
    <contour>
      <point x="285" y="534" type="line"/>
      <point x="86" y="510" type="line"/>
      <point x="-51" y="-204" type="line"/>
      <point x="191" y="-180" type="line"/>
      <point x="217" y="-16" type="line"/>
      <point x="231" y="-18"/>
      <point x="251" y="-19"/>
      <point x="269" y="-19" type="curve" smooth="yes"/>
      <point x="474" y="-19"/>
      <point x="600" y="115"/>
      <point x="600" y="327" type="curve" smooth="yes"/>
      <point x="600" y="458"/>
      <point x="551" y="531"/>
      <point x="422" y="531" type="curve" smooth="yes"/>
      <point x="351" y="531"/>
      <point x="303" y="511"/>
      <point x="272" y="463" type="curve"/>
    </contour>
    <contour>
      <point x="285" y="356" type="line" smooth="yes"/>
      <point x="292" y="400"/>
      <point x="306" y="463"/>
      <point x="347" y="463" type="curve" smooth="yes"/>
      <point x="372" y="463"/>
      <point x="377" y="430"/>
      <point x="377" y="390" type="curve" smooth="yes"/>
      <point x="377" y="360"/>
      <point x="374" y="326"/>
      <point x="371" y="302" type="curve" smooth="yes"/>
      <point x="342" y="75"/>
      <point x="309" y="39"/>
      <point x="269" y="39" type="curve" smooth="yes"/>
      <point x="259" y="39"/>
      <point x="243" y="42"/>
      <point x="233" y="51" type="curve"/>
    </contour>
  </outline>
</glyph>
<glyph name="q" format="1">
  <advance width="615"/>
  <unicode hex="0071"/>
  <outline>
    <contour>
      <point x="443" y="512" type="line"/>
      <point x="415" y="527"/>
      <point x="376" y="530"/>
      <point x="345" y="530" type="curve" smooth="yes"/>
      <point x="128" y="530"/>
      <point x="6" y="389"/>
      <point x="6" y="172" type="curve" smooth="yes"/>
      <point x="6" y="50"/>
      <point x="45" y="-20"/>
      <point x="161" y="-20" type="curve" smooth="yes"/>
      <point x="217" y="-20"/>
      <point x="271" y="-5"/>
      <point x="307" y="21" type="curve"/>
      <point x="287" y="-21"/>
      <point x="276" y="-74"/>
      <point x="272" y="-95" type="curve" smooth="yes"/>
      <point x="251" y="-199" type="line"/>
      <point x="501" y="-175" type="line"/>
      <point x="630" y="534" type="line"/>
    </contour>
    <contour>
      <point x="322" y="153" type="line" smooth="yes"/>
      <point x="315" y="109"/>
      <point x="300" y="46"/>
      <point x="259" y="46" type="curve" smooth="yes"/>
      <point x="234" y="46"/>
      <point x="229" y="79"/>
      <point x="230" y="119" type="curve" smooth="yes"/>
      <point x="230" y="149"/>
      <point x="234" y="183"/>
      <point x="237" y="207" type="curve" smooth="yes"/>
      <point x="270" y="434"/>
      <point x="304" y="470"/>
      <point x="344" y="470" type="curve" smooth="yes"/>
      <point x="354" y="470"/>
      <point x="370" y="467"/>
      <point x="380" y="458" type="curve"/>
    </contour>
  </outline>
</glyph>
<glyph name="r" format="1">
  <advance width="524"/>
  <unicode hex="0072"/>
  <outline>
    <contour>
      <point x="285" y="534" type="line"/>
      <point x="85" y="510" type="line"/>
      <point x="-18" y="-24" type="line"/>
      <point x="234" y="0" type="line"/>
      <point x="281" y="302" type="line" smooth="yes"/>
      <point x="302" y="429"/>
      <point x="337" y="453"/>
      <point x="361" y="453" type="curve" smooth="yes"/>
      <point x="385" y="453"/>
      <point x="388" y="431"/>
      <point x="388" y="411" type="curve" smooth="yes"/>
      <point x="388" y="366"/>
      <point x="368" y="303"/>
      <point x="341" y="269" type="curve"/>
      <point x="355" y="255"/>
      <point x="384" y="249"/>
      <point x="411" y="249" type="curve" smooth="yes"/>
      <point x="500" y="249"/>
      <point x="566" y="311"/>
      <point x="566" y="406" type="curve" smooth="yes"/>
      <point x="566" y="491"/>
      <point x="514" y="530"/>
      <point x="427" y="530" type="curve" smooth="yes"/>
      <point x="350" y="530"/>
      <point x="301" y="501"/>
      <point x="267" y="432" type="curve"/>
    </contour>
    <contour>
      <point x="212" y="510" type="move" name="top"/>
    </contour>
    <contour>
      <point x="127" y="0" type="move" name="bottom"/>
    </contour>
  </outline>
</glyph>
<glyph name="s" format="1">
  <advance width="474"/>
  <unicode hex="0073"/>
  <outline>
    <contour>
      <point x="248" y="53"/>
      <point x="217" y="35"/>
      <point x="191" y="35" type="curve" smooth="yes"/>
      <point x="164" y="35"/>
      <point x="142" y="54"/>
      <point x="142" y="95" type="curve" smooth="yes"/>
      <point x="142" y="111"/>
      <point x="145" y="125"/>
      <point x="154" y="150" type="curve"/>
      <point x="133" y="162"/>
      <point x="105" y="168"/>
      <point x="79" y="168" type="curve" smooth="yes"/>
      <point x="12" y="168"/>
      <point x="-28" y="130"/>
      <point x="-28" y="80" type="curve" smooth="yes"/>
      <point x="-28" y="1"/>
      <point x="74" y="-19"/>
      <point x="163" y="-19" type="curve" smooth="yes"/>
      <point x="350" y="-19"/>
      <point x="440" y="67"/>
      <point x="440" y="177" type="curve" smooth="yes"/>
      <point x="440" y="249"/>
      <point x="385" y="283"/>
      <point x="333" y="314" type="curve" smooth="yes"/>
      <point x="284" y="343"/>
      <point x="237" y="370"/>
      <point x="237" y="422" type="curve" smooth="yes"/>
      <point x="237" y="453"/>
      <point x="268" y="479"/>
      <point x="296" y="479" type="curve" smooth="yes"/>
      <point x="320" y="479"/>
      <point x="341" y="461"/>
      <point x="341" y="422" type="curve" smooth="yes"/>
      <point x="341" y="403"/>
      <point x="338" y="377"/>
      <point x="327" y="345" type="curve"/>
      <point x="340" y="337"/>
      <point x="353" y="334"/>
      <point x="375" y="334" type="curve" smooth="yes"/>
      <point x="451" y="334"/>
      <point x="489" y="371"/>
      <point x="489" y="431" type="curve" smooth="yes"/>
      <point x="489" y="506"/>
      <point x="428" y="530"/>
      <point x="335" y="530" type="curve" smooth="yes"/>
      <point x="147" y="530"/>
      <point x="45" y="438"/>
      <point x="45" y="322" type="curve" smooth="yes"/>
      <point x="45" y="261"/>
      <point x="94" y="217"/>
      <point x="143" y="181" type="curve" smooth="yes"/>
      <point x="195" y="144"/>
      <point x="248" y="116"/>
      <point x="248" y="89" type="curve" smooth="yes"/>
    </contour>
    <contour>
      <point x="323" y="510" type="move" name="top"/>
    </contour>
    <contour>
      <point x="200" y="0" type="move" name="bottom"/>
    </contour>
  </outline>
</glyph>
<glyph name="t" format="1">
  <advance width="344"/>
  <unicode hex="0074"/>
  <outline>
    <contour>
      <point x="297" y="624" type="line"/>
      <point x="205" y="561"/>
      <point x="118" y="519"/>
      <point x="31" y="495" type="curve"/>
      <point x="27" y="465" type="line"/>
      <point x="80" y="465" type="line"/>
      <point x="51" y="313" type="line" smooth="yes"/>
      <point x="42" y="265"/>
      <point x="20" y="151"/>
      <point x="20" y="100" type="curve" smooth="yes"/>
      <point x="20" y="19"/>
      <point x="79" y="-20"/>
      <point x="158" y="-20" type="curve" smooth="yes"/>
      <point x="224" y="-20"/>
      <point x="297" y="7"/>
      <point x="316" y="67" type="curve"/>
      <point x="277" y="71"/>
      <point x="261" y="101"/>
      <point x="261" y="131" type="curve" smooth="yes"/>
      <point x="261" y="145"/>
      <point x="264" y="162"/>
      <point x="266" y="173" type="curve" smooth="yes"/>
      <point x="320" y="465" type="line"/>
      <point x="396" y="465" type="line"/>
      <point x="405" y="510" type="line"/>
      <point x="327" y="510" type="line"/>
      <point x="353" y="624" type="line"/>
    </contour>
    <contour>
      <point x="172" y="255" type="move" name="center"/>
    </contour>
    <contour>
      <point x="155" y="0" type="move" name="bottom"/>
    </contour>
  </outline>
</glyph>
<glyph name="u" format="1">
  <advance width="636"/>
  <unicode hex="0075"/>
  <outline>
    <contour>
      <point x="387" y="510" type="line"/>
      <point x="327" y="153" type="line" smooth="yes"/>
      <point x="321" y="111"/>
      <point x="302" y="46"/>
      <point x="264" y="46" type="curve" smooth="yes"/>
      <point x="246" y="46"/>
      <point x="240" y="64"/>
      <point x="240" y="91" type="curve" smooth="yes"/>
      <point x="240" y="126"/>
      <point x="250" y="175"/>
      <point x="259" y="225" type="curve" smooth="yes"/>
      <point x="321" y="534" type="line"/>
      <point x="73" y="510" type="line"/>
      <point x="33" y="265" type="line" smooth="yes"/>
      <point x="28" y="226"/>
      <point x="12" y="142"/>
      <point x="12" y="96" type="curve" smooth="yes"/>
      <point x="12" y="-7"/>
      <point x="88" y="-20"/>
      <point x="171" y="-20" type="curve" smooth="yes"/>
      <point x="241" y="-20"/>
      <point x="297" y="-5"/>
      <point x="344" y="37" type="curve"/>
      <point x="363" y="-3"/>
      <point x="414" y="-20"/>
      <point x="462" y="-20" type="curve" smooth="yes"/>
      <point x="520" y="-20"/>
      <point x="596" y="7"/>
      <point x="615" y="67" type="curve"/>
      <point x="576" y="71"/>
      <point x="560" y="101"/>
      <point x="560" y="131" type="curve" smooth="yes"/>
      <point x="560" y="144"/>
      <point x="563" y="162"/>
      <point x="565" y="173" type="curve" smooth="yes"/>
      <point x="632" y="534" type="line"/>
    </contour>
    <contour>
      <point x="569" y="10" type="move" name="ogonek"/>
    </contour>
    <contour>
      <point x="281" y="0" type="move" name="bottom"/>
    </contour>
    <contour>
      <point x="350" y="510" type="move" name="top"/>
    </contour>
  </outline>
</glyph>
<glyph name="v" format="1">
  <advance width="565"/>
  <unicode hex="0076"/>
  <outline>
    <contour>
      <point x="300" y="0" type="line"/>
      <point x="368" y="41"/>
      <point x="431" y="117"/>
      <point x="468" y="167" type="curve" smooth="yes"/>
      <point x="530" y="252"/>
      <point x="588" y="370"/>
      <point x="588" y="437" type="curve" smooth="yes"/>
      <point x="588" y="510"/>
      <point x="530" y="530"/>
      <point x="482" y="530" type="curve" smooth="yes"/>
      <point x="437" y="530"/>
      <point x="405" y="513"/>
      <point x="383" y="488" type="curve"/>
      <point x="390" y="468"/>
      <point x="390" y="448"/>
      <point x="390" y="432" type="curve" smooth="yes"/>
      <point x="390" y="320"/>
      <point x="357" y="151"/>
      <point x="277" y="81" type="curve"/>
      <point x="278" y="176"/>
      <point x="278" y="242"/>
      <point x="278" y="289" type="curve" smooth="yes"/>
      <point x="278" y="339"/>
      <point x="278" y="356"/>
      <point x="277" y="380" type="curve" smooth="yes"/>
      <point x="270" y="477"/>
      <point x="240" y="530"/>
      <point x="132" y="530" type="curve" smooth="yes"/>
      <point x="88" y="530"/>
      <point x="45" y="521"/>
      <point x="0" y="488" type="curve"/>
      <point x="22" y="473"/>
      <point x="31" y="445"/>
      <point x="41" y="380" type="curve" smooth="yes"/>
      <point x="56" y="282"/>
      <point x="63" y="139"/>
      <point x="67" y="-24" type="curve"/>
    </contour>
  </outline>
</glyph>
<glyph name="w" format="1">
  <advance width="873"/>
  <unicode hex="0077"/>
  <outline>
    <contour>
      <point x="267" y="0" type="line"/>
      <point x="339" y="28"/>
      <point x="419" y="116"/>
      <point x="433" y="182" type="curve"/>
      <point x="435" y="99"/>
      <point x="434" y="24"/>
      <point x="433" y="-23" type="curve"/>
      <point x="604" y="0" type="line"/>
      <point x="673" y="39"/>
      <point x="736" y="112"/>
      <point x="776" y="167" type="curve" smooth="yes"/>
      <point x="838" y="251"/>
      <point x="896" y="370"/>
      <point x="896" y="437" type="curve" smooth="yes"/>
      <point x="896" y="510"/>
      <point x="839" y="530"/>
      <point x="791" y="530" type="curve" smooth="yes"/>
      <point x="745" y="530"/>
      <point x="713" y="513"/>
      <point x="692" y="488" type="curve"/>
      <point x="698" y="468"/>
      <point x="699" y="449"/>
      <point x="699" y="431" type="curve" smooth="yes"/>
      <point x="699" y="322"/>
      <point x="680" y="152"/>
      <point x="602" y="81" type="curve"/>
      <point x="603" y="152"/>
      <point x="602" y="202"/>
      <point x="602" y="244" type="curve" smooth="yes"/>
      <point x="602" y="361"/>
      <point x="602" y="349"/>
      <point x="601" y="363" type="curve" smooth="yes"/>
      <point x="593" y="467"/>
      <point x="573" y="530"/>
      <point x="473" y="530" type="curve" smooth="yes"/>
      <point x="423" y="530"/>
      <point x="390" y="515"/>
      <point x="367" y="488" type="curve"/>
      <point x="374" y="468"/>
      <point x="374" y="449"/>
      <point x="374" y="431" type="curve" smooth="yes"/>
      <point x="374" y="322"/>
      <point x="356" y="152"/>
      <point x="278" y="81" type="curve"/>
      <point x="279" y="161"/>
      <point x="279" y="209"/>
      <point x="279" y="241" type="curve" smooth="yes"/>
      <point x="279" y="264"/>
      <point x="278" y="351"/>
      <point x="277" y="380" type="curve" smooth="yes"/>
      <point x="273" y="471"/>
      <point x="247" y="530"/>
      <point x="133" y="530" type="curve" smooth="yes"/>
      <point x="88" y="530"/>
      <point x="46" y="521"/>
      <point x="0" y="488" type="curve"/>
      <point x="22" y="473"/>
      <point x="31" y="445"/>
      <point x="41" y="380" type="curve" smooth="yes"/>
      <point x="56" y="282"/>
      <point x="63" y="139"/>
      <point x="67" y="-24" type="curve"/>
    </contour>
    <contour>
      <point x="472" y="510" type="move" name="top"/>
    </contour>
  </outline>
</glyph>
<glyph name="x" format="1">
  <advance width="561"/>
  <unicode hex="0078"/>
  <outline>
    <contour>
      <point x="162" y="261" type="line"/>
      <point x="84" y="227" type="line" smooth="yes"/>
      <point x="13" y="201"/>
      <point x="-32" y="153"/>
      <point x="-32" y="75" type="curve" smooth="yes"/>
      <point x="-32" y="9"/>
      <point x="5" y="-20"/>
      <point x="70" y="-20" type="curve" smooth="yes"/>
      <point x="103" y="-20"/>
      <point x="137" y="-13"/>
      <point x="167" y="4" type="curve"/>
      <point x="146" y="28"/>
      <point x="139" y="58"/>
      <point x="139" y="91" type="curve" smooth="yes"/>
      <point x="139" y="133"/>
      <point x="147" y="180"/>
      <point x="190" y="187" type="curve"/>
      <point x="242" y="52" type="line" smooth="yes"/>
      <point x="264" y="-5"/>
      <point x="295" y="-20"/>
      <point x="357" y="-20" type="curve" smooth="yes"/>
      <point x="424" y="-20"/>
      <point x="491" y="10"/>
      <point x="513" y="74" type="curve"/>
      <point x="483" y="76"/>
      <point x="463" y="109"/>
      <point x="449" y="148" type="curve" smooth="yes"/>
      <point x="402" y="268" type="line"/>
      <point x="475" y="299" type="line" smooth="yes"/>
      <point x="544" y="324"/>
      <point x="585" y="366"/>
      <point x="585" y="437" type="curve" smooth="yes"/>
      <point x="585" y="501"/>
      <point x="548" y="530"/>
      <point x="483" y="530" type="curve" smooth="yes"/>
      <point x="449" y="530"/>
      <point x="416" y="523"/>
      <point x="385" y="506" type="curve"/>
      <point x="406" y="482"/>
      <point x="414" y="453"/>
      <point x="414" y="420" type="curve" smooth="yes"/>
      <point x="414" y="385"/>
      <point x="411" y="346"/>
      <point x="375" y="343" type="curve"/>
      <point x="325" y="458" type="line" smooth="yes"/>
      <point x="304" y="508"/>
      <point x="273" y="530"/>
      <point x="210" y="530" type="curve" smooth="yes"/>
      <point x="143" y="530"/>
      <point x="76" y="500"/>
      <point x="54" y="436" type="curve"/>
      <point x="89" y="432"/>
      <point x="104" y="397"/>
      <point x="118" y="362" type="curve" smooth="yes"/>
    </contour>
  </outline>
</glyph>
<glyph name="y" format="1">
  <advance width="542"/>
  <unicode hex="0079"/>
  <outline>
    <contour>
      <point x="66" y="-169"/>
      <point x="112" y="-200"/>
      <point x="178" y="-200" type="curve" smooth="yes"/>
      <point x="231" y="-200"/>
      <point x="289" y="-185"/>
      <point x="329" y="-146" type="curve"/>
      <point x="294" y="-127"/>
      <point x="271" y="-92"/>
      <point x="271" y="-55" type="curve" smooth="yes"/>
      <point x="271" y="11"/>
      <point x="315" y="50"/>
      <point x="361" y="96" type="curve" smooth="yes"/>
      <point x="405" y="143"/>
      <point x="583" y="325"/>
      <point x="583" y="437" type="curve" smooth="yes"/>
      <point x="583" y="510"/>
      <point x="525" y="530"/>
      <point x="477" y="530" type="curve" smooth="yes"/>
      <point x="432" y="530"/>
      <point x="400" y="513"/>
      <point x="379" y="488" type="curve"/>
      <point x="385" y="468"/>
      <point x="386" y="448"/>
      <point x="386" y="432" type="curve" smooth="yes"/>
      <point x="386" y="323"/>
      <point x="342" y="207"/>
      <point x="281" y="128" type="curve"/>
      <point x="282" y="289" type="line" smooth="yes"/>
      <point x="283" y="339"/>
      <point x="282" y="356"/>
      <point x="280" y="380" type="curve" smooth="yes"/>
      <point x="272" y="478"/>
      <point x="247" y="530"/>
      <point x="140" y="530" type="curve" smooth="yes"/>
      <point x="96" y="530"/>
      <point x="53" y="521"/>
      <point x="8" y="488" type="curve"/>
      <point x="30" y="473"/>
      <point x="42" y="445"/>
      <point x="49" y="380" type="curve" smooth="yes"/>
      <point x="61" y="282"/>
      <point x="66" y="195"/>
      <point x="72" y="32" type="curve"/>
      <point x="173" y="38" type="line"/>
      <point x="112" y="3"/>
      <point x="66" y="-41"/>
      <point x="66" y="-105" type="curve" smooth="yes"/>
    </contour>
    <contour>
      <point x="318" y="510" type="move" name="top"/>
    </contour>
  </outline>
</glyph>
<glyph name="z" format="1">
  <advance width="487"/>
  <unicode hex="007A"/>
  <outline>
    <contour>
      <point x="61" y="195" type="line"/>
      <point x="19" y="164"/>
      <point x="-10" y="128"/>
      <point x="-10" y="75" type="curve" smooth="yes"/>
      <point x="-10" y="36"/>
      <point x="6" y="15"/>
      <point x="29" y="0" type="curve"/>
      <point x="51" y="5"/>
      <point x="70" y="9"/>
      <point x="96" y="9" type="curve" smooth="yes"/>
      <point x="166" y="9"/>
      <point x="237" y="-22"/>
      <point x="308" y="-22" type="curve" smooth="yes"/>
      <point x="403" y="-22"/>
      <point x="463" y="28"/>
      <point x="463" y="128" type="curve" smooth="yes"/>
      <point x="463" y="167"/>
      <point x="453" y="199"/>
      <point x="430" y="225" type="curve"/>
      <point x="401" y="193"/>
      <point x="351" y="179"/>
      <point x="310" y="179" type="curve" smooth="yes"/>
      <point x="275" y="179"/>
      <point x="237" y="190"/>
      <point x="190" y="205" type="curve"/>
      <point x="422" y="329" type="line" smooth="yes"/>
      <point x="468" y="360"/>
      <point x="504" y="395"/>
      <point x="504" y="448" type="curve" smooth="yes"/>
      <point x="504" y="469"/>
      <point x="499" y="493"/>
      <point x="474" y="516" type="curve"/>
      <point x="459" y="508"/>
      <point x="438" y="505"/>
      <point x="417" y="505" type="curve" smooth="yes"/>
      <point x="355" y="505"/>
      <point x="244" y="530"/>
      <point x="172" y="530" type="curve" smooth="yes"/>
      <point x="94" y="530"/>
      <point x="34" y="500"/>
      <point x="34" y="416" type="curve" smooth="yes"/>
      <point x="34" y="373"/>
      <point x="49" y="323"/>
      <point x="76" y="292" type="curve"/>
      <point x="88" y="325"/>
      <point x="118" y="345"/>
      <point x="175" y="345" type="curve" smooth="yes"/>
      <point x="212" y="345"/>
      <point x="256" y="336"/>
      <point x="299" y="322" type="curve"/>
    </contour>
    <contour>
      <point x="291" y="510" type="move" name="top"/>
    </contour>
    <contour>
      <point x="221" y="0" type="move" name="bottom"/>
    </contour>
  </outline>
</glyph>
<glyph name="braceleft" format="1">
  <advance width="370"/>
  <unicode hex="007B"/>
  <outline>
    <contour>
      <point x="292" y="800"/>
      <point x="226" y="771"/>
      <point x="210" y="688" type="curve" smooth="yes"/>
      <point x="165" y="442" type="line" smooth="yes"/>
      <point x="153" y="377"/>
      <point x="115" y="352"/>
      <point x="43" y="352" type="curve"/>
      <point x="27" y="273" type="line"/>
      <point x="88" y="273"/>
      <point x="118" y="250"/>
      <point x="118" y="209" type="curve" smooth="yes"/>
      <point x="118" y="200"/>
      <point x="116" y="181"/>
      <point x="114" y="169" type="curve" smooth="yes"/>
      <point x="67" y="-73" type="line" smooth="yes"/>
      <point x="64" y="-85"/>
      <point x="62" y="-100"/>
      <point x="62" y="-113" type="curve" smooth="yes"/>
      <point x="62" y="-166"/>
      <point x="106" y="-200"/>
      <point x="217" y="-200" type="curve" smooth="yes"/>
      <point x="245" y="-200"/>
      <point x="283" y="-198"/>
      <point x="333" y="-192" type="curve"/>
      <point x="345" y="-126" type="line"/>
      <point x="312" y="-126" type="line" smooth="yes"/>
      <point x="265" y="-126"/>
      <point x="239" y="-101"/>
      <point x="239" y="-55" type="curve" smooth="yes"/>
      <point x="239" y="-41"/>
      <point x="242" y="-22"/>
      <point x="246" y="-4" type="curve" smooth="yes"/>
      <point x="287" y="203" type="line" smooth="yes"/>
      <point x="289" y="216"/>
      <point x="291" y="233"/>
      <point x="291" y="245" type="curve" smooth="yes"/>
      <point x="291" y="296"/>
      <point x="261" y="309"/>
      <point x="194" y="318" type="curve"/>
      <point x="277" y="328"/>
      <point x="314" y="350"/>
      <point x="326" y="413" type="curve" smooth="yes"/>
      <point x="368" y="644" type="line" smooth="yes"/>
      <point x="379" y="704"/>
      <point x="413" y="727"/>
      <point x="472" y="727" type="curve" smooth="yes"/>
      <point x="505" y="727" type="line"/>
      <point x="518" y="792" type="line"/>
      <point x="479" y="798"/>
      <point x="435" y="800"/>
      <point x="406" y="800" type="curve" smooth="yes"/>
    </contour>
  </outline>
</glyph>
<glyph name="bar" format="1">
  <advance width="266"/>
  <unicode hex="007C"/>
  <outline>
    <contour>
      <point x="161" y="800" type="line"/>
      <point x="-36" y="-200" type="line"/>
      <point x="129" y="-200" type="line"/>
      <point x="321" y="800" type="line"/>
    </contour>
  </outline>
</glyph>
<glyph name="braceright" format="1">
  <advance width="355"/>
  <unicode hex="007D"/>
  <outline>
    <contour>
      <point x="-123" y="-127" type="line"/>
      <point x="-135" y="-192" type="line"/>
      <point x="-96" y="-198"/>
      <point x="-52" y="-200"/>
      <point x="-23" y="-200" type="curve" smooth="yes"/>
      <point x="91" y="-200"/>
      <point x="157" y="-171"/>
      <point x="172" y="-88" type="curve" smooth="yes"/>
      <point x="225" y="184" type="line" smooth="yes"/>
      <point x="237" y="249"/>
      <point x="276" y="274"/>
      <point x="347" y="274" type="curve"/>
      <point x="363" y="353" type="line"/>
      <point x="304" y="353"/>
      <point x="274" y="373"/>
      <point x="273" y="417" type="curve" smooth="yes"/>
      <point x="273" y="429"/>
      <point x="275" y="445"/>
      <point x="277" y="456" type="curve" smooth="yes"/>
      <point x="310" y="654"/>
      <point x="315" y="672"/>
      <point x="315" y="700" type="curve" smooth="yes"/>
      <point x="315" y="778"/>
      <point x="248" y="800"/>
      <point x="164" y="800" type="curve" smooth="yes"/>
      <point x="138" y="800"/>
      <point x="100" y="798"/>
      <point x="50" y="792" type="curve"/>
      <point x="37" y="726" type="line"/>
      <point x="70" y="726" type="line" smooth="yes"/>
      <point x="117" y="726"/>
      <point x="144" y="704"/>
      <point x="144" y="650" type="curve" smooth="yes"/>
      <point x="144" y="644"/>
      <point x="144" y="637"/>
      <point x="140" y="619" type="curve" smooth="yes"/>
      <point x="104" y="423" type="line" smooth="yes"/>
      <point x="101" y="411"/>
      <point x="100" y="391"/>
      <point x="100" y="380" type="curve" smooth="yes"/>
      <point x="100" y="333"/>
      <point x="126" y="317"/>
      <point x="196" y="307" type="curve"/>
      <point x="113" y="298"/>
      <point x="76" y="276"/>
      <point x="64" y="213" type="curve" smooth="yes"/>
      <point x="15" y="-44" type="line" smooth="yes"/>
      <point x="3" y="-104"/>
      <point x="-31" y="-127"/>
      <point x="-89" y="-127" type="curve" smooth="yes"/>
    </contour>
  </outline>
</glyph>
<glyph name="asciitilde" format="1">
  <advance width="576"/>
  <unicode hex="007E"/>
  <outline>
    <contour>
      <point x="472" y="274"/>
      <point x="439" y="263"/>
      <point x="405" y="263" type="curve" smooth="yes"/>
      <point x="341" y="263"/>
      <point x="255" y="300"/>
      <point x="174" y="300" type="curve" smooth="yes"/>
      <point x="101" y="300"/>
      <point x="58" y="269"/>
      <point x="58" y="226" type="curve" smooth="yes"/>
      <point x="58" y="208"/>
      <point x="65" y="189"/>
      <point x="81" y="169" type="curve"/>
      <point x="95" y="187"/>
      <point x="128" y="198"/>
      <point x="162" y="198" type="curve" smooth="yes"/>
      <point x="225" y="198"/>
      <point x="312" y="161"/>
      <point x="393" y="161" type="curve" smooth="yes"/>
      <point x="466" y="161"/>
      <point x="509" y="192"/>
      <point x="509" y="235" type="curve" smooth="yes"/>
      <point x="509" y="253"/>
      <point x="502" y="272"/>
      <point x="486" y="292" type="curve"/>
    </contour>
  </outline>
</glyph>
<glyph name="exclamdown" format="1">
  <advance width="378"/>
  <unicode hex="00A1"/>
  <outline>
    <contour>
      <point x="282" y="249" type="line"/>
      <point x="283" y="258"/>
      <point x="283" y="247"/>
      <point x="283" y="252" type="curve" smooth="yes"/>
      <point x="283" y="298"/>
      <point x="248" y="329"/>
      <point x="189" y="329" type="curve" smooth="yes"/>
      <point x="161" y="329"/>
      <point x="133" y="322"/>
      <point x="115" y="300" type="curve"/>
      <point x="112" y="163"/>
      <point x="4" y="59"/>
      <point x="4" y="-56" type="curve" smooth="yes"/>
      <point x="4" y="-127"/>
      <point x="43" y="-171"/>
      <point x="117" y="-171" type="curve" smooth="yes"/>
      <point x="146" y="-171"/>
      <point x="179" y="-165"/>
      <point x="204" y="-155" type="curve"/>
    </contour>
    <component base="period" xOffset="166" yOffset="382"/>
  </outline>
</glyph>
<glyph name="cent" format="1">
  <advance width="576"/>
  <unicode hex="00A2"/>
  <outline>
    <contour>
      <point x="472" y="682" type="line"/>
      <point x="459" y="685"/>
      <point x="443" y="687"/>
      <point x="427" y="687" type="curve" smooth="yes"/>
      <point x="380" y="687"/>
      <point x="364" y="669"/>
      <point x="352" y="607" type="curve" smooth="yes"/>
      <point x="349" y="590" type="line"/>
      <point x="169" y="567"/>
      <point x="58" y="456"/>
      <point x="58" y="273" type="curve" smooth="yes"/>
      <point x="58" y="135"/>
      <point x="120" y="64"/>
      <point x="242" y="47" type="curve"/>
      <point x="224" y="-44" type="line"/>
      <point x="236" y="-47"/>
      <point x="254" y="-49"/>
      <point x="271" y="-49" type="curve" smooth="yes"/>
      <point x="317" y="-49"/>
      <point x="335" y="-31"/>
      <point x="347" y="31" type="curve" smooth="yes"/>
      <point x="350" y="48" type="line"/>
      <point x="424" y="61"/>
      <point x="525" y="106"/>
      <point x="525" y="199" type="curve" smooth="yes"/>
      <point x="525" y="230"/>
      <point x="513" y="246"/>
      <point x="485" y="263" type="curve"/>
      <point x="463" y="216"/>
      <point x="404" y="191"/>
      <point x="355" y="191" type="curve" smooth="yes"/>
      <point x="303" y="191"/>
      <point x="285" y="219"/>
      <point x="285" y="268" type="curve" smooth="yes"/>
      <point x="285" y="346"/>
      <point x="329" y="535"/>
      <point x="400" y="535" type="curve" smooth="yes"/>
      <point x="420" y="535"/>
      <point x="420" y="518"/>
      <point x="420" y="498" type="curve" smooth="yes"/>
      <point x="420" y="465"/>
      <point x="411" y="414"/>
      <point x="400" y="383" type="curve"/>
      <point x="413" y="378"/>
      <point x="435" y="378"/>
      <point x="446" y="378" type="curve" smooth="yes"/>
      <point x="518" y="378"/>
      <point x="584" y="406"/>
      <point x="584" y="484" type="curve" smooth="yes"/>
      <point x="584" y="556"/>
      <point x="525" y="586"/>
      <point x="454" y="592" type="curve"/>
    </contour>
  </outline>
</glyph>
<glyph name="sterling" format="1">
  <advance width="576"/>
  <unicode hex="00A3"/>
  <outline>
    <contour>
      <point x="437" y="591"/>
      <point x="445" y="567"/>
      <point x="445" y="538" type="curve" smooth="yes"/>
      <point x="445" y="503"/>
      <point x="431" y="446"/>
      <point x="424" y="432" type="curve"/>
      <point x="444" y="427"/>
      <point x="466" y="423"/>
      <point x="487" y="423" type="curve" smooth="yes"/>
      <point x="555" y="423"/>
      <point x="623" y="469"/>
      <point x="623" y="539" type="curve" smooth="yes"/>
      <point x="623" y="644"/>
      <point x="496" y="660"/>
      <point x="409" y="660" type="curve" smooth="yes"/>
      <point x="254" y="660"/>
      <point x="140" y="578"/>
      <point x="122" y="470" type="curve" smooth="yes"/>
      <point x="109" y="400" type="line"/>
      <point x="98" y="400" type="line" smooth="yes"/>
      <point x="56" y="400"/>
      <point x="27" y="381"/>
      <point x="27" y="348" type="curve" smooth="yes"/>
      <point x="27" y="342"/>
      <point x="28" y="330"/>
      <point x="33" y="319" type="curve"/>
      <point x="94" y="319" type="line"/>
      <point x="79" y="266" type="line" smooth="yes"/>
      <point x="63" y="210"/>
      <point x="41" y="154"/>
      <point x="0" y="124" type="curve" smooth="yes"/>
      <point x="-19" y="110"/>
      <point x="-28" y="88"/>
      <point x="-28" y="60" type="curve" smooth="yes"/>
      <point x="-28" y="35"/>
      <point x="-21" y="15"/>
      <point x="0" y="0" type="curve"/>
      <point x="14" y="9"/>
      <point x="68" y="11"/>
      <point x="84" y="11" type="curve" smooth="yes"/>
      <point x="141" y="11"/>
      <point x="277" y="-12"/>
      <point x="353" y="-12" type="curve" smooth="yes"/>
      <point x="456" y="-12"/>
      <point x="522" y="64"/>
      <point x="522" y="139" type="curve" smooth="yes"/>
      <point x="522" y="161"/>
      <point x="515" y="181"/>
      <point x="500" y="193" type="curve"/>
      <point x="474" y="174"/>
      <point x="451" y="165"/>
      <point x="396" y="165" type="curve" smooth="yes"/>
      <point x="362" y="165"/>
      <point x="279" y="167"/>
      <point x="218" y="171" type="curve"/>
      <point x="278" y="192"/>
      <point x="302" y="217"/>
      <point x="328" y="300" type="curve" smooth="yes"/>
      <point x="334" y="319" type="line"/>
      <point x="377" y="319" type="line" smooth="yes"/>
      <point x="434" y="319"/>
      <point x="458" y="341"/>
      <point x="458" y="369" type="curve" smooth="yes"/>
      <point x="458" y="378"/>
      <point x="456" y="389"/>
      <point x="452" y="400" type="curve"/>
      <point x="348" y="400" type="line"/>
      <point x="358" y="463" type="line" smooth="yes"/>
      <point x="370" y="564"/>
      <point x="397" y="591"/>
      <point x="413" y="591" type="curve" smooth="yes"/>
    </contour>
  </outline>
</glyph>
<glyph name="currency" format="1">
  <advance width="576"/>
  <unicode hex="00A4"/>
  <outline>
    <contour>
      <point x="183" y="524"/>
      <point x="86" y="446"/>
      <point x="86" y="310" type="curve" smooth="yes"/>
      <point x="86" y="186"/>
      <point x="148" y="147"/>
      <point x="285" y="147" type="curve" smooth="yes"/>
      <point x="424" y="147"/>
      <point x="525" y="206"/>
      <point x="525" y="356" type="curve" smooth="yes"/>
      <point x="525" y="482"/>
      <point x="450" y="524"/>
      <point x="321" y="524" type="curve" smooth="yes"/>
    </contour>
    <contour>
      <point x="56" y="161" type="line"/>
      <point x="122" y="95" type="line"/>
      <point x="209" y="181" type="line"/>
      <point x="147" y="243" type="line"/>
    </contour>
    <contour>
      <point x="339" y="413"/>
      <point x="362" y="388"/>
      <point x="362" y="340" type="curve" smooth="yes"/>
      <point x="362" y="295"/>
      <point x="342" y="257"/>
      <point x="298" y="257" type="curve" smooth="yes"/>
      <point x="264" y="257"/>
      <point x="249" y="282"/>
      <point x="249" y="324" type="curve" smooth="yes"/>
      <point x="249" y="377"/>
      <point x="274" y="413"/>
      <point x="309" y="413" type="curve" smooth="yes"/>
    </contour>
    <contour>
      <point x="73" y="504" type="line"/>
      <point x="168" y="420" type="line"/>
      <point x="230" y="479" type="line"/>
      <point x="128" y="579" type="line"/>
    </contour>
    <contour>
      <point x="393" y="197" type="line"/>
      <point x="490" y="101" type="line"/>
      <point x="550" y="172" type="line"/>
      <point x="452" y="260" type="line"/>
    </contour>
    <contour>
      <point x="393" y="491" type="line"/>
      <point x="459" y="432" type="line"/>
      <point x="551" y="516" type="line"/>
      <point x="486" y="582" type="line"/>
    </contour>
  </outline>
</glyph>
<glyph name="yen" format="1">
  <advance width="576"/>
  <unicode hex="00A5"/>
  <outline>
    <contour>
      <point x="381" y="132" type="line"/>
      <point x="422" y="132" type="line" smooth="yes"/>
      <point x="475" y="132"/>
      <point x="497" y="155"/>
      <point x="497" y="182" type="curve" smooth="yes"/>
      <point x="497" y="191"/>
      <point x="495" y="201"/>
      <point x="491" y="212" type="curve"/>
      <point x="397" y="212" type="line"/>
      <point x="408" y="264" type="line"/>
      <point x="448" y="264" type="line" smooth="yes"/>
      <point x="501" y="264"/>
      <point x="523" y="287"/>
      <point x="523" y="314" type="curve" smooth="yes"/>
      <point x="523" y="323"/>
      <point x="521" y="334"/>
      <point x="517" y="345" type="curve"/>
      <point x="448" y="345" type="line"/>
      <point x="515" y="488"/>
      <point x="618" y="595"/>
      <point x="709" y="620" type="curve"/>
      <point x="699" y="660"/>
      <point x="670" y="680"/>
      <point x="620" y="680" type="curve" smooth="yes"/>
      <point x="501" y="680"/>
      <point x="421" y="574"/>
      <point x="343" y="320" type="curve"/>
      <point x="365" y="592"/>
      <point x="306" y="680"/>
      <point x="172" y="680" type="curve" smooth="yes"/>
      <point x="110" y="680"/>
      <point x="56" y="660"/>
      <point x="14" y="621" type="curve"/>
      <point x="88" y="586"/>
      <point x="113" y="540"/>
      <point x="135" y="345" type="curve"/>
      <point x="130" y="345" type="line" smooth="yes"/>
      <point x="88" y="345"/>
      <point x="59" y="326"/>
      <point x="59" y="294" type="curve" smooth="yes"/>
      <point x="59" y="288"/>
      <point x="60" y="276"/>
      <point x="65" y="264" type="curve"/>
      <point x="141" y="264" type="line"/>
      <point x="130" y="212" type="line"/>
      <point x="104" y="212" type="line" smooth="yes"/>
      <point x="62" y="212"/>
      <point x="33" y="194"/>
      <point x="33" y="161" type="curve" smooth="yes"/>
      <point x="33" y="155"/>
      <point x="34" y="143"/>
      <point x="39" y="132" type="curve"/>
      <point x="114" y="132" type="line"/>
      <point x="88" y="0" type="line"/>
      <point x="355" y="0" type="line"/>
    </contour>
  </outline>
</glyph>
<glyph name="brokenbar" format="1">
  <advance width="266"/>
  <unicode hex="00A6"/>
  <outline>
    <contour>
      <point x="243" y="388" type="line"/>
      <point x="294" y="660" type="line"/>
      <point x="134" y="660" type="line"/>
      <point x="80" y="388" type="line"/>
    </contour>
    <contour>
      <point x="168" y="0" type="line"/>
      <point x="220" y="272" type="line"/>
      <point x="57" y="272" type="line"/>
      <point x="3" y="0" type="line"/>
    </contour>
  </outline>
</glyph>
<glyph name="section" format="1">
  <advance width="470"/>
  <unicode hex="00A7"/>
  <outline>
    <contour>
      <point x="199" y="680"/>
      <point x="100" y="603"/>
      <point x="100" y="465" type="curve" smooth="yes"/>
      <point x="100" y="406"/>
      <point x="119" y="389"/>
      <point x="167" y="349" type="curve"/>
      <point x="73" y="312"/>
      <point x="19" y="239"/>
      <point x="19" y="162" type="curve" smooth="yes"/>
      <point x="19" y="23"/>
      <point x="196" y="19"/>
      <point x="196" y="-57" type="curve" smooth="yes"/>
      <point x="196" y="-82"/>
      <point x="178" y="-128"/>
      <point x="143" y="-128" type="curve" smooth="yes"/>
      <point x="118" y="-128"/>
      <point x="105" y="-105"/>
      <point x="105" y="-66" type="curve" smooth="yes"/>
      <point x="105" y="-43"/>
      <point x="109" y="-12"/>
      <point x="119" y="9" type="curve"/>
      <point x="106" y="17"/>
      <point x="93" y="20"/>
      <point x="75" y="20" type="curve" smooth="yes"/>
      <point x="10" y="20"/>
      <point x="-22" y="-19"/>
      <point x="-22" y="-74" type="curve" smooth="yes"/>
      <point x="-22" y="-156"/>
      <point x="50" y="-180"/>
      <point x="127" y="-180" type="curve" smooth="yes"/>
      <point x="268" y="-180"/>
      <point x="361" y="-93"/>
      <point x="361" y="47" type="curve" smooth="yes"/>
      <point x="361" y="106"/>
      <point x="345" y="109"/>
      <point x="292" y="153" type="curve"/>
      <point x="384" y="189"/>
      <point x="442" y="285"/>
      <point x="442" y="351" type="curve" smooth="yes"/>
      <point x="442" y="468"/>
      <point x="267" y="485"/>
      <point x="267" y="554" type="curve" smooth="yes"/>
      <point x="267" y="577"/>
      <point x="289" y="628"/>
      <point x="323" y="628" type="curve" smooth="yes"/>
      <point x="351" y="628"/>
      <point x="358" y="595"/>
      <point x="358" y="566" type="curve" smooth="yes"/>
      <point x="358" y="540"/>
      <point x="352" y="513"/>
      <point x="342" y="490" type="curve"/>
      <point x="357" y="481"/>
      <point x="372" y="479"/>
      <point x="387" y="479" type="curve" smooth="yes"/>
      <point x="450" y="479"/>
      <point x="483" y="518"/>
      <point x="483" y="575" type="curve" smooth="yes"/>
      <point x="483" y="655"/>
      <point x="412" y="680"/>
      <point x="335" y="680" type="curve" smooth="yes"/>
    </contour>
    <contour>
      <point x="264" y="280"/>
      <point x="280" y="251"/>
      <point x="280" y="232" type="curve" smooth="yes"/>
      <point x="280" y="215"/>
      <point x="269" y="197"/>
      <point x="245" y="185" type="curve"/>
      <point x="198" y="217"/>
      <point x="176" y="245"/>
      <point x="176" y="263" type="curve" smooth="yes"/>
      <point x="176" y="281"/>
      <point x="192" y="298"/>
      <point x="217" y="313" type="curve"/>
    </contour>
  </outline>
</glyph>
<glyph name="dieresis" format="1">
  <advance width="469"/>
  <unicode hex="00A8"/>
  <outline>
    <component base="dotaccent" xOffset="261"/>
    <component base="dotaccent"/>
    <contour>
      <point x="300" y="510" type="move" name="_top"/>
    </contour>
  </outline>
</glyph>
<glyph name="copyright" format="1">
  <advance width="788"/>
  <unicode hex="00A9"/>
  <outline>
    <contour>
      <point x="33" y="12"/>
      <point x="130" y="-76"/>
      <point x="305" y="-76" type="curve" smooth="yes"/>
      <point x="593" y="-76"/>
      <point x="755" y="114"/>
      <point x="755" y="345" type="curve" smooth="yes"/>
      <point x="755" y="516"/>
      <point x="650" y="614"/>
      <point x="479" y="614" type="curve" smooth="yes"/>
      <point x="201" y="614"/>
      <point x="33" y="409"/>
      <point x="33" y="174" type="curve" smooth="yes"/>
    </contour>
    <contour>
      <point x="140" y="399"/>
      <point x="255" y="538"/>
      <point x="441" y="538" type="curve" smooth="yes"/>
      <point x="573" y="538"/>
      <point x="648" y="462"/>
      <point x="648" y="315" type="curve" smooth="yes"/>
      <point x="648" y="148"/>
      <point x="553" y="-3"/>
      <point x="337" y="-3" type="curve" smooth="yes"/>
      <point x="199" y="-3"/>
      <point x="140" y="59"/>
      <point x="140" y="199" type="curve" smooth="yes"/>
    </contour>
    <contour>
      <point x="449" y="427"/>
      <point x="455" y="419"/>
      <point x="455" y="397" type="curve" smooth="yes"/>
      <point x="455" y="375"/>
      <point x="448" y="337"/>
      <point x="441" y="321" type="curve"/>
      <point x="446" y="319"/>
      <point x="451" y="318"/>
      <point x="460" y="318" type="curve" smooth="yes"/>
      <point x="521" y="318"/>
      <point x="559" y="344"/>
      <point x="559" y="393" type="curve" smooth="yes"/>
      <point x="559" y="437"/>
      <point x="527" y="469"/>
      <point x="447" y="469" type="curve" smooth="yes"/>
      <point x="313" y="469"/>
      <point x="223" y="387"/>
      <point x="223" y="237" type="curve" smooth="yes"/>
      <point x="223" y="130"/>
      <point x="268" y="75"/>
      <point x="366" y="75" type="curve" smooth="yes"/>
      <point x="441" y="75"/>
      <point x="507" y="108"/>
      <point x="507" y="172" type="curve" smooth="yes"/>
      <point x="507" y="193"/>
      <point x="501" y="219"/>
      <point x="482" y="230" type="curve"/>
      <point x="466" y="197"/>
      <point x="441" y="180"/>
      <point x="409" y="180" type="curve" smooth="yes"/>
      <point x="380" y="180"/>
      <point x="362" y="194"/>
      <point x="362" y="239" type="curve" smooth="yes"/>
      <point x="362" y="328"/>
      <point x="389" y="427"/>
      <point x="435" y="427" type="curve" smooth="yes"/>
    </contour>
  </outline>
</glyph>
<glyph name="ordfeminine" format="1">
  <advance width="461"/>
  <unicode hex="00AA"/>
  <outline>
    <contour>
      <point x="359" y="660" type="line"/>
      <point x="342" y="669"/>
      <point x="319" y="674"/>
      <point x="289" y="674" type="curve" smooth="yes"/>
      <point x="165" y="674"/>
      <point x="66" y="593"/>
      <point x="66" y="450" type="curve" smooth="yes"/>
      <point x="66" y="349"/>
      <point x="115" y="280"/>
      <point x="204" y="280" type="curve" smooth="yes"/>
      <point x="253" y="280"/>
      <point x="286" y="300"/>
      <point x="303" y="320" type="curve"/>
      <point x="314" y="297"/>
      <point x="345" y="280"/>
      <point x="381" y="280" type="curve" smooth="yes"/>
      <point x="428" y="280"/>
      <point x="477" y="311"/>
      <point x="487" y="342" type="curve"/>
      <point x="468" y="342"/>
      <point x="453" y="369"/>
      <point x="453" y="394" type="curve" smooth="yes"/>
      <point x="453" y="404"/>
      <point x="455" y="414"/>
      <point x="457" y="422" type="curve" smooth="yes"/>
      <point x="505" y="677" type="line"/>
    </contour>
    <contour>
      <point x="112" y="238" type="line" smooth="yes"/>
      <point x="80" y="238"/>
      <point x="56" y="215"/>
      <point x="56" y="180" type="curve" smooth="yes"/>
      <point x="56" y="173"/>
      <point x="57" y="165"/>
      <point x="59" y="156" type="curve"/>
      <point x="365" y="156" type="line" smooth="yes"/>
      <point x="407" y="156"/>
      <point x="426" y="180"/>
      <point x="426" y="213" type="curve" smooth="yes"/>
      <point x="426" y="220"/>
      <point x="425" y="230"/>
      <point x="423" y="238" type="curve"/>
    </contour>
    <contour>
      <point x="316" y="650"/>
      <point x="329" y="648"/>
      <point x="337" y="640" type="curve"/>
      <point x="296" y="399" type="line" smooth="yes"/>
      <point x="290" y="363"/>
      <point x="279" y="314"/>
      <point x="247" y="314" type="curve" smooth="yes"/>
      <point x="227" y="314"/>
      <point x="223" y="340"/>
      <point x="223" y="372" type="curve" smooth="yes"/>
      <point x="223" y="396"/>
      <point x="226" y="422"/>
      <point x="227" y="441" type="curve" smooth="yes"/>
      <point x="250" y="621"/>
      <point x="277" y="650"/>
      <point x="308" y="650" type="curve" smooth="yes"/>
    </contour>
  </outline>
</glyph>
<glyph name="guillemotleft" format="1">
  <advance width="548"/>
  <unicode hex="00AB"/>
  <outline>
    <contour>
      <point x="17" y="317" type="line"/>
      <point x="116" y="126" type="line"/>
      <point x="243" y="126" type="line"/>
      <point x="196" y="317" type="line"/>
      <point x="320" y="510" type="line"/>
      <point x="189" y="510" type="line"/>
    </contour>
    <contour>
      <point x="261" y="317" type="line"/>
      <point x="360" y="126" type="line"/>
      <point x="487" y="126" type="line"/>
      <point x="440" y="317" type="line"/>
      <point x="564" y="510" type="line"/>
      <point x="433" y="510" type="line"/>
    </contour>
  </outline>
</glyph>
<glyph name="logicalnot" format="1">
  <advance width="576"/>
  <unicode hex="00AC"/>
  <outline>
    <contour>
      <point x="527" y="296" type="line"/>
      <point x="126" y="296" type="line" smooth="yes"/>
      <point x="81" y="296"/>
      <point x="47" y="264"/>
      <point x="47" y="215" type="curve" smooth="yes"/>
      <point x="47" y="207"/>
      <point x="48" y="197"/>
      <point x="52" y="187" type="curve"/>
      <point x="378" y="187" type="line"/>
      <point x="361" y="96" type="line" smooth="yes"/>
      <point x="358" y="78"/>
      <point x="356" y="65"/>
      <point x="356" y="52" type="curve" smooth="yes"/>
      <point x="356" y="11"/>
      <point x="374" y="-3"/>
      <point x="422" y="-3" type="curve" smooth="yes"/>
      <point x="438" y="-3"/>
      <point x="465" y="-1"/>
      <point x="471" y="1" type="curve"/>
    </contour>
  </outline>
</glyph>
<glyph name="uni00AD" format="1">
  <advance width="344"/>
  <unicode hex="00AD"/>
  <outline>
    <contour>
      <point x="72" y="299" type="line" smooth="yes"/>
      <point x="30" y="299"/>
      <point x="12" y="268"/>
      <point x="12" y="232" type="curve" smooth="yes"/>
      <point x="12" y="200"/>
      <point x="26" y="168"/>
      <point x="56" y="150" type="curve"/>
      <point x="66" y="171"/>
      <point x="67" y="183"/>
      <point x="103" y="183" type="curve" smooth="yes"/>
      <point x="263" y="183" type="line" smooth="yes"/>
      <point x="304" y="183"/>
      <point x="331" y="211"/>
      <point x="331" y="251" type="curve" smooth="yes"/>
      <point x="331" y="278"/>
      <point x="320" y="313"/>
      <point x="291" y="325" type="curve"/>
      <point x="286" y="307"/>
      <point x="278" y="299"/>
      <point x="253" y="299" type="curve" smooth="yes"/>
    </contour>
  </outline>
</glyph>
<glyph name="registered" format="1">
  <advance width="758"/>
  <unicode hex="00AE"/>
  <outline>
    <contour>
      <point x="201" y="679"/>
      <point x="33" y="474"/>
      <point x="33" y="239" type="curve" smooth="yes"/>
      <point x="33" y="77"/>
      <point x="130" y="-11"/>
      <point x="305" y="-11" type="curve" smooth="yes"/>
      <point x="593" y="-11"/>
      <point x="755" y="179"/>
      <point x="755" y="410" type="curve" smooth="yes"/>
      <point x="755" y="581"/>
      <point x="650" y="679"/>
      <point x="479" y="679" type="curve" smooth="yes"/>
    </contour>
    <contour>
      <point x="574" y="603"/>
      <point x="651" y="525"/>
      <point x="651" y="379" type="curve" smooth="yes"/>
      <point x="651" y="213"/>
      <point x="554" y="62"/>
      <point x="337" y="62" type="curve" smooth="yes"/>
      <point x="198" y="62"/>
      <point x="137" y="125"/>
      <point x="137" y="264" type="curve" smooth="yes"/>
      <point x="137" y="463"/>
      <point x="265" y="603"/>
      <point x="443" y="603" type="curve" smooth="yes"/>
    </contour>
    <contour>
      <point x="404" y="529"/>
      <point x="328" y="526"/>
      <point x="292" y="523" type="curve"/>
      <point x="223" y="151" type="line"/>
      <point x="341" y="151" type="line"/>
      <point x="400" y="488" type="line"/>
      <point x="417" y="488"/>
      <point x="417" y="489"/>
      <point x="424" y="489" type="curve" smooth="yes"/>
      <point x="452" y="489"/>
      <point x="469" y="473"/>
      <point x="469" y="433" type="curve" smooth="yes"/>
      <point x="469" y="381"/>
      <point x="441" y="347"/>
      <point x="389" y="347" type="curve" smooth="yes"/>
      <point x="384" y="347" type="line"/>
      <point x="393" y="176"/>
      <point x="423" y="142"/>
      <point x="470" y="142" type="curve" smooth="yes"/>
      <point x="511" y="142"/>
      <point x="542" y="167"/>
      <point x="550" y="216" type="curve"/>
      <point x="513" y="225"/>
      <point x="487" y="263"/>
      <point x="483" y="321" type="curve"/>
      <point x="541" y="336"/>
      <point x="581" y="378"/>
      <point x="581" y="439" type="curve" smooth="yes"/>
      <point x="581" y="495"/>
      <point x="552" y="529"/>
      <point x="437" y="529" type="curve" smooth="yes"/>
    </contour>
  </outline>
</glyph>
<glyph name="macron" format="1">
  <advance width="357"/>
  <unicode hex="00AF"/>
  <outline>
    <contour>
      <point x="171" y="712" type="line" smooth="yes"/>
      <point x="131" y="712"/>
      <point x="101" y="684"/>
      <point x="100" y="644" type="curve" smooth="yes"/>
      <point x="100" y="636"/>
      <point x="100" y="625"/>
      <point x="103" y="616" type="curve"/>
      <point x="348" y="616" type="line" smooth="yes"/>
      <point x="402" y="616"/>
      <point x="428" y="646"/>
      <point x="428" y="682" type="curve" smooth="yes"/>
      <point x="428" y="694"/>
      <point x="426" y="704"/>
      <point x="424" y="712" type="curve"/>
    </contour>
    <contour>
      <point x="230" y="510" type="move" name="_top"/>
    </contour>
  </outline>
</glyph>
<glyph name="degree" format="1">
  <advance width="354"/>
  <unicode hex="00B0"/>
  <outline>
    <contour>
      <point x="297" y="370"/>
      <point x="396" y="437"/>
      <point x="396" y="555" type="curve" smooth="yes"/>
      <point x="396" y="642"/>
      <point x="344" y="684"/>
      <point x="262" y="684" type="curve" smooth="yes"/>
      <point x="161" y="684"/>
      <point x="58" y="618"/>
      <point x="58" y="498" type="curve" smooth="yes"/>
      <point x="58" y="412"/>
      <point x="112" y="370"/>
      <point x="193" y="370" type="curve" smooth="yes"/>
    </contour>
    <contour>
      <point x="172" y="433"/>
      <point x="168" y="472"/>
      <point x="168" y="494" type="curve" smooth="yes"/>
      <point x="168" y="550"/>
      <point x="197" y="616"/>
      <point x="246" y="616" type="curve" smooth="yes"/>
      <point x="278" y="616"/>
      <point x="290" y="587"/>
      <point x="290" y="552" type="curve" smooth="yes"/>
      <point x="290" y="491"/>
      <point x="253" y="433"/>
      <point x="209" y="433" type="curve" smooth="yes"/>
    </contour>
  </outline>
</glyph>
<glyph name="plusminus" format="1">
  <advance width="576"/>
  <unicode hex="00B1"/>
  <outline>
    <contour>
      <point x="252" y="352" type="line"/>
      <point x="179" y="352" type="line" smooth="yes"/>
      <point x="132" y="352"/>
      <point x="100" y="319"/>
      <point x="100" y="272" type="curve" smooth="yes"/>
      <point x="100" y="264"/>
      <point x="101" y="259"/>
      <point x="104" y="248" type="curve"/>
      <point x="233" y="248" type="line"/>
      <point x="209" y="125" type="line"/>
      <point x="225" y="120"/>
      <point x="243" y="118"/>
      <point x="257" y="118" type="curve" smooth="yes"/>
      <point x="304" y="118"/>
      <point x="330" y="142"/>
      <point x="338" y="183" type="curve" smooth="yes"/>
      <point x="351" y="248" type="line"/>
      <point x="413" y="248" type="line" smooth="yes"/>
      <point x="469" y="248"/>
      <point x="498" y="274"/>
      <point x="498" y="319" type="curve" smooth="yes"/>
      <point x="498" y="331"/>
      <point x="496" y="339"/>
      <point x="493" y="352" type="curve"/>
      <point x="372" y="352" type="line"/>
      <point x="391" y="459" type="line"/>
      <point x="377" y="464"/>
      <point x="362" y="466"/>
      <point x="350" y="466" type="curve" smooth="yes"/>
      <point x="297" y="466"/>
      <point x="267" y="432"/>
      <point x="260" y="394" type="curve" smooth="yes"/>
    </contour>
    <contour>
      <point x="122" y="92" type="line" smooth="yes"/>
      <point x="75" y="92"/>
      <point x="48" y="67"/>
      <point x="48" y="23" type="curve" smooth="yes"/>
      <point x="48" y="15"/>
      <point x="49" y="6"/>
      <point x="52" y="-6" type="curve"/>
      <point x="378" y="-6" type="line" smooth="yes"/>
      <point x="432" y="-6"/>
      <point x="462" y="17"/>
      <point x="462" y="59" type="curve" smooth="yes"/>
      <point x="462" y="70"/>
      <point x="459" y="81"/>
      <point x="456" y="92" type="curve"/>
    </contour>
  </outline>
</glyph>
<glyph name="uni00B2" format="1">
  <advance width="338"/>
  <unicode hex="00B2"/>
  <outline>
    <contour>
      <point x="177" y="680"/>
      <point x="96" y="649"/>
      <point x="96" y="592" type="curve" smooth="yes"/>
      <point x="96" y="565"/>
      <point x="114" y="543"/>
      <point x="134" y="544" type="curve"/>
      <point x="144" y="571"/>
      <point x="177" y="592"/>
      <point x="213" y="592" type="curve" smooth="yes"/>
      <point x="233" y="592"/>
      <point x="250" y="586"/>
      <point x="250" y="557" type="curve" smooth="yes"/>
      <point x="250" y="539"/>
      <point x="233" y="520"/>
      <point x="205" y="500" type="curve" smooth="yes"/>
      <point x="80" y="403"/>
      <point x="67" y="398"/>
      <point x="67" y="354" type="curve" smooth="yes"/>
      <point x="67" y="328"/>
      <point x="76" y="302"/>
      <point x="88" y="292" type="curve"/>
      <point x="91" y="298"/>
      <point x="98" y="302"/>
      <point x="115" y="302" type="curve" smooth="yes"/>
      <point x="144" y="302"/>
      <point x="178" y="286"/>
      <point x="237" y="286" type="curve" smooth="yes"/>
      <point x="318" y="286"/>
      <point x="350" y="317"/>
      <point x="350" y="367" type="curve" smooth="yes"/>
      <point x="350" y="383"/>
      <point x="347" y="397"/>
      <point x="332" y="418" type="curve"/>
      <point x="318" y="402"/>
      <point x="296" y="399"/>
      <point x="271" y="399" type="curve" smooth="yes"/>
      <point x="245" y="399"/>
      <point x="203" y="402"/>
      <point x="170" y="407" type="curve"/>
      <point x="199" y="420"/>
      <point x="263" y="458"/>
      <point x="293" y="479" type="curve" smooth="yes"/>
      <point x="339" y="510"/>
      <point x="365" y="543"/>
      <point x="365" y="586" type="curve" smooth="yes"/>
      <point x="365" y="657"/>
      <point x="301" y="680"/>
      <point x="244" y="680" type="curve" smooth="yes"/>
    </contour>
  </outline>
</glyph>
<glyph name="uni00B3" format="1">
  <advance width="310"/>
  <unicode hex="00B3"/>
  <outline>
    <contour>
      <point x="134" y="457" type="line"/>
      <point x="179" y="457"/>
      <point x="194" y="434"/>
      <point x="194" y="409" type="curve" smooth="yes"/>
      <point x="194" y="376"/>
      <point x="169" y="358"/>
      <point x="134" y="358" type="curve" smooth="yes"/>
      <point x="106" y="358"/>
      <point x="78" y="367"/>
      <point x="66" y="395" type="curve"/>
      <point x="55" y="385"/>
      <point x="42" y="364"/>
      <point x="42" y="341" type="curve" smooth="yes"/>
      <point x="42" y="305"/>
      <point x="72" y="281"/>
      <point x="146" y="281" type="curve" smooth="yes"/>
      <point x="259" y="281"/>
      <point x="319" y="338"/>
      <point x="319" y="406" type="curve" smooth="yes"/>
      <point x="319" y="451"/>
      <point x="294" y="486"/>
      <point x="250" y="500" type="curve"/>
      <point x="310" y="525"/>
      <point x="339" y="563"/>
      <point x="339" y="605" type="curve" smooth="yes"/>
      <point x="339" y="656"/>
      <point x="292" y="681"/>
      <point x="234" y="681" type="curve" smooth="yes"/>
      <point x="180" y="681"/>
      <point x="92" y="658"/>
      <point x="92" y="594" type="curve" smooth="yes"/>
      <point x="92" y="576"/>
      <point x="100" y="562"/>
      <point x="113" y="563" type="curve"/>
      <point x="135" y="581"/>
      <point x="154" y="592"/>
      <point x="180" y="592" type="curve" smooth="yes"/>
      <point x="206" y="592"/>
      <point x="222" y="580"/>
      <point x="222" y="561" type="curve" smooth="yes"/>
      <point x="222" y="539"/>
      <point x="198" y="524"/>
      <point x="146" y="513" type="curve"/>
    </contour>
  </outline>
</glyph>
<glyph name="acute" format="1">
  <advance width="309"/>
  <unicode hex="00B4"/>
  <outline>
    <contour>
      <point x="112" y="577" type="line"/>
      <point x="241" y="597" type="line" smooth="yes"/>
      <point x="314" y="608"/>
      <point x="375" y="633"/>
      <point x="375" y="709" type="curve" smooth="yes"/>
      <point x="375" y="741"/>
      <point x="365" y="769"/>
      <point x="337" y="779" type="curve"/>
      <point x="89" y="629" type="line"/>
    </contour>
    <contour>
      <point x="193" y="510" type="move" name="_top"/>
    </contour>
  </outline>
</glyph>
<glyph name="paragraph" format="1">
  <advance width="776"/>
  <unicode hex="00B6"/>
  <outline>
    <contour>
      <point x="507" y="660" type="line"/>
      <point x="476" y="670"/>
      <point x="445" y="675"/>
      <point x="406" y="675" type="curve" smooth="yes"/>
      <point x="230" y="675"/>
      <point x="93" y="578"/>
      <point x="93" y="406" type="curve" smooth="yes"/>
      <point x="93" y="303"/>
      <point x="141" y="253"/>
      <point x="236" y="253" type="curve" smooth="yes"/>
      <point x="260" y="253"/>
      <point x="301" y="256"/>
      <point x="333" y="268" type="curve"/>
      <point x="279" y="-5" type="line" smooth="yes"/>
      <point x="264" y="-77"/>
      <point x="243" y="-124"/>
      <point x="168" y="-124" type="curve" smooth="yes"/>
      <point x="134" y="-124"/>
      <point x="99" y="-115"/>
      <point x="76" y="-105" type="curve"/>
      <point x="72" y="-112"/>
      <point x="72" y="-118"/>
      <point x="72" y="-123" type="curve" smooth="yes"/>
      <point x="72" y="-172"/>
      <point x="118" y="-200"/>
      <point x="189" y="-200" type="curve" smooth="yes"/>
      <point x="304" y="-200"/>
      <point x="361" y="-131"/>
      <point x="378" y="-24" type="curve" smooth="yes"/>
    </contour>
    <contour>
      <point x="591" y="660" type="line"/>
      <point x="457" y="-20" type="line"/>
      <point x="567" y="0" type="line"/>
      <point x="675" y="588" type="line"/>
      <point x="684" y="585"/>
      <point x="702" y="583"/>
      <point x="718" y="583" type="curve" smooth="yes"/>
      <point x="773" y="583"/>
      <point x="797" y="606"/>
      <point x="803" y="664" type="curve"/>
      <point x="781" y="661"/>
      <point x="753" y="660"/>
      <point x="704" y="660" type="curve" smooth="yes"/>
    </contour>
  </outline>
</glyph>
<glyph name="periodcentered" format="1">
  <advance width="268"/>
  <unicode hex="00B7"/>
  <outline>
    <component base="period" xOffset="36" yOffset="159"/>
    <contour>
      <point x="113" y="222" type="move" name="_center"/>
    </contour>
  </outline>
</glyph>
<glyph name="cedilla" format="1">
  <advance width="456"/>
  <unicode hex="00B8"/>
  <outline>
    <contour>
      <point x="191" y="11" type="line"/>
      <point x="154" y="-112" type="line"/>
      <point x="168" y="-111"/>
      <point x="181" y="-110"/>
      <point x="198" y="-110" type="curve" smooth="yes"/>
      <point x="216" y="-110"/>
      <point x="237" y="-115"/>
      <point x="237" y="-143" type="curve" smooth="yes"/>
      <point x="237" y="-170"/>
      <point x="213" y="-180"/>
      <point x="196" y="-180" type="curve" smooth="yes"/>
      <point x="159" y="-180"/>
      <point x="142" y="-167"/>
      <point x="130" y="-146" type="curve"/>
      <point x="117" y="-162"/>
      <point x="111" y="-186"/>
      <point x="111" y="-205" type="curve" smooth="yes"/>
      <point x="111" y="-239"/>
      <point x="149" y="-260"/>
      <point x="210" y="-260" type="curve" smooth="yes"/>
      <point x="305" y="-260"/>
      <point x="385" y="-210"/>
      <point x="385" y="-137" type="curve" smooth="yes"/>
      <point x="385" y="-77"/>
      <point x="332" y="-54"/>
      <point x="269" y="-54" type="curve" smooth="yes"/>
      <point x="256" y="-54"/>
      <point x="230" y="-54"/>
      <point x="223" y="-56" type="curve"/>
      <point x="260" y="-74" type="line"/>
      <point x="285" y="11" type="line"/>
    </contour>
    <contour>
      <point x="245" y="0" type="move" name="_bottom"/>
    </contour>
  </outline>
</glyph>
<glyph name="uni00B9" format="1">
  <advance width="313"/>
  <unicode hex="00B9"/>
  <outline>
    <contour>
      <point x="273" y="675" type="line"/>
      <point x="177" y="633"/>
      <point x="122" y="611"/>
      <point x="62" y="601" type="curve"/>
      <point x="65" y="570"/>
      <point x="85" y="546"/>
      <point x="115" y="546" type="curve" smooth="yes"/>
      <point x="133" y="546"/>
      <point x="158" y="555"/>
      <point x="168" y="565" type="curve"/>
      <point x="119" y="361" type="line"/>
      <point x="81" y="361" type="line" smooth="yes"/>
      <point x="53" y="361"/>
      <point x="35" y="341"/>
      <point x="35" y="307" type="curve" smooth="yes"/>
      <point x="35" y="308"/>
      <point x="35" y="298"/>
      <point x="37" y="293" type="curve"/>
      <point x="58" y="294"/>
      <point x="75" y="293"/>
      <point x="70" y="293" type="curve" smooth="yes"/>
      <point x="145" y="293"/>
      <point x="209" y="288"/>
      <point x="245" y="288" type="curve" smooth="yes"/>
      <point x="304" y="288"/>
      <point x="326" y="301"/>
      <point x="326" y="336" type="curve" smooth="yes"/>
      <point x="326" y="357"/>
      <point x="321" y="363"/>
      <point x="320" y="368" type="curve"/>
      <point x="307" y="366"/>
      <point x="286" y="362"/>
      <point x="256" y="362" type="curve" smooth="yes"/>
      <point x="250" y="362" type="line"/>
      <point x="302" y="653" type="line"/>
    </contour>
  </outline>
</glyph>
<glyph name="ordmasculine" format="1">
  <advance width="447"/>
  <unicode hex="00BA"/>
  <outline>
    <contour>
      <point x="461" y="631"/>
      <point x="387" y="674"/>
      <point x="288" y="674" type="curve" smooth="yes"/>
      <point x="132" y="674"/>
      <point x="55" y="568"/>
      <point x="55" y="438" type="curve" smooth="yes"/>
      <point x="55" y="337"/>
      <point x="102" y="280"/>
      <point x="218" y="280" type="curve" smooth="yes"/>
      <point x="347" y="280"/>
      <point x="461" y="344"/>
      <point x="461" y="503" type="curve" smooth="yes"/>
    </contour>
    <contour>
      <point x="216" y="316"/>
      <point x="212" y="337"/>
      <point x="212" y="363" type="curve" smooth="yes"/>
      <point x="212" y="404"/>
      <point x="229" y="636"/>
      <point x="282" y="636" type="curve" smooth="yes"/>
      <point x="301" y="636"/>
      <point x="306" y="616"/>
      <point x="306" y="591" type="curve" smooth="yes"/>
      <point x="306" y="559"/>
      <point x="285" y="316"/>
      <point x="236" y="316" type="curve" smooth="yes"/>
    </contour>
    <contour>
      <point x="315" y="156" type="line" smooth="yes"/>
      <point x="359" y="156"/>
      <point x="379" y="183"/>
      <point x="379" y="214" type="curve" smooth="yes"/>
      <point x="379" y="224"/>
      <point x="376" y="231"/>
      <point x="374" y="238" type="curve"/>
      <point x="91" y="238" type="line" smooth="yes"/>
      <point x="60" y="238"/>
      <point x="35" y="213"/>
      <point x="35" y="182" type="curve" smooth="yes"/>
      <point x="35" y="169"/>
      <point x="39" y="165"/>
      <point x="40" y="156" type="curve"/>
    </contour>
  </outline>
</glyph>
<glyph name="guillemotright" format="1">
  <advance width="571"/>
  <unicode hex="00BB"/>
  <outline>
    <contour>
      <point x="187" y="510" type="line"/>
      <point x="55" y="510" type="line"/>
      <point x="107" y="317" type="line"/>
      <point x="-11" y="126" type="line"/>
      <point x="115" y="126" type="line"/>
      <point x="286" y="317" type="line"/>
    </contour>
    <contour>
      <point x="431" y="510" type="line"/>
      <point x="299" y="510" type="line"/>
      <point x="351" y="317" type="line"/>
      <point x="233" y="126" type="line"/>
      <point x="359" y="126" type="line"/>
      <point x="530" y="317" type="line"/>
    </contour>
  </outline>
</glyph>
<glyph name="onequarter" format="1">
  <advance width="794"/>
  <unicode hex="00BC"/>
  <outline>
    <contour>
      <point x="198" y="-34" type="line" smooth="yes"/>
      <point x="194" y="-45"/>
      <point x="192" y="-53"/>
      <point x="192" y="-61" type="curve" smooth="yes"/>
      <point x="192" y="-81"/>
      <point x="207" y="-91"/>
      <point x="239" y="-91" type="curve" smooth="yes"/>
      <point x="254" y="-91"/>
      <point x="269" y="-89"/>
      <point x="272" y="-88" type="curve"/>
      <point x="594" y="649" type="line" smooth="yes"/>
      <point x="601" y="666"/>
      <point x="603" y="680"/>
      <point x="603" y="688" type="curve" smooth="yes"/>
      <point x="603" y="714"/>
      <point x="586" y="720"/>
      <point x="551" y="720" type="curve" smooth="yes"/>
      <point x="538" y="720"/>
      <point x="531" y="719"/>
      <point x="524" y="718" type="curve"/>
    </contour>
    <contour>
      <point x="295" y="679" type="line"/>
      <point x="196" y="633"/>
      <point x="136" y="609"/>
      <point x="76" y="600" type="curve"/>
      <point x="79" y="579"/>
      <point x="97" y="546"/>
      <point x="134" y="546" type="curve" smooth="yes"/>
      <point x="146" y="546"/>
      <point x="166" y="549"/>
      <point x="178" y="564" type="curve"/>
      <point x="129" y="353" type="line"/>
      <point x="101" y="353" type="line" smooth="yes"/>
      <point x="75" y="353"/>
      <point x="58" y="328"/>
      <point x="58" y="298" type="curve" smooth="yes"/>
      <point x="58" y="293"/>
      <point x="58" y="291"/>
      <point x="60" y="283" type="curve"/>
      <point x="75" y="285"/>
      <point x="93" y="284"/>
      <point x="102" y="284" type="curve" smooth="yes"/>
      <point x="164" y="284"/>
      <point x="212" y="279"/>
      <point x="244" y="279" type="curve" smooth="yes"/>
      <point x="302" y="279"/>
      <point x="322" y="294"/>
      <point x="322" y="326" type="curve" smooth="yes"/>
      <point x="322" y="340"/>
      <point x="319" y="350"/>
      <point x="315" y="358" type="curve"/>
      <point x="304" y="357"/>
      <point x="285" y="353"/>
      <point x="257" y="353" type="curve" smooth="yes"/>
      <point x="251" y="353" type="line"/>
      <point x="306" y="651" type="line"/>
    </contour>
    <contour>
      <point x="441" y="163" type="line"/>
      <point x="444" y="88" type="line"/>
      <point x="488" y="77"/>
      <point x="527" y="71"/>
      <point x="568" y="69" type="curve"/>
      <point x="565" y="52" type="line" smooth="yes"/>
      <point x="564" y="48"/>
      <point x="563" y="37"/>
      <point x="563" y="29" type="curve" smooth="yes"/>
      <point x="563" y="3"/>
      <point x="581" y="-12"/>
      <point x="617" y="-12" type="curve" smooth="yes"/>
      <point x="635" y="-12"/>
      <point x="648" y="-8"/>
      <point x="658" y="0" type="curve"/>
      <point x="668" y="67" type="line"/>
      <point x="722" y="71"/>
      <point x="746" y="90"/>
      <point x="746" y="121" type="curve" smooth="yes"/>
      <point x="746" y="138"/>
      <point x="739" y="156"/>
      <point x="733" y="166" type="curve"/>
      <point x="722" y="159"/>
      <point x="714" y="155"/>
      <point x="682" y="152" type="curve"/>
      <point x="696" y="231"/>
      <point x="714" y="309"/>
      <point x="731" y="380" type="curve"/>
      <point x="651" y="388" type="line"/>
    </contour>
    <contour>
      <point x="621" y="288" type="line"/>
      <point x="607" y="246"/>
      <point x="594" y="207"/>
      <point x="582" y="151" type="curve"/>
      <point x="552" y="151"/>
      <point x="528" y="153"/>
      <point x="501" y="156" type="curve"/>
    </contour>
  </outline>
</glyph>
<glyph name="onehalf" format="1">
  <advance width="822"/>
  <unicode hex="00BD"/>
  <outline>
    <contour>
      <point x="198" y="-34" type="line" smooth="yes"/>
      <point x="194" y="-45"/>
      <point x="192" y="-53"/>
      <point x="192" y="-61" type="curve" smooth="yes"/>
      <point x="192" y="-81"/>
      <point x="207" y="-91"/>
      <point x="239" y="-91" type="curve" smooth="yes"/>
      <point x="254" y="-91"/>
      <point x="269" y="-89"/>
      <point x="272" y="-88" type="curve"/>
      <point x="594" y="649" type="line" smooth="yes"/>
      <point x="601" y="666"/>
      <point x="603" y="680"/>
      <point x="603" y="688" type="curve" smooth="yes"/>
      <point x="603" y="714"/>
      <point x="586" y="720"/>
      <point x="551" y="720" type="curve" smooth="yes"/>
      <point x="538" y="720"/>
      <point x="531" y="719"/>
      <point x="524" y="718" type="curve"/>
    </contour>
    <contour>
      <point x="295" y="679" type="line"/>
      <point x="196" y="633"/>
      <point x="136" y="609"/>
      <point x="76" y="600" type="curve"/>
      <point x="79" y="579"/>
      <point x="97" y="546"/>
      <point x="134" y="546" type="curve" smooth="yes"/>
      <point x="146" y="546"/>
      <point x="166" y="549"/>
      <point x="178" y="564" type="curve"/>
      <point x="129" y="353" type="line"/>
      <point x="101" y="353" type="line" smooth="yes"/>
      <point x="75" y="353"/>
      <point x="58" y="328"/>
      <point x="58" y="298" type="curve" smooth="yes"/>
      <point x="58" y="293"/>
      <point x="58" y="291"/>
      <point x="60" y="283" type="curve"/>
      <point x="75" y="285"/>
      <point x="93" y="284"/>
      <point x="102" y="284" type="curve" smooth="yes"/>
      <point x="164" y="284"/>
      <point x="212" y="279"/>
      <point x="244" y="279" type="curve" smooth="yes"/>
      <point x="302" y="279"/>
      <point x="322" y="294"/>
      <point x="322" y="326" type="curve" smooth="yes"/>
      <point x="322" y="340"/>
      <point x="319" y="350"/>
      <point x="315" y="358" type="curve"/>
      <point x="304" y="357"/>
      <point x="285" y="353"/>
      <point x="257" y="353" type="curve" smooth="yes"/>
      <point x="251" y="353" type="line"/>
      <point x="306" y="651" type="line"/>
    </contour>
    <contour>
      <point x="501" y="137" type="line" smooth="yes"/>
      <point x="473" y="115"/>
      <point x="457" y="96"/>
      <point x="457" y="63" type="curve" smooth="yes"/>
      <point x="457" y="37"/>
      <point x="466" y="11"/>
      <point x="478" y="1" type="curve"/>
      <point x="481" y="7"/>
      <point x="488" y="11"/>
      <point x="505" y="11" type="curve" smooth="yes"/>
      <point x="534" y="11"/>
      <point x="568" y="-5"/>
      <point x="627" y="-5" type="curve" smooth="yes"/>
      <point x="708" y="-5"/>
      <point x="740" y="26"/>
      <point x="740" y="76" type="curve" smooth="yes"/>
      <point x="740" y="92"/>
      <point x="737" y="106"/>
      <point x="722" y="127" type="curve"/>
      <point x="708" y="111"/>
      <point x="686" y="108"/>
      <point x="661" y="108" type="curve" smooth="yes"/>
      <point x="635" y="108"/>
      <point x="593" y="111"/>
      <point x="560" y="116" type="curve"/>
      <point x="589" y="129"/>
      <point x="653" y="167"/>
      <point x="683" y="188" type="curve" smooth="yes"/>
      <point x="729" y="219"/>
      <point x="755" y="252"/>
      <point x="755" y="295" type="curve" smooth="yes"/>
      <point x="755" y="366"/>
      <point x="691" y="389"/>
      <point x="634" y="389" type="curve" smooth="yes"/>
      <point x="567" y="389"/>
      <point x="486" y="358"/>
      <point x="486" y="301" type="curve" smooth="yes"/>
      <point x="486" y="274"/>
      <point x="504" y="252"/>
      <point x="524" y="253" type="curve"/>
      <point x="534" y="280"/>
      <point x="567" y="301"/>
      <point x="603" y="301" type="curve" smooth="yes"/>
      <point x="623" y="301"/>
      <point x="640" y="295"/>
      <point x="640" y="266" type="curve" smooth="yes"/>
      <point x="640" y="248"/>
      <point x="623" y="229"/>
      <point x="595" y="209" type="curve" smooth="yes"/>
    </contour>
  </outline>
</glyph>
<glyph name="threequarters" format="1">
  <advance width="789"/>
  <unicode hex="00BE"/>
  <outline>
    <contour>
      <point x="193" y="-34" type="line" smooth="yes"/>
      <point x="189" y="-45"/>
      <point x="187" y="-53"/>
      <point x="187" y="-61" type="curve" smooth="yes"/>
      <point x="187" y="-81"/>
      <point x="203" y="-91"/>
      <point x="235" y="-91" type="curve" smooth="yes"/>
      <point x="249" y="-91"/>
      <point x="265" y="-89"/>
      <point x="268" y="-88" type="curve"/>
      <point x="589" y="649" type="line" smooth="yes"/>
      <point x="596" y="666"/>
      <point x="598" y="680"/>
      <point x="598" y="688" type="curve" smooth="yes"/>
      <point x="598" y="714"/>
      <point x="582" y="720"/>
      <point x="546" y="720" type="curve" smooth="yes"/>
      <point x="533" y="720"/>
      <point x="526" y="719"/>
      <point x="519" y="718" type="curve"/>
    </contour>
    <contour>
      <point x="118" y="448" type="line"/>
      <point x="166" y="448"/>
      <point x="178" y="423"/>
      <point x="178" y="399" type="curve" smooth="yes"/>
      <point x="178" y="366"/>
      <point x="153" y="346"/>
      <point x="118" y="346" type="curve" smooth="yes"/>
      <point x="92" y="346"/>
      <point x="61" y="357"/>
      <point x="50" y="386" type="curve"/>
      <point x="35" y="373"/>
      <point x="25" y="350"/>
      <point x="25" y="329" type="curve" smooth="yes"/>
      <point x="25" y="294"/>
      <point x="55" y="268"/>
      <point x="131" y="268" type="curve" smooth="yes"/>
      <point x="247" y="268"/>
      <point x="307" y="330"/>
      <point x="307" y="397" type="curve" smooth="yes"/>
      <point x="307" y="436"/>
      <point x="287" y="476"/>
      <point x="236" y="493" type="curve"/>
      <point x="296" y="516"/>
      <point x="326" y="557"/>
      <point x="326" y="599" type="curve" smooth="yes"/>
      <point x="326" y="651"/>
      <point x="278" y="675"/>
      <point x="220" y="675" type="curve" smooth="yes"/>
      <point x="166" y="675"/>
      <point x="77" y="654"/>
      <point x="77" y="587" type="curve" smooth="yes"/>
      <point x="77" y="574"/>
      <point x="80" y="556"/>
      <point x="98" y="555" type="curve"/>
      <point x="121" y="577"/>
      <point x="141" y="586"/>
      <point x="164" y="586" type="curve" smooth="yes"/>
      <point x="190" y="586"/>
      <point x="208" y="574"/>
      <point x="208" y="554" type="curve" smooth="yes"/>
      <point x="208" y="534"/>
      <point x="189" y="516"/>
      <point x="131" y="506" type="curve"/>
    </contour>
    <contour>
      <point x="436" y="163" type="line"/>
      <point x="439" y="88" type="line"/>
      <point x="483" y="77"/>
      <point x="522" y="71"/>
      <point x="563" y="69" type="curve"/>
      <point x="560" y="52" type="line" smooth="yes"/>
      <point x="559" y="48"/>
      <point x="558" y="37"/>
      <point x="558" y="29" type="curve" smooth="yes"/>
      <point x="558" y="3"/>
      <point x="576" y="-12"/>
      <point x="612" y="-12" type="curve" smooth="yes"/>
      <point x="630" y="-12"/>
      <point x="643" y="-8"/>
      <point x="653" y="0" type="curve"/>
      <point x="663" y="67" type="line"/>
      <point x="717" y="71"/>
      <point x="741" y="90"/>
      <point x="741" y="121" type="curve" smooth="yes"/>
      <point x="741" y="138"/>
      <point x="734" y="156"/>
      <point x="728" y="166" type="curve"/>
      <point x="717" y="159"/>
      <point x="709" y="155"/>
      <point x="677" y="152" type="curve"/>
      <point x="691" y="231"/>
      <point x="709" y="309"/>
      <point x="726" y="380" type="curve"/>
      <point x="646" y="388" type="line"/>
    </contour>
    <contour>
      <point x="616" y="288" type="line"/>
      <point x="602" y="246"/>
      <point x="589" y="207"/>
      <point x="577" y="151" type="curve"/>
      <point x="547" y="151"/>
      <point x="523" y="153"/>
      <point x="496" y="156" type="curve"/>
    </contour>
  </outline>
</glyph>
<glyph name="questiondown" format="1">
  <advance width="542"/>
  <unicode hex="00BF"/>
  <outline>
    <contour>
      <point x="-24" y="-143"/>
      <point x="83" y="-170"/>
      <point x="215" y="-170" type="curve" smooth="yes"/>
      <point x="332" y="-170"/>
      <point x="486" y="-138"/>
      <point x="486" y="-39" type="curve" smooth="yes"/>
      <point x="486" y="28"/>
      <point x="421" y="42"/>
      <point x="361" y="42" type="curve" smooth="yes"/>
      <point x="339" y="42"/>
      <point x="308" y="40"/>
      <point x="293" y="36" type="curve"/>
      <point x="300" y="21"/>
      <point x="302" y="4"/>
      <point x="302" y="-10" type="curve" smooth="yes"/>
      <point x="302" y="-64"/>
      <point x="273" y="-110"/>
      <point x="222" y="-110" type="curve" smooth="yes"/>
      <point x="191" y="-110"/>
      <point x="187" y="-92"/>
      <point x="187" y="-70" type="curve" smooth="yes"/>
      <point x="187" y="73"/>
      <point x="429" y="66"/>
      <point x="429" y="235" type="curve" smooth="yes"/>
      <point x="429" y="291"/>
      <point x="395" y="331"/>
      <point x="357" y="331" type="curve"/>
      <point x="357" y="232"/>
      <point x="-24" y="153"/>
      <point x="-24" y="-44" type="curve" smooth="yes"/>
    </contour>
    <component base="period" xOffset="312" yOffset="382"/>
  </outline>
</glyph>
<glyph name="AE" format="1">
  <advance width="803"/>
  <unicode hex="00C6"/>
  <outline>
    <contour>
      <point x="354" y="177" type="line"/>
      <point x="355" y="177"/>
      <point x="354" y="171"/>
      <point x="354" y="157" type="curve" smooth="yes"/>
      <point x="354" y="27"/>
      <point x="456" y="-20"/>
      <point x="589" y="-20" type="curve" smooth="yes"/>
      <point x="681" y="-20"/>
      <point x="780" y="2"/>
      <point x="780" y="109" type="curve" smooth="yes"/>
      <point x="780" y="124"/>
      <point x="778" y="146"/>
      <point x="770" y="168" type="curve"/>
      <point x="733" y="154"/>
      <point x="688" y="151"/>
      <point x="657" y="151" type="curve" smooth="yes"/>
      <point x="594" y="151"/>
      <point x="572" y="164"/>
      <point x="572" y="223" type="curve" smooth="yes"/>
      <point x="572" y="253"/>
      <point x="578" y="282"/>
      <point x="584" y="290" type="curve"/>
      <point x="615" y="273"/>
      <point x="657" y="265"/>
      <point x="684" y="265" type="curve" smooth="yes"/>
      <point x="753" y="265"/>
      <point x="790" y="313"/>
      <point x="790" y="392" type="curve"/>
      <point x="599" y="392" type="line"/>
      <point x="625" y="547" type="line"/>
      <point x="664" y="528"/>
      <point x="704" y="520"/>
      <point x="735" y="520" type="curve" smooth="yes"/>
      <point x="810" y="520"/>
      <point x="862" y="565"/>
      <point x="862" y="660" type="curve"/>
      <point x="341" y="660" type="line"/>
      <point x="-61" y="0" type="line"/>
      <point x="115" y="0" type="line"/>
      <point x="154" y="88"/>
      <point x="152" y="89"/>
      <point x="195" y="177" type="curve"/>
    </contour>
    <contour>
      <point x="233" y="254" type="line"/>
      <point x="288" y="361"/>
      <point x="347" y="461"/>
      <point x="412" y="559" type="curve"/>
      <point x="384" y="387"/>
      <point x="371" y="297"/>
      <point x="364" y="254" type="curve"/>
    </contour>
    <contour>
      <point x="502" y="660" type="move" name="top"/>
    </contour>
  </outline>
</glyph>
<glyph name="multiply" format="1">
  <advance width="576"/>
  <unicode hex="00D7"/>
  <outline>
    <contour>
      <point x="348" y="206" type="line"/>
      <point x="528" y="391" type="line"/>
      <point x="518" y="432"/>
      <point x="499" y="448"/>
      <point x="468" y="448" type="curve" smooth="yes"/>
      <point x="442" y="448"/>
      <point x="419" y="437"/>
      <point x="398" y="416" type="curve" smooth="yes"/>
      <point x="283" y="298" type="line"/>
    </contour>
    <contour>
      <point x="228" y="256" type="line"/>
      <point x="38" y="62" type="line"/>
      <point x="50" y="26"/>
      <point x="75" y="11"/>
      <point x="107" y="11" type="curve" smooth="yes"/>
      <point x="135" y="11"/>
      <point x="155" y="21"/>
      <point x="175" y="41" type="curve" smooth="yes"/>
      <point x="298" y="166" type="line"/>
    </contour>
    <contour>
      <point x="371" y="9" type="line"/>
      <point x="420" y="10"/>
      <point x="455" y="44"/>
      <point x="455" y="86" type="curve" smooth="yes"/>
      <point x="455" y="102"/>
      <point x="451" y="112"/>
      <point x="443" y="123" type="curve" smooth="yes"/>
      <point x="200" y="454" type="line"/>
      <point x="153" y="444"/>
      <point x="125" y="415"/>
      <point x="125" y="373" type="curve" smooth="yes"/>
      <point x="125" y="355"/>
      <point x="130" y="339"/>
      <point x="140" y="326" type="curve" smooth="yes"/>
    </contour>
  </outline>
</glyph>
<glyph name="Oslash" format="1">
  <advance width="739"/>
  <unicode hex="00D8"/>
  <outline>
    <contour>
      <point x="615" y="697"/>
      <point x="600" y="680"/>
      <point x="568" y="643" type="curve" smooth="yes"/>
      <point x="549" y="619" type="line"/>
      <point x="641" y="624" type="line"/>
      <point x="593" y="665"/>
      <point x="523" y="680"/>
      <point x="442" y="680" type="curve" smooth="yes"/>
      <point x="188" y="680"/>
      <point x="36" y="522"/>
      <point x="36" y="278" type="curve" smooth="yes"/>
      <point x="36" y="197"/>
      <point x="52" y="132"/>
      <point x="82" y="85" type="curve"/>
      <point x="79" y="81" type="line" smooth="yes"/>
      <point x="62" y="62"/>
      <point x="52" y="35"/>
      <point x="52" y="9" type="curve" smooth="yes"/>
      <point x="53" y="-34"/>
      <point x="80" y="-60"/>
      <point x="117" y="-60" type="curve"/>
      <point x="133" y="-30"/>
      <point x="170" y="20"/>
      <point x="205" y="51" type="curve" smooth="yes"/>
      <point x="221" y="60" type="line"/>
      <point x="110" y="49" type="line"/>
      <point x="161" y="3"/>
      <point x="235" y="-20"/>
      <point x="329" y="-20" type="curve" smooth="yes"/>
      <point x="581" y="-20"/>
      <point x="735" y="136"/>
      <point x="735" y="382" type="curve" smooth="yes"/>
      <point x="735" y="472"/>
      <point x="715" y="542"/>
      <point x="678" y="591" type="curve"/>
      <point x="667" y="580" type="line" smooth="yes"/>
      <point x="686" y="599"/>
      <point x="697" y="623"/>
      <point x="697" y="648" type="curve" smooth="yes"/>
      <point x="697" y="685"/>
      <point x="667" y="725"/>
      <point x="632" y="725" type="curve"/>
    </contour>
    <contour>
      <point x="439" y="233"/>
      <point x="413" y="51"/>
      <point x="345" y="51" type="curve" smooth="yes"/>
      <point x="293" y="51"/>
      <point x="299" y="116"/>
      <point x="299" y="174" type="curve" smooth="yes"/>
      <point x="299" y="192" type="line"/>
      <point x="242" y="96" type="line"/>
      <point x="457" y="341" type="line"/>
    </contour>
    <contour>
      <point x="467" y="610"/>
      <point x="470" y="568"/>
      <point x="472" y="532" type="curve"/>
      <point x="245" y="271" type="line"/>
      <point x="308" y="270" type="line"/>
      <point x="310" y="282"/>
      <point x="310" y="296"/>
      <point x="314" y="315" type="curve" smooth="yes"/>
      <point x="355" y="535"/>
      <point x="372" y="610"/>
      <point x="429" y="610" type="curve" smooth="yes"/>
    </contour>
    <contour>
      <point x="411" y="660" type="move" name="top"/>
    </contour>
  </outline>
</glyph>
<glyph name="Thorn" format="1">
  <advance width="677"/>
  <unicode hex="00DE"/>
  <outline>
    <contour>
      <point x="116" y="660" type="line"/>
      <point x="-11" y="0" type="line"/>
      <point x="257" y="0" type="line"/>
      <point x="349" y="473" type="line"/>
      <point x="355" y="474"/>
      <point x="370" y="474"/>
      <point x="377" y="474" type="curve" smooth="yes"/>
      <point x="438" y="474"/>
      <point x="470" y="448"/>
      <point x="470" y="378" type="curve" smooth="yes"/>
      <point x="470" y="286"/>
      <point x="414" y="222"/>
      <point x="338" y="206" type="curve" smooth="yes"/>
      <point x="331" y="204"/>
      <point x="319" y="203"/>
      <point x="313" y="202" type="curve"/>
      <point x="333" y="156"/>
      <point x="385" y="140"/>
      <point x="447" y="140" type="curve" smooth="yes"/>
      <point x="587" y="140"/>
      <point x="697" y="217"/>
      <point x="697" y="354" type="curve" smooth="yes"/>
      <point x="697" y="517"/>
      <point x="548" y="538"/>
      <point x="381" y="538" type="curve" smooth="yes"/>
      <point x="374" y="538"/>
      <point x="365" y="538"/>
      <point x="361" y="537" type="curve"/>
      <point x="385" y="660" type="line"/>
    </contour>
  </outline>
</glyph>
<glyph name="germandbls" format="1">
  <advance width="822"/>
  <unicode hex="00DF"/>
  <outline>
    <contour>
      <point x="16" y="19" type="line" smooth="yes"/>
      <point x="-8" y="-93"/>
      <point x="-77" y="-143"/>
      <point x="-134" y="-131" type="curve"/>
      <point x="-103" y="-183"/>
      <point x="-68" y="-202"/>
      <point x="7" y="-202" type="curve" smooth="yes"/>
      <point x="138" y="-202"/>
      <point x="221" y="-161"/>
      <point x="252" y="7" type="curve" smooth="yes"/>
      <point x="342" y="489" type="line" smooth="yes"/>
      <point x="372" y="640"/>
      <point x="415" y="675"/>
      <point x="452" y="675" type="curve" smooth="yes"/>
      <point x="487" y="675"/>
      <point x="507" y="644"/>
      <point x="507" y="606" type="curve" smooth="yes"/>
      <point x="507" y="506"/>
      <point x="357" y="488"/>
      <point x="357" y="362" type="curve" smooth="yes"/>
      <point x="357" y="310"/>
      <point x="400" y="263"/>
      <point x="448" y="223" type="curve" smooth="yes"/>
      <point x="509" y="170"/>
      <point x="579" y="127"/>
      <point x="579" y="78" type="curve" smooth="yes"/>
      <point x="579" y="43"/>
      <point x="556" y="27"/>
      <point x="529" y="27" type="curve" smooth="yes"/>
      <point x="503" y="27"/>
      <point x="485" y="50"/>
      <point x="485" y="94" type="curve" smooth="yes"/>
      <point x="485" y="116"/>
      <point x="490" y="140"/>
      <point x="501" y="158" type="curve"/>
      <point x="479" y="170"/>
      <point x="452" y="176"/>
      <point x="425" y="176" type="curve" smooth="yes"/>
      <point x="352" y="176"/>
      <point x="323" y="143"/>
      <point x="323" y="94" type="curve" smooth="yes"/>
      <point x="323" y="13"/>
      <point x="421" y="-19"/>
      <point x="501" y="-19" type="curve" smooth="yes"/>
      <point x="635" y="-19"/>
      <point x="791" y="69"/>
      <point x="791" y="186" type="curve" smooth="yes"/>
      <point x="791" y="269"/>
      <point x="713" y="308"/>
      <point x="644" y="343" type="curve" smooth="yes"/>
      <point x="593" y="368"/>
      <point x="547" y="384"/>
      <point x="547" y="418" type="curve" smooth="yes"/>
      <point x="547" y="471"/>
      <point x="689" y="516"/>
      <point x="689" y="587" type="curve" smooth="yes"/>
      <point x="689" y="686"/>
      <point x="562" y="720"/>
      <point x="435" y="720" type="curve" smooth="yes"/>
      <point x="277" y="720"/>
      <point x="150" y="668"/>
      <point x="115" y="497" type="curve" smooth="yes"/>
    </contour>
  </outline>
</glyph>
